G04 EAGLE Gerber RS-274X export*
G75*
%MOMM*%
%FSLAX34Y34*%
%LPD*%
%INBottom Copper*%
%IPPOS*%
%AMOC8*
5,1,8,0,0,1.08239X$1,22.5*%
G01*
%ADD10R,2.413000X2.413000*%
%ADD11C,2.413000*%
%ADD12C,1.879600*%
%ADD13C,1.400000*%
%ADD14C,1.000000*%
%ADD15R,4.064000X1.524000*%
%ADD16C,1.500000*%

G36*
X404916Y10925D02*
X404916Y10925D01*
X404939Y10923D01*
X405140Y10945D01*
X405342Y10963D01*
X405364Y10969D01*
X405387Y10971D01*
X405581Y11028D01*
X405776Y11081D01*
X405797Y11091D01*
X405819Y11098D01*
X406001Y11188D01*
X406183Y11275D01*
X406201Y11288D01*
X406222Y11298D01*
X406384Y11419D01*
X406549Y11537D01*
X406565Y11553D01*
X406583Y11567D01*
X406721Y11714D01*
X406863Y11859D01*
X406876Y11879D01*
X406892Y11895D01*
X407002Y12065D01*
X407115Y12232D01*
X407124Y12254D01*
X407137Y12273D01*
X407215Y12459D01*
X407297Y12644D01*
X407303Y12667D01*
X407312Y12688D01*
X407356Y12885D01*
X407404Y13082D01*
X407405Y13105D01*
X407410Y13127D01*
X407419Y13329D01*
X407431Y13531D01*
X407429Y13554D01*
X407430Y13577D01*
X407403Y13777D01*
X407379Y13978D01*
X407373Y14000D01*
X407370Y14023D01*
X407308Y14215D01*
X407249Y14409D01*
X407239Y14430D01*
X407232Y14452D01*
X407092Y14732D01*
X403729Y20558D01*
X401954Y27179D01*
X401954Y34035D01*
X403729Y40656D01*
X407156Y46593D01*
X412004Y51441D01*
X417941Y54868D01*
X424562Y56643D01*
X431418Y56643D01*
X438039Y54868D01*
X442468Y52311D01*
X442489Y52302D01*
X442508Y52289D01*
X442694Y52207D01*
X442877Y52122D01*
X442899Y52116D01*
X442920Y52106D01*
X443117Y52058D01*
X443312Y52007D01*
X443335Y52005D01*
X443358Y52000D01*
X443559Y51987D01*
X443761Y51971D01*
X443784Y51973D01*
X443807Y51972D01*
X444008Y51996D01*
X444209Y52015D01*
X444231Y52021D01*
X444254Y52024D01*
X444449Y52083D01*
X444642Y52138D01*
X444663Y52148D01*
X444685Y52154D01*
X444865Y52246D01*
X445047Y52335D01*
X445066Y52348D01*
X445087Y52359D01*
X445247Y52481D01*
X445411Y52600D01*
X445427Y52617D01*
X445445Y52631D01*
X445583Y52780D01*
X445722Y52926D01*
X445735Y52945D01*
X445751Y52962D01*
X445859Y53133D01*
X445971Y53301D01*
X445980Y53322D01*
X445992Y53342D01*
X446069Y53528D01*
X446149Y53714D01*
X446155Y53737D01*
X446163Y53758D01*
X446206Y53956D01*
X446252Y54153D01*
X446253Y54176D01*
X446258Y54198D01*
X446277Y54510D01*
X446277Y96266D01*
X446274Y96301D01*
X446276Y96335D01*
X446254Y96524D01*
X446237Y96715D01*
X446228Y96748D01*
X446224Y96782D01*
X446169Y96965D01*
X446119Y97149D01*
X446104Y97180D01*
X446094Y97213D01*
X446007Y97384D01*
X445925Y97556D01*
X445905Y97584D01*
X445890Y97615D01*
X445774Y97767D01*
X445663Y97922D01*
X445638Y97946D01*
X445618Y97973D01*
X445478Y98102D01*
X445341Y98236D01*
X445312Y98255D01*
X445286Y98279D01*
X445125Y98381D01*
X444968Y98488D01*
X444936Y98502D01*
X444907Y98520D01*
X444730Y98593D01*
X444556Y98670D01*
X444522Y98678D01*
X444490Y98691D01*
X444303Y98731D01*
X444118Y98777D01*
X444084Y98779D01*
X444050Y98786D01*
X443738Y98805D01*
X429005Y98805D01*
X429005Y107696D01*
X429002Y107730D01*
X429004Y107765D01*
X428982Y107954D01*
X428965Y108144D01*
X428956Y108178D01*
X428952Y108212D01*
X428897Y108395D01*
X428847Y108579D01*
X428832Y108610D01*
X428822Y108643D01*
X428735Y108814D01*
X428662Y108968D01*
X428688Y109007D01*
X428702Y109038D01*
X428720Y109068D01*
X428793Y109244D01*
X428870Y109418D01*
X428878Y109452D01*
X428891Y109484D01*
X428931Y109671D01*
X428977Y109856D01*
X428979Y109890D01*
X428986Y109924D01*
X429005Y110236D01*
X429005Y119127D01*
X443738Y119127D01*
X443772Y119130D01*
X443807Y119128D01*
X443997Y119150D01*
X444187Y119167D01*
X444220Y119176D01*
X444254Y119180D01*
X444438Y119235D01*
X444621Y119285D01*
X444652Y119300D01*
X444685Y119310D01*
X444856Y119397D01*
X445028Y119479D01*
X445056Y119499D01*
X445087Y119514D01*
X445238Y119629D01*
X445394Y119741D01*
X445418Y119766D01*
X445445Y119786D01*
X445575Y119927D01*
X445708Y120063D01*
X445727Y120092D01*
X445751Y120118D01*
X445853Y120279D01*
X445960Y120436D01*
X445974Y120468D01*
X445992Y120497D01*
X446065Y120674D01*
X446142Y120848D01*
X446150Y120882D01*
X446163Y120914D01*
X446203Y121101D01*
X446249Y121286D01*
X446251Y121320D01*
X446258Y121354D01*
X446277Y121666D01*
X446277Y147066D01*
X446274Y147101D01*
X446276Y147135D01*
X446254Y147324D01*
X446237Y147515D01*
X446228Y147548D01*
X446224Y147582D01*
X446169Y147765D01*
X446119Y147949D01*
X446104Y147980D01*
X446094Y148013D01*
X446007Y148184D01*
X445925Y148356D01*
X445905Y148384D01*
X445890Y148415D01*
X445774Y148567D01*
X445663Y148722D01*
X445638Y148746D01*
X445618Y148773D01*
X445478Y148902D01*
X445341Y149036D01*
X445312Y149055D01*
X445286Y149079D01*
X445125Y149181D01*
X444968Y149288D01*
X444936Y149302D01*
X444907Y149320D01*
X444730Y149393D01*
X444556Y149470D01*
X444522Y149478D01*
X444490Y149491D01*
X444303Y149531D01*
X444118Y149577D01*
X444084Y149579D01*
X444050Y149586D01*
X443738Y149605D01*
X429005Y149605D01*
X429005Y158496D01*
X429002Y158530D01*
X429004Y158565D01*
X428982Y158754D01*
X428965Y158944D01*
X428956Y158978D01*
X428952Y159012D01*
X428897Y159195D01*
X428847Y159379D01*
X428832Y159410D01*
X428822Y159443D01*
X428735Y159614D01*
X428662Y159768D01*
X428688Y159807D01*
X428702Y159838D01*
X428720Y159868D01*
X428793Y160044D01*
X428870Y160218D01*
X428878Y160252D01*
X428891Y160284D01*
X428931Y160471D01*
X428977Y160656D01*
X428979Y160690D01*
X428986Y160724D01*
X429005Y161036D01*
X429005Y169927D01*
X443738Y169927D01*
X443772Y169930D01*
X443807Y169928D01*
X443997Y169950D01*
X444187Y169967D01*
X444220Y169976D01*
X444254Y169980D01*
X444438Y170035D01*
X444621Y170085D01*
X444652Y170100D01*
X444685Y170110D01*
X444856Y170197D01*
X445028Y170279D01*
X445056Y170299D01*
X445087Y170314D01*
X445238Y170429D01*
X445394Y170541D01*
X445418Y170566D01*
X445445Y170586D01*
X445575Y170727D01*
X445708Y170863D01*
X445727Y170892D01*
X445751Y170918D01*
X445853Y171079D01*
X445960Y171236D01*
X445974Y171268D01*
X445992Y171297D01*
X446065Y171474D01*
X446142Y171648D01*
X446150Y171682D01*
X446163Y171714D01*
X446203Y171901D01*
X446249Y172086D01*
X446251Y172120D01*
X446258Y172154D01*
X446277Y172466D01*
X446277Y214575D01*
X446266Y214705D01*
X446264Y214835D01*
X446246Y214928D01*
X446237Y215023D01*
X446203Y215149D01*
X446178Y215277D01*
X446144Y215366D01*
X446119Y215458D01*
X446063Y215575D01*
X446016Y215697D01*
X445966Y215778D01*
X445925Y215864D01*
X445850Y215970D01*
X445782Y216081D01*
X445719Y216153D01*
X445663Y216231D01*
X445570Y216321D01*
X445484Y216419D01*
X445409Y216478D01*
X445341Y216545D01*
X445233Y216617D01*
X445131Y216698D01*
X445047Y216743D01*
X444968Y216797D01*
X444849Y216849D01*
X444734Y216911D01*
X444643Y216940D01*
X444556Y216979D01*
X444429Y217010D01*
X444306Y217050D01*
X444211Y217063D01*
X444118Y217086D01*
X443989Y217094D01*
X443860Y217111D01*
X443764Y217107D01*
X443669Y217113D01*
X443540Y217098D01*
X443410Y217093D01*
X443317Y217072D01*
X443222Y217061D01*
X443097Y217024D01*
X442970Y216995D01*
X442882Y216959D01*
X442791Y216931D01*
X442675Y216872D01*
X442555Y216822D01*
X442475Y216770D01*
X442389Y216727D01*
X442286Y216648D01*
X442177Y216577D01*
X442079Y216491D01*
X442031Y216455D01*
X442000Y216422D01*
X441942Y216370D01*
X441552Y215980D01*
X440337Y215097D01*
X438999Y214415D01*
X437570Y213951D01*
X436087Y213716D01*
X435335Y213716D01*
X435335Y222297D01*
X435332Y222331D01*
X435335Y222366D01*
X435312Y222555D01*
X435296Y222745D01*
X435286Y222779D01*
X435282Y222813D01*
X435227Y222995D01*
X435177Y223179D01*
X435162Y223211D01*
X435152Y223244D01*
X435141Y223266D01*
X435200Y223399D01*
X435208Y223433D01*
X435222Y223465D01*
X435262Y223652D01*
X435307Y223837D01*
X435309Y223871D01*
X435316Y223905D01*
X435335Y224217D01*
X435335Y232798D01*
X436087Y232798D01*
X437570Y232563D01*
X438999Y232099D01*
X440337Y231417D01*
X441552Y230534D01*
X441942Y230143D01*
X442042Y230060D01*
X442135Y229969D01*
X442215Y229915D01*
X442288Y229854D01*
X442401Y229790D01*
X442508Y229717D01*
X442596Y229678D01*
X442679Y229631D01*
X442801Y229587D01*
X442920Y229535D01*
X443013Y229512D01*
X443103Y229480D01*
X443231Y229459D01*
X443358Y229428D01*
X443453Y229422D01*
X443547Y229407D01*
X443677Y229408D01*
X443807Y229400D01*
X443902Y229411D01*
X443997Y229413D01*
X444125Y229437D01*
X444254Y229452D01*
X444346Y229480D01*
X444440Y229498D01*
X444561Y229545D01*
X444685Y229583D01*
X444770Y229626D01*
X444860Y229660D01*
X444971Y229728D01*
X445087Y229787D01*
X445163Y229845D01*
X445244Y229894D01*
X445342Y229980D01*
X445445Y230059D01*
X445510Y230129D01*
X445582Y230193D01*
X445662Y230295D01*
X445751Y230390D01*
X445802Y230471D01*
X445861Y230546D01*
X445922Y230660D01*
X445992Y230770D01*
X446029Y230858D01*
X446074Y230943D01*
X446114Y231066D01*
X446163Y231187D01*
X446183Y231280D01*
X446213Y231371D01*
X446231Y231500D01*
X446258Y231627D01*
X446266Y231757D01*
X446274Y231817D01*
X446273Y231861D01*
X446277Y231939D01*
X446277Y269175D01*
X446266Y269305D01*
X446264Y269435D01*
X446246Y269528D01*
X446237Y269623D01*
X446203Y269749D01*
X446178Y269877D01*
X446144Y269966D01*
X446119Y270058D01*
X446063Y270175D01*
X446016Y270297D01*
X445966Y270378D01*
X445925Y270464D01*
X445850Y270570D01*
X445782Y270681D01*
X445719Y270753D01*
X445663Y270831D01*
X445570Y270921D01*
X445484Y271019D01*
X445409Y271078D01*
X445341Y271145D01*
X445233Y271217D01*
X445131Y271298D01*
X445047Y271343D01*
X444968Y271397D01*
X444849Y271449D01*
X444734Y271511D01*
X444643Y271540D01*
X444556Y271579D01*
X444429Y271610D01*
X444306Y271650D01*
X444211Y271663D01*
X444118Y271686D01*
X443989Y271694D01*
X443860Y271711D01*
X443764Y271707D01*
X443669Y271713D01*
X443540Y271698D01*
X443410Y271693D01*
X443317Y271672D01*
X443222Y271661D01*
X443097Y271624D01*
X442970Y271595D01*
X442882Y271559D01*
X442791Y271531D01*
X442675Y271472D01*
X442555Y271422D01*
X442475Y271370D01*
X442389Y271327D01*
X442286Y271248D01*
X442177Y271177D01*
X442079Y271091D01*
X442031Y271055D01*
X442000Y271022D01*
X441942Y270970D01*
X441552Y270580D01*
X440337Y269697D01*
X438999Y269015D01*
X437570Y268551D01*
X436087Y268316D01*
X435335Y268316D01*
X435335Y276897D01*
X435332Y276931D01*
X435335Y276966D01*
X435312Y277155D01*
X435296Y277345D01*
X435286Y277379D01*
X435282Y277413D01*
X435227Y277596D01*
X435177Y277779D01*
X435162Y277811D01*
X435152Y277844D01*
X435141Y277866D01*
X435200Y277999D01*
X435208Y278033D01*
X435222Y278065D01*
X435262Y278252D01*
X435307Y278437D01*
X435309Y278471D01*
X435316Y278505D01*
X435335Y278817D01*
X435335Y287398D01*
X436087Y287398D01*
X437570Y287163D01*
X438999Y286699D01*
X440337Y286017D01*
X441552Y285134D01*
X441942Y284743D01*
X442042Y284660D01*
X442135Y284569D01*
X442215Y284515D01*
X442288Y284454D01*
X442401Y284390D01*
X442508Y284317D01*
X442596Y284278D01*
X442679Y284231D01*
X442801Y284187D01*
X442920Y284135D01*
X443013Y284112D01*
X443103Y284080D01*
X443231Y284059D01*
X443358Y284028D01*
X443453Y284022D01*
X443547Y284007D01*
X443677Y284008D01*
X443807Y284000D01*
X443902Y284011D01*
X443997Y284013D01*
X444125Y284037D01*
X444254Y284052D01*
X444346Y284080D01*
X444440Y284098D01*
X444561Y284145D01*
X444685Y284183D01*
X444770Y284226D01*
X444860Y284260D01*
X444971Y284328D01*
X445087Y284387D01*
X445163Y284445D01*
X445244Y284494D01*
X445342Y284580D01*
X445445Y284659D01*
X445510Y284729D01*
X445582Y284793D01*
X445662Y284895D01*
X445751Y284990D01*
X445802Y285071D01*
X445861Y285146D01*
X445922Y285260D01*
X445992Y285370D01*
X446029Y285458D01*
X446074Y285543D01*
X446114Y285666D01*
X446163Y285787D01*
X446183Y285880D01*
X446213Y285971D01*
X446231Y286100D01*
X446258Y286227D01*
X446266Y286357D01*
X446274Y286417D01*
X446273Y286461D01*
X446277Y286539D01*
X446277Y403592D01*
X446275Y403615D01*
X446277Y403638D01*
X446255Y403839D01*
X446237Y404040D01*
X446231Y404062D01*
X446229Y404085D01*
X446172Y404280D01*
X446119Y404474D01*
X446109Y404495D01*
X446102Y404518D01*
X446012Y404699D01*
X445925Y404881D01*
X445912Y404900D01*
X445902Y404921D01*
X445781Y405083D01*
X445663Y405247D01*
X445647Y405263D01*
X445633Y405282D01*
X445485Y405420D01*
X445341Y405561D01*
X445321Y405574D01*
X445305Y405590D01*
X445135Y405700D01*
X444968Y405813D01*
X444946Y405823D01*
X444927Y405835D01*
X444741Y405913D01*
X444556Y405996D01*
X444533Y406001D01*
X444512Y406010D01*
X444315Y406054D01*
X444118Y406102D01*
X444095Y406104D01*
X444073Y406109D01*
X443871Y406117D01*
X443669Y406130D01*
X443646Y406127D01*
X443623Y406128D01*
X443423Y406101D01*
X443222Y406078D01*
X443199Y406071D01*
X443177Y406068D01*
X442985Y406006D01*
X442791Y405948D01*
X442770Y405937D01*
X442748Y405930D01*
X442468Y405791D01*
X441976Y405507D01*
X435355Y403732D01*
X428499Y403732D01*
X421878Y405507D01*
X415941Y408934D01*
X411093Y413782D01*
X407666Y419719D01*
X405891Y426340D01*
X405891Y433196D01*
X407666Y439817D01*
X409196Y442468D01*
X409206Y442489D01*
X409219Y442508D01*
X409301Y442694D01*
X409386Y442877D01*
X409392Y442899D01*
X409401Y442920D01*
X409449Y443117D01*
X409500Y443312D01*
X409502Y443335D01*
X409508Y443358D01*
X409520Y443559D01*
X409536Y443761D01*
X409534Y443784D01*
X409535Y443807D01*
X409512Y444008D01*
X409492Y444209D01*
X409486Y444231D01*
X409483Y444254D01*
X409424Y444449D01*
X409370Y444642D01*
X409360Y444663D01*
X409353Y444685D01*
X409261Y444866D01*
X409173Y445047D01*
X409159Y445066D01*
X409149Y445087D01*
X409027Y445247D01*
X408907Y445411D01*
X408891Y445427D01*
X408877Y445445D01*
X408728Y445582D01*
X408582Y445722D01*
X408562Y445735D01*
X408546Y445751D01*
X408375Y445859D01*
X408206Y445971D01*
X408185Y445980D01*
X408166Y445992D01*
X407978Y446069D01*
X407793Y446149D01*
X407771Y446155D01*
X407749Y446163D01*
X407551Y446206D01*
X407355Y446252D01*
X407332Y446253D01*
X407309Y446258D01*
X406997Y446277D01*
X52977Y446277D01*
X52954Y446275D01*
X52931Y446277D01*
X52730Y446255D01*
X52529Y446237D01*
X52506Y446231D01*
X52483Y446229D01*
X52289Y446172D01*
X52094Y446119D01*
X52074Y446109D01*
X52051Y446102D01*
X51870Y446012D01*
X51688Y445925D01*
X51669Y445912D01*
X51648Y445902D01*
X51486Y445781D01*
X51322Y445663D01*
X51305Y445647D01*
X51287Y445633D01*
X51149Y445486D01*
X51008Y445341D01*
X50995Y445321D01*
X50979Y445305D01*
X50869Y445136D01*
X50756Y444968D01*
X50746Y444946D01*
X50734Y444927D01*
X50655Y444741D01*
X50573Y444556D01*
X50568Y444533D01*
X50559Y444512D01*
X50514Y444315D01*
X50467Y444118D01*
X50465Y444095D01*
X50460Y444073D01*
X50451Y443871D01*
X50439Y443669D01*
X50442Y443646D01*
X50441Y443623D01*
X50468Y443423D01*
X50491Y443222D01*
X50498Y443200D01*
X50501Y443177D01*
X50563Y442985D01*
X50621Y442791D01*
X50632Y442770D01*
X50639Y442748D01*
X50778Y442468D01*
X52455Y439563D01*
X54230Y432942D01*
X54230Y426086D01*
X52455Y419465D01*
X49028Y413528D01*
X44180Y408680D01*
X38243Y405253D01*
X31622Y403478D01*
X24766Y403478D01*
X18145Y405253D01*
X14732Y407223D01*
X14711Y407233D01*
X14692Y407246D01*
X14506Y407328D01*
X14323Y407413D01*
X14301Y407419D01*
X14280Y407428D01*
X14083Y407476D01*
X13888Y407527D01*
X13865Y407529D01*
X13842Y407535D01*
X13641Y407547D01*
X13439Y407563D01*
X13416Y407561D01*
X13393Y407562D01*
X13192Y407539D01*
X12991Y407519D01*
X12969Y407513D01*
X12946Y407510D01*
X12751Y407452D01*
X12558Y407397D01*
X12537Y407387D01*
X12515Y407380D01*
X12335Y407288D01*
X12153Y407200D01*
X12134Y407186D01*
X12113Y407176D01*
X11953Y407054D01*
X11789Y406934D01*
X11773Y406918D01*
X11755Y406904D01*
X11617Y406755D01*
X11478Y406609D01*
X11465Y406590D01*
X11449Y406572D01*
X11341Y406402D01*
X11229Y406233D01*
X11220Y406212D01*
X11208Y406193D01*
X11131Y406006D01*
X11051Y405820D01*
X11045Y405797D01*
X11037Y405776D01*
X10994Y405578D01*
X10948Y405382D01*
X10947Y405359D01*
X10942Y405336D01*
X10923Y405024D01*
X10923Y52603D01*
X10934Y52473D01*
X10936Y52344D01*
X10954Y52250D01*
X10963Y52155D01*
X10997Y52029D01*
X11022Y51901D01*
X11056Y51812D01*
X11081Y51720D01*
X11137Y51603D01*
X11184Y51481D01*
X11234Y51400D01*
X11275Y51314D01*
X11350Y51208D01*
X11418Y51097D01*
X11481Y51025D01*
X11537Y50947D01*
X11630Y50857D01*
X11716Y50759D01*
X11791Y50700D01*
X11859Y50633D01*
X11967Y50561D01*
X12069Y50480D01*
X12153Y50435D01*
X12232Y50381D01*
X12351Y50329D01*
X12466Y50267D01*
X12557Y50238D01*
X12644Y50199D01*
X12771Y50168D01*
X12894Y50128D01*
X12989Y50115D01*
X13082Y50092D01*
X13211Y50084D01*
X13340Y50067D01*
X13436Y50071D01*
X13531Y50065D01*
X13660Y50080D01*
X13790Y50085D01*
X13883Y50106D01*
X13978Y50117D01*
X14103Y50155D01*
X14230Y50183D01*
X14318Y50219D01*
X14409Y50247D01*
X14525Y50306D01*
X14645Y50356D01*
X14725Y50408D01*
X14811Y50452D01*
X14914Y50530D01*
X15023Y50601D01*
X15121Y50687D01*
X15169Y50724D01*
X15200Y50756D01*
X15258Y50808D01*
X16018Y51568D01*
X21955Y54995D01*
X28576Y56770D01*
X35432Y56770D01*
X42053Y54995D01*
X47990Y51568D01*
X52838Y46720D01*
X56265Y40783D01*
X58040Y34162D01*
X58040Y27306D01*
X56265Y20685D01*
X52828Y14732D01*
X52819Y14711D01*
X52806Y14692D01*
X52724Y14507D01*
X52639Y14323D01*
X52633Y14301D01*
X52624Y14280D01*
X52576Y14083D01*
X52524Y13888D01*
X52522Y13865D01*
X52517Y13842D01*
X52504Y13641D01*
X52488Y13439D01*
X52491Y13416D01*
X52489Y13393D01*
X52513Y13192D01*
X52532Y12991D01*
X52539Y12969D01*
X52541Y12946D01*
X52600Y12751D01*
X52655Y12558D01*
X52665Y12537D01*
X52672Y12515D01*
X52763Y12335D01*
X52852Y12153D01*
X52866Y12134D01*
X52876Y12113D01*
X52998Y11953D01*
X53117Y11789D01*
X53134Y11773D01*
X53148Y11755D01*
X53297Y11617D01*
X53443Y11478D01*
X53462Y11465D01*
X53479Y11449D01*
X53650Y11341D01*
X53818Y11229D01*
X53839Y11220D01*
X53859Y11208D01*
X54046Y11131D01*
X54232Y11051D01*
X54254Y11045D01*
X54275Y11037D01*
X54473Y10994D01*
X54670Y10948D01*
X54693Y10947D01*
X54716Y10942D01*
X55028Y10923D01*
X404893Y10923D01*
X404916Y10925D01*
G37*
%LPC*%
G36*
X326503Y161416D02*
X326503Y161416D01*
X322489Y163079D01*
X319416Y166152D01*
X317753Y170166D01*
X317753Y174512D01*
X319416Y178526D01*
X322489Y181599D01*
X325130Y182693D01*
X325246Y182753D01*
X325365Y182805D01*
X325445Y182857D01*
X325529Y182902D01*
X325632Y182981D01*
X325741Y183053D01*
X325810Y183119D01*
X325885Y183177D01*
X325973Y183274D01*
X326067Y183364D01*
X326123Y183441D01*
X326187Y183512D01*
X326256Y183622D01*
X326333Y183727D01*
X326375Y183813D01*
X326425Y183894D01*
X326473Y184015D01*
X326530Y184131D01*
X326556Y184223D01*
X326592Y184312D01*
X326618Y184440D01*
X326653Y184565D01*
X326663Y184660D01*
X326682Y184753D01*
X326685Y184883D01*
X326698Y185013D01*
X326690Y185108D01*
X326693Y185203D01*
X326673Y185332D01*
X326663Y185462D01*
X326638Y185554D01*
X326624Y185648D01*
X326581Y185771D01*
X326549Y185897D01*
X326508Y185984D01*
X326477Y186074D01*
X326414Y186188D01*
X326359Y186306D01*
X326305Y186384D01*
X326258Y186467D01*
X326176Y186568D01*
X326101Y186675D01*
X326033Y186742D01*
X325973Y186816D01*
X325874Y186900D01*
X325782Y186992D01*
X325703Y187046D01*
X325630Y187108D01*
X325518Y187174D01*
X325411Y187248D01*
X325294Y187305D01*
X325242Y187336D01*
X325200Y187351D01*
X325130Y187385D01*
X322489Y188479D01*
X319416Y191552D01*
X317753Y195566D01*
X317753Y199912D01*
X319416Y203926D01*
X322489Y206999D01*
X325130Y208093D01*
X325246Y208153D01*
X325365Y208205D01*
X325445Y208257D01*
X325529Y208302D01*
X325632Y208381D01*
X325741Y208453D01*
X325810Y208519D01*
X325885Y208577D01*
X325973Y208674D01*
X326067Y208764D01*
X326123Y208841D01*
X326187Y208912D01*
X326256Y209022D01*
X326333Y209127D01*
X326375Y209213D01*
X326425Y209294D01*
X326473Y209415D01*
X326530Y209531D01*
X326556Y209623D01*
X326592Y209712D01*
X326618Y209840D01*
X326653Y209965D01*
X326663Y210060D01*
X326682Y210153D01*
X326685Y210283D01*
X326698Y210413D01*
X326690Y210508D01*
X326693Y210603D01*
X326673Y210732D01*
X326663Y210862D01*
X326638Y210954D01*
X326624Y211048D01*
X326581Y211171D01*
X326549Y211297D01*
X326508Y211384D01*
X326477Y211474D01*
X326414Y211588D01*
X326359Y211706D01*
X326305Y211784D01*
X326258Y211867D01*
X326176Y211968D01*
X326101Y212075D01*
X326033Y212142D01*
X325973Y212216D01*
X325874Y212300D01*
X325782Y212392D01*
X325703Y212446D01*
X325630Y212508D01*
X325518Y212574D01*
X325411Y212648D01*
X325294Y212705D01*
X325242Y212736D01*
X325200Y212751D01*
X325130Y212785D01*
X322489Y213879D01*
X319416Y216952D01*
X317753Y220966D01*
X317753Y225312D01*
X319416Y229326D01*
X322489Y232399D01*
X325130Y233493D01*
X325246Y233553D01*
X325365Y233605D01*
X325445Y233657D01*
X325529Y233702D01*
X325632Y233781D01*
X325741Y233853D01*
X325810Y233919D01*
X325885Y233977D01*
X325973Y234074D01*
X326067Y234164D01*
X326123Y234241D01*
X326187Y234312D01*
X326256Y234422D01*
X326333Y234527D01*
X326375Y234613D01*
X326425Y234694D01*
X326473Y234815D01*
X326530Y234931D01*
X326556Y235023D01*
X326592Y235112D01*
X326618Y235240D01*
X326653Y235365D01*
X326663Y235460D01*
X326682Y235553D01*
X326685Y235683D01*
X326698Y235813D01*
X326690Y235908D01*
X326693Y236003D01*
X326673Y236132D01*
X326663Y236262D01*
X326638Y236354D01*
X326624Y236448D01*
X326581Y236571D01*
X326549Y236697D01*
X326508Y236784D01*
X326477Y236874D01*
X326414Y236988D01*
X326359Y237106D01*
X326305Y237184D01*
X326258Y237267D01*
X326176Y237368D01*
X326101Y237475D01*
X326033Y237542D01*
X325973Y237616D01*
X325874Y237700D01*
X325782Y237792D01*
X325703Y237846D01*
X325630Y237908D01*
X325518Y237974D01*
X325411Y238048D01*
X325294Y238105D01*
X325242Y238136D01*
X325200Y238151D01*
X325130Y238185D01*
X322489Y239279D01*
X319416Y242352D01*
X317753Y246366D01*
X317753Y250712D01*
X319416Y254726D01*
X322489Y257799D01*
X325130Y258893D01*
X325246Y258953D01*
X325365Y259005D01*
X325445Y259057D01*
X325529Y259102D01*
X325632Y259181D01*
X325741Y259253D01*
X325810Y259319D01*
X325885Y259377D01*
X325973Y259474D01*
X326067Y259564D01*
X326123Y259641D01*
X326187Y259712D01*
X326256Y259822D01*
X326333Y259927D01*
X326375Y260013D01*
X326425Y260094D01*
X326473Y260215D01*
X326530Y260331D01*
X326556Y260423D01*
X326592Y260512D01*
X326618Y260640D01*
X326653Y260765D01*
X326663Y260860D01*
X326682Y260953D01*
X326685Y261083D01*
X326698Y261213D01*
X326690Y261308D01*
X326693Y261403D01*
X326673Y261532D01*
X326663Y261662D01*
X326638Y261754D01*
X326624Y261848D01*
X326581Y261971D01*
X326549Y262097D01*
X326508Y262184D01*
X326477Y262274D01*
X326414Y262388D01*
X326359Y262506D01*
X326305Y262584D01*
X326258Y262667D01*
X326176Y262768D01*
X326101Y262875D01*
X326033Y262942D01*
X325973Y263016D01*
X325874Y263100D01*
X325782Y263192D01*
X325703Y263246D01*
X325630Y263308D01*
X325518Y263374D01*
X325411Y263448D01*
X325294Y263505D01*
X325242Y263536D01*
X325200Y263551D01*
X325130Y263585D01*
X322489Y264679D01*
X319416Y267752D01*
X317753Y271766D01*
X317753Y276112D01*
X319416Y280126D01*
X322489Y283199D01*
X326503Y284862D01*
X330849Y284862D01*
X334863Y283199D01*
X337936Y280126D01*
X339599Y276112D01*
X339599Y271766D01*
X337936Y267752D01*
X334863Y264679D01*
X332222Y263585D01*
X332106Y263525D01*
X331987Y263473D01*
X331907Y263421D01*
X331823Y263376D01*
X331720Y263297D01*
X331611Y263225D01*
X331542Y263159D01*
X331467Y263101D01*
X331379Y263004D01*
X331285Y262915D01*
X331229Y262837D01*
X331165Y262766D01*
X331096Y262656D01*
X331019Y262551D01*
X330977Y262465D01*
X330927Y262384D01*
X330879Y262263D01*
X330822Y262147D01*
X330796Y262055D01*
X330760Y261966D01*
X330734Y261838D01*
X330699Y261713D01*
X330689Y261618D01*
X330670Y261525D01*
X330667Y261395D01*
X330654Y261265D01*
X330662Y261170D01*
X330659Y261075D01*
X330679Y260946D01*
X330689Y260816D01*
X330714Y260724D01*
X330728Y260630D01*
X330771Y260506D01*
X330803Y260381D01*
X330844Y260294D01*
X330875Y260204D01*
X330938Y260090D01*
X330993Y259972D01*
X331047Y259894D01*
X331094Y259811D01*
X331176Y259710D01*
X331251Y259603D01*
X331319Y259536D01*
X331379Y259462D01*
X331478Y259378D01*
X331570Y259286D01*
X331649Y259232D01*
X331722Y259170D01*
X331834Y259104D01*
X331941Y259030D01*
X332058Y258973D01*
X332110Y258942D01*
X332152Y258927D01*
X332222Y258893D01*
X334863Y257799D01*
X337936Y254726D01*
X339599Y250712D01*
X339599Y246366D01*
X337936Y242352D01*
X334863Y239279D01*
X332222Y238185D01*
X332106Y238125D01*
X331987Y238073D01*
X331907Y238021D01*
X331823Y237976D01*
X331720Y237897D01*
X331611Y237825D01*
X331542Y237759D01*
X331467Y237701D01*
X331379Y237604D01*
X331285Y237515D01*
X331229Y237437D01*
X331165Y237366D01*
X331096Y237256D01*
X331019Y237151D01*
X330977Y237065D01*
X330927Y236984D01*
X330879Y236863D01*
X330822Y236747D01*
X330796Y236655D01*
X330760Y236566D01*
X330734Y236438D01*
X330699Y236313D01*
X330689Y236218D01*
X330670Y236125D01*
X330667Y235995D01*
X330654Y235865D01*
X330662Y235770D01*
X330659Y235675D01*
X330679Y235546D01*
X330689Y235416D01*
X330714Y235324D01*
X330728Y235230D01*
X330771Y235106D01*
X330803Y234981D01*
X330844Y234894D01*
X330875Y234804D01*
X330938Y234690D01*
X330993Y234572D01*
X331047Y234494D01*
X331094Y234411D01*
X331176Y234310D01*
X331251Y234203D01*
X331319Y234136D01*
X331379Y234062D01*
X331478Y233978D01*
X331570Y233886D01*
X331649Y233832D01*
X331722Y233770D01*
X331834Y233704D01*
X331941Y233630D01*
X332058Y233573D01*
X332110Y233542D01*
X332152Y233527D01*
X332222Y233493D01*
X334863Y232399D01*
X337936Y229326D01*
X339599Y225312D01*
X339599Y220966D01*
X337936Y216952D01*
X334863Y213879D01*
X332222Y212785D01*
X332106Y212725D01*
X331987Y212673D01*
X331907Y212621D01*
X331823Y212576D01*
X331720Y212497D01*
X331611Y212425D01*
X331542Y212359D01*
X331467Y212301D01*
X331379Y212204D01*
X331285Y212115D01*
X331229Y212037D01*
X331165Y211966D01*
X331096Y211856D01*
X331019Y211751D01*
X330977Y211665D01*
X330927Y211584D01*
X330879Y211463D01*
X330822Y211347D01*
X330796Y211255D01*
X330760Y211166D01*
X330734Y211038D01*
X330699Y210913D01*
X330689Y210818D01*
X330670Y210725D01*
X330667Y210595D01*
X330654Y210465D01*
X330662Y210370D01*
X330659Y210275D01*
X330679Y210146D01*
X330689Y210016D01*
X330714Y209924D01*
X330728Y209830D01*
X330771Y209706D01*
X330803Y209581D01*
X330844Y209494D01*
X330875Y209404D01*
X330938Y209290D01*
X330993Y209172D01*
X331047Y209094D01*
X331094Y209011D01*
X331176Y208910D01*
X331251Y208803D01*
X331319Y208736D01*
X331379Y208662D01*
X331478Y208578D01*
X331570Y208486D01*
X331649Y208432D01*
X331722Y208370D01*
X331834Y208304D01*
X331941Y208230D01*
X332058Y208173D01*
X332110Y208142D01*
X332152Y208127D01*
X332222Y208093D01*
X334863Y206999D01*
X337936Y203926D01*
X339599Y199912D01*
X339599Y195566D01*
X337936Y191552D01*
X334863Y188479D01*
X332222Y187385D01*
X332106Y187325D01*
X331987Y187273D01*
X331907Y187221D01*
X331823Y187176D01*
X331720Y187097D01*
X331611Y187025D01*
X331542Y186959D01*
X331467Y186901D01*
X331379Y186804D01*
X331285Y186715D01*
X331229Y186637D01*
X331165Y186566D01*
X331096Y186456D01*
X331019Y186351D01*
X330977Y186265D01*
X330927Y186184D01*
X330879Y186063D01*
X330822Y185947D01*
X330796Y185855D01*
X330760Y185766D01*
X330734Y185638D01*
X330699Y185513D01*
X330689Y185418D01*
X330670Y185325D01*
X330667Y185195D01*
X330654Y185065D01*
X330662Y184970D01*
X330659Y184875D01*
X330679Y184746D01*
X330689Y184616D01*
X330714Y184524D01*
X330728Y184430D01*
X330771Y184306D01*
X330803Y184181D01*
X330844Y184094D01*
X330875Y184004D01*
X330938Y183890D01*
X330993Y183772D01*
X331047Y183694D01*
X331094Y183611D01*
X331176Y183510D01*
X331251Y183403D01*
X331319Y183336D01*
X331379Y183262D01*
X331478Y183178D01*
X331570Y183086D01*
X331649Y183032D01*
X331722Y182970D01*
X331834Y182904D01*
X331941Y182830D01*
X332058Y182773D01*
X332110Y182742D01*
X332152Y182727D01*
X332222Y182693D01*
X334863Y181599D01*
X337936Y178526D01*
X339599Y174512D01*
X339599Y170166D01*
X337936Y166152D01*
X334863Y163079D01*
X330849Y161416D01*
X326503Y161416D01*
G37*
%LPD*%
%LPC*%
G36*
X300736Y225678D02*
X300736Y225678D01*
X289051Y225678D01*
X289091Y225935D01*
X289672Y227722D01*
X290525Y229396D01*
X291630Y230917D01*
X292958Y232245D01*
X294479Y233350D01*
X296021Y234136D01*
X296047Y234152D01*
X296075Y234164D01*
X296238Y234272D01*
X296403Y234375D01*
X296425Y234395D01*
X296450Y234412D01*
X296592Y234547D01*
X296736Y234678D01*
X296754Y234702D01*
X296776Y234723D01*
X296891Y234880D01*
X297010Y235035D01*
X297024Y235062D01*
X297042Y235086D01*
X297128Y235261D01*
X297218Y235434D01*
X297227Y235463D01*
X297240Y235491D01*
X297293Y235678D01*
X297351Y235865D01*
X297355Y235895D01*
X297363Y235924D01*
X297382Y236118D01*
X297406Y236311D01*
X297404Y236342D01*
X297408Y236372D01*
X297392Y236566D01*
X297382Y236761D01*
X297375Y236791D01*
X297372Y236821D01*
X297323Y237009D01*
X297278Y237199D01*
X297266Y237227D01*
X297258Y237256D01*
X297177Y237432D01*
X297099Y237612D01*
X297082Y237637D01*
X297069Y237665D01*
X296957Y237825D01*
X296849Y237987D01*
X296828Y238009D01*
X296811Y238034D01*
X296673Y238171D01*
X296537Y238312D01*
X296513Y238330D01*
X296491Y238351D01*
X296332Y238462D01*
X296173Y238577D01*
X296146Y238590D01*
X296121Y238607D01*
X295840Y238744D01*
X294549Y239279D01*
X291476Y242352D01*
X289813Y246366D01*
X289813Y250712D01*
X291476Y254726D01*
X294549Y257799D01*
X297190Y258893D01*
X297306Y258953D01*
X297425Y259005D01*
X297505Y259057D01*
X297589Y259102D01*
X297692Y259181D01*
X297801Y259253D01*
X297870Y259319D01*
X297945Y259377D01*
X298033Y259474D01*
X298127Y259564D01*
X298183Y259641D01*
X298247Y259712D01*
X298316Y259822D01*
X298393Y259927D01*
X298435Y260013D01*
X298485Y260094D01*
X298533Y260215D01*
X298590Y260331D01*
X298616Y260423D01*
X298652Y260512D01*
X298678Y260640D01*
X298713Y260765D01*
X298723Y260860D01*
X298742Y260953D01*
X298745Y261083D01*
X298758Y261213D01*
X298750Y261308D01*
X298753Y261403D01*
X298733Y261532D01*
X298723Y261662D01*
X298698Y261754D01*
X298684Y261848D01*
X298641Y261971D01*
X298609Y262097D01*
X298568Y262184D01*
X298537Y262274D01*
X298474Y262388D01*
X298419Y262506D01*
X298365Y262584D01*
X298318Y262667D01*
X298236Y262768D01*
X298161Y262875D01*
X298093Y262942D01*
X298033Y263016D01*
X297934Y263100D01*
X297842Y263192D01*
X297763Y263246D01*
X297690Y263308D01*
X297578Y263374D01*
X297471Y263448D01*
X297354Y263505D01*
X297302Y263536D01*
X297260Y263551D01*
X297190Y263585D01*
X294549Y264679D01*
X291476Y267752D01*
X289813Y271766D01*
X289813Y276112D01*
X291476Y280126D01*
X294549Y283199D01*
X298563Y284862D01*
X302909Y284862D01*
X306923Y283199D01*
X309996Y280126D01*
X311659Y276112D01*
X311659Y271766D01*
X309996Y267752D01*
X306923Y264679D01*
X304282Y263585D01*
X304166Y263525D01*
X304047Y263473D01*
X303967Y263421D01*
X303883Y263376D01*
X303780Y263297D01*
X303671Y263225D01*
X303602Y263159D01*
X303527Y263101D01*
X303439Y263004D01*
X303345Y262915D01*
X303289Y262837D01*
X303225Y262766D01*
X303156Y262656D01*
X303079Y262551D01*
X303037Y262465D01*
X302987Y262384D01*
X302939Y262263D01*
X302882Y262147D01*
X302856Y262055D01*
X302820Y261966D01*
X302794Y261838D01*
X302759Y261713D01*
X302749Y261618D01*
X302730Y261525D01*
X302727Y261395D01*
X302714Y261265D01*
X302722Y261170D01*
X302719Y261075D01*
X302739Y260946D01*
X302749Y260816D01*
X302774Y260724D01*
X302788Y260630D01*
X302831Y260506D01*
X302863Y260381D01*
X302904Y260294D01*
X302935Y260204D01*
X302998Y260090D01*
X303053Y259972D01*
X303107Y259894D01*
X303154Y259811D01*
X303236Y259710D01*
X303311Y259603D01*
X303379Y259536D01*
X303439Y259462D01*
X303538Y259378D01*
X303630Y259286D01*
X303709Y259232D01*
X303782Y259170D01*
X303894Y259104D01*
X304001Y259030D01*
X304118Y258973D01*
X304170Y258942D01*
X304212Y258927D01*
X304282Y258893D01*
X306923Y257799D01*
X309996Y254726D01*
X311659Y250712D01*
X311659Y246366D01*
X309996Y242352D01*
X306923Y239279D01*
X305632Y238744D01*
X305605Y238730D01*
X305576Y238720D01*
X305405Y238626D01*
X305233Y238536D01*
X305209Y238517D01*
X305182Y238502D01*
X305031Y238379D01*
X304877Y238260D01*
X304856Y238237D01*
X304833Y238218D01*
X304706Y238071D01*
X304575Y237926D01*
X304559Y237900D01*
X304539Y237877D01*
X304440Y237709D01*
X304337Y237543D01*
X304326Y237515D01*
X304311Y237489D01*
X304243Y237306D01*
X304171Y237125D01*
X304165Y237095D01*
X304154Y237067D01*
X304120Y236876D01*
X304080Y236684D01*
X304080Y236654D01*
X304074Y236624D01*
X304074Y236428D01*
X304070Y236234D01*
X304074Y236204D01*
X304074Y236173D01*
X304109Y235981D01*
X304139Y235789D01*
X304148Y235760D01*
X304154Y235730D01*
X304222Y235547D01*
X304285Y235363D01*
X304300Y235337D01*
X304310Y235308D01*
X304409Y235140D01*
X304504Y234970D01*
X304524Y234946D01*
X304539Y234920D01*
X304666Y234772D01*
X304790Y234622D01*
X304813Y234602D01*
X304832Y234579D01*
X304984Y234455D01*
X305132Y234329D01*
X305158Y234314D01*
X305182Y234295D01*
X305451Y234136D01*
X306993Y233350D01*
X308514Y232245D01*
X309842Y230917D01*
X310947Y229396D01*
X311800Y227722D01*
X312381Y225935D01*
X312421Y225678D01*
X300736Y225678D01*
X300736Y225678D01*
G37*
%LPD*%
%LPC*%
G36*
X298563Y161416D02*
X298563Y161416D01*
X294549Y163079D01*
X291476Y166152D01*
X289813Y170166D01*
X289813Y174512D01*
X291476Y178526D01*
X294549Y181599D01*
X297190Y182693D01*
X297306Y182753D01*
X297425Y182805D01*
X297505Y182857D01*
X297589Y182902D01*
X297692Y182981D01*
X297801Y183053D01*
X297870Y183119D01*
X297945Y183177D01*
X298033Y183274D01*
X298127Y183364D01*
X298183Y183441D01*
X298247Y183512D01*
X298316Y183622D01*
X298393Y183727D01*
X298435Y183813D01*
X298485Y183894D01*
X298533Y184015D01*
X298590Y184131D01*
X298616Y184223D01*
X298652Y184312D01*
X298678Y184440D01*
X298713Y184565D01*
X298723Y184660D01*
X298742Y184753D01*
X298745Y184883D01*
X298758Y185013D01*
X298750Y185108D01*
X298753Y185203D01*
X298733Y185332D01*
X298723Y185462D01*
X298698Y185554D01*
X298684Y185648D01*
X298641Y185771D01*
X298609Y185897D01*
X298568Y185984D01*
X298537Y186074D01*
X298474Y186188D01*
X298419Y186306D01*
X298365Y186384D01*
X298318Y186467D01*
X298236Y186568D01*
X298161Y186675D01*
X298093Y186742D01*
X298033Y186816D01*
X297934Y186900D01*
X297842Y186992D01*
X297763Y187046D01*
X297690Y187108D01*
X297578Y187174D01*
X297471Y187248D01*
X297354Y187305D01*
X297302Y187336D01*
X297260Y187351D01*
X297190Y187385D01*
X294549Y188479D01*
X291476Y191552D01*
X289813Y195566D01*
X289813Y199912D01*
X291476Y203926D01*
X294549Y206999D01*
X295840Y207534D01*
X295867Y207548D01*
X295896Y207558D01*
X296067Y207652D01*
X296239Y207742D01*
X296263Y207761D01*
X296290Y207776D01*
X296441Y207899D01*
X296595Y208018D01*
X296616Y208041D01*
X296639Y208060D01*
X296766Y208207D01*
X296897Y208352D01*
X296913Y208378D01*
X296933Y208401D01*
X297032Y208569D01*
X297135Y208735D01*
X297146Y208763D01*
X297161Y208789D01*
X297229Y208971D01*
X297301Y209153D01*
X297307Y209183D01*
X297318Y209211D01*
X297352Y209402D01*
X297392Y209594D01*
X297392Y209624D01*
X297398Y209654D01*
X297398Y209850D01*
X297402Y210044D01*
X297398Y210074D01*
X297398Y210105D01*
X297363Y210297D01*
X297333Y210489D01*
X297324Y210518D01*
X297318Y210548D01*
X297250Y210730D01*
X297187Y210915D01*
X297172Y210941D01*
X297162Y210970D01*
X297063Y211138D01*
X296968Y211308D01*
X296948Y211332D01*
X296933Y211358D01*
X296806Y211506D01*
X296682Y211656D01*
X296659Y211676D01*
X296640Y211699D01*
X296488Y211823D01*
X296340Y211949D01*
X296314Y211964D01*
X296290Y211983D01*
X296021Y212142D01*
X294479Y212928D01*
X292958Y214033D01*
X291630Y215361D01*
X290525Y216882D01*
X289672Y218556D01*
X289091Y220343D01*
X289051Y220600D01*
X300736Y220600D01*
X312421Y220600D01*
X312381Y220343D01*
X311800Y218556D01*
X310947Y216882D01*
X309842Y215361D01*
X308514Y214033D01*
X306993Y212928D01*
X305451Y212142D01*
X305425Y212126D01*
X305397Y212114D01*
X305234Y212006D01*
X305069Y211903D01*
X305047Y211883D01*
X305022Y211866D01*
X304880Y211731D01*
X304736Y211600D01*
X304718Y211576D01*
X304696Y211555D01*
X304581Y211398D01*
X304462Y211243D01*
X304448Y211216D01*
X304430Y211192D01*
X304344Y211017D01*
X304254Y210844D01*
X304245Y210815D01*
X304232Y210787D01*
X304179Y210600D01*
X304121Y210413D01*
X304117Y210383D01*
X304109Y210354D01*
X304090Y210160D01*
X304066Y209967D01*
X304068Y209936D01*
X304064Y209906D01*
X304080Y209711D01*
X304090Y209517D01*
X304097Y209487D01*
X304100Y209457D01*
X304149Y209269D01*
X304194Y209079D01*
X304206Y209051D01*
X304214Y209022D01*
X304295Y208845D01*
X304373Y208666D01*
X304390Y208641D01*
X304403Y208613D01*
X304515Y208453D01*
X304623Y208291D01*
X304644Y208269D01*
X304661Y208244D01*
X304799Y208107D01*
X304935Y207966D01*
X304959Y207948D01*
X304981Y207927D01*
X305140Y207816D01*
X305299Y207701D01*
X305326Y207688D01*
X305351Y207671D01*
X305632Y207534D01*
X306923Y206999D01*
X309996Y203926D01*
X311659Y199912D01*
X311659Y195566D01*
X309996Y191552D01*
X306923Y188479D01*
X304282Y187385D01*
X304166Y187325D01*
X304047Y187273D01*
X303967Y187221D01*
X303883Y187176D01*
X303780Y187097D01*
X303671Y187025D01*
X303602Y186959D01*
X303527Y186901D01*
X303439Y186804D01*
X303345Y186715D01*
X303289Y186637D01*
X303225Y186566D01*
X303156Y186456D01*
X303079Y186351D01*
X303037Y186265D01*
X302987Y186184D01*
X302939Y186063D01*
X302882Y185947D01*
X302856Y185855D01*
X302820Y185766D01*
X302794Y185638D01*
X302759Y185513D01*
X302749Y185418D01*
X302730Y185325D01*
X302727Y185195D01*
X302714Y185065D01*
X302722Y184970D01*
X302719Y184875D01*
X302739Y184746D01*
X302749Y184616D01*
X302774Y184524D01*
X302788Y184430D01*
X302831Y184306D01*
X302863Y184181D01*
X302904Y184094D01*
X302935Y184004D01*
X302998Y183890D01*
X303053Y183772D01*
X303107Y183694D01*
X303154Y183611D01*
X303236Y183510D01*
X303311Y183403D01*
X303379Y183336D01*
X303439Y183262D01*
X303538Y183178D01*
X303630Y183086D01*
X303709Y183032D01*
X303782Y182970D01*
X303894Y182904D01*
X304001Y182830D01*
X304118Y182773D01*
X304170Y182742D01*
X304212Y182727D01*
X304282Y182693D01*
X306923Y181599D01*
X309996Y178526D01*
X311659Y174512D01*
X311659Y170166D01*
X309996Y166152D01*
X306923Y163079D01*
X302909Y161416D01*
X298563Y161416D01*
G37*
%LPD*%
%LPC*%
G36*
X298436Y336295D02*
X298436Y336295D01*
X294422Y337958D01*
X291349Y341031D01*
X289686Y345045D01*
X289686Y349391D01*
X291349Y353405D01*
X294422Y356478D01*
X298436Y358141D01*
X302782Y358141D01*
X306796Y356478D01*
X309869Y353405D01*
X310963Y350764D01*
X311023Y350648D01*
X311075Y350529D01*
X311127Y350449D01*
X311172Y350365D01*
X311251Y350262D01*
X311323Y350153D01*
X311389Y350084D01*
X311447Y350009D01*
X311544Y349921D01*
X311633Y349827D01*
X311711Y349771D01*
X311782Y349707D01*
X311892Y349638D01*
X311997Y349561D01*
X312083Y349519D01*
X312164Y349469D01*
X312285Y349421D01*
X312401Y349364D01*
X312493Y349338D01*
X312582Y349302D01*
X312710Y349276D01*
X312835Y349241D01*
X312930Y349231D01*
X313023Y349212D01*
X313153Y349209D01*
X313283Y349196D01*
X313378Y349204D01*
X313473Y349201D01*
X313602Y349221D01*
X313732Y349231D01*
X313824Y349256D01*
X313918Y349270D01*
X314042Y349313D01*
X314167Y349345D01*
X314254Y349386D01*
X314344Y349417D01*
X314458Y349480D01*
X314576Y349535D01*
X314654Y349589D01*
X314737Y349636D01*
X314838Y349718D01*
X314945Y349793D01*
X315012Y349861D01*
X315086Y349921D01*
X315170Y350020D01*
X315262Y350112D01*
X315316Y350191D01*
X315378Y350264D01*
X315444Y350376D01*
X315518Y350483D01*
X315575Y350600D01*
X315606Y350652D01*
X315621Y350694D01*
X315655Y350764D01*
X316749Y353405D01*
X319822Y356478D01*
X323836Y358141D01*
X328182Y358141D01*
X332196Y356478D01*
X335269Y353405D01*
X336932Y349391D01*
X336932Y345045D01*
X335269Y341031D01*
X332196Y337958D01*
X328182Y336295D01*
X323836Y336295D01*
X319822Y337958D01*
X316749Y341031D01*
X315655Y343672D01*
X315595Y343788D01*
X315543Y343907D01*
X315491Y343987D01*
X315446Y344071D01*
X315367Y344174D01*
X315295Y344283D01*
X315229Y344352D01*
X315171Y344427D01*
X315074Y344515D01*
X314984Y344609D01*
X314907Y344665D01*
X314836Y344729D01*
X314726Y344798D01*
X314621Y344875D01*
X314535Y344917D01*
X314454Y344967D01*
X314333Y345015D01*
X314217Y345072D01*
X314125Y345098D01*
X314036Y345134D01*
X313908Y345160D01*
X313783Y345195D01*
X313688Y345205D01*
X313595Y345224D01*
X313465Y345227D01*
X313335Y345240D01*
X313240Y345232D01*
X313145Y345235D01*
X313016Y345215D01*
X312886Y345205D01*
X312794Y345180D01*
X312700Y345166D01*
X312577Y345123D01*
X312451Y345091D01*
X312364Y345050D01*
X312274Y345019D01*
X312160Y344956D01*
X312042Y344901D01*
X311964Y344847D01*
X311881Y344800D01*
X311780Y344718D01*
X311673Y344643D01*
X311606Y344575D01*
X311532Y344515D01*
X311448Y344416D01*
X311356Y344324D01*
X311302Y344245D01*
X311240Y344172D01*
X311174Y344060D01*
X311100Y343953D01*
X311043Y343836D01*
X311012Y343784D01*
X310997Y343742D01*
X310963Y343672D01*
X309869Y341031D01*
X306796Y337958D01*
X302782Y336295D01*
X298436Y336295D01*
G37*
%LPD*%
%LPC*%
G36*
X29467Y161924D02*
X29467Y161924D01*
X28574Y162817D01*
X28574Y188211D01*
X29467Y189104D01*
X54861Y189104D01*
X55754Y188211D01*
X55754Y162817D01*
X54861Y161924D01*
X29467Y161924D01*
G37*
%LPD*%
%LPC*%
G36*
X39461Y261924D02*
X39461Y261924D01*
X34466Y263993D01*
X30643Y267816D01*
X28574Y272811D01*
X28574Y278217D01*
X30643Y283212D01*
X34466Y287035D01*
X39461Y289104D01*
X44867Y289104D01*
X49862Y287035D01*
X53685Y283212D01*
X55754Y278217D01*
X55754Y272811D01*
X53685Y267816D01*
X49862Y263993D01*
X44867Y261924D01*
X39461Y261924D01*
G37*
%LPD*%
%LPC*%
G36*
X402335Y112775D02*
X402335Y112775D01*
X402335Y116921D01*
X402508Y117567D01*
X402843Y118146D01*
X403316Y118619D01*
X403895Y118954D01*
X404541Y119127D01*
X421387Y119127D01*
X421387Y112775D01*
X402335Y112775D01*
G37*
%LPD*%
%LPC*%
G36*
X402335Y163575D02*
X402335Y163575D01*
X402335Y167721D01*
X402508Y168367D01*
X402843Y168946D01*
X403316Y169419D01*
X403895Y169754D01*
X404541Y169927D01*
X421387Y169927D01*
X421387Y163575D01*
X402335Y163575D01*
G37*
%LPD*%
%LPC*%
G36*
X404541Y98805D02*
X404541Y98805D01*
X403895Y98978D01*
X403316Y99313D01*
X402843Y99786D01*
X402508Y100365D01*
X402335Y101011D01*
X402335Y105157D01*
X421387Y105157D01*
X421387Y98805D01*
X404541Y98805D01*
G37*
%LPD*%
%LPC*%
G36*
X404541Y149605D02*
X404541Y149605D01*
X403895Y149778D01*
X403316Y150113D01*
X402843Y150586D01*
X402508Y151165D01*
X402335Y151811D01*
X402335Y155957D01*
X421387Y155957D01*
X421387Y149605D01*
X404541Y149605D01*
G37*
%LPD*%
%LPC*%
G36*
X45413Y228763D02*
X45413Y228763D01*
X45413Y239764D01*
X46869Y239374D01*
X48638Y238642D01*
X50296Y237684D01*
X51815Y236519D01*
X53169Y235165D01*
X54334Y233646D01*
X55292Y231988D01*
X56024Y230219D01*
X56414Y228763D01*
X45413Y228763D01*
G37*
%LPD*%
%LPC*%
G36*
X45413Y222265D02*
X45413Y222265D01*
X56414Y222265D01*
X56024Y220809D01*
X55292Y219040D01*
X54334Y217382D01*
X53169Y215863D01*
X51815Y214509D01*
X50296Y213344D01*
X48638Y212386D01*
X46869Y211654D01*
X45413Y211264D01*
X45413Y222265D01*
G37*
%LPD*%
%LPC*%
G36*
X27914Y228763D02*
X27914Y228763D01*
X28304Y230219D01*
X29036Y231988D01*
X29994Y233646D01*
X31159Y235165D01*
X32513Y236519D01*
X34032Y237684D01*
X35690Y238642D01*
X37459Y239374D01*
X38915Y239764D01*
X38915Y228763D01*
X27914Y228763D01*
G37*
%LPD*%
%LPC*%
G36*
X37459Y211654D02*
X37459Y211654D01*
X35690Y212386D01*
X34032Y213344D01*
X32513Y214509D01*
X31159Y215863D01*
X29994Y217382D01*
X29036Y219040D01*
X28304Y220809D01*
X27914Y222265D01*
X38915Y222265D01*
X38915Y211264D01*
X37459Y211654D01*
G37*
%LPD*%
%LPC*%
G36*
X113029Y377189D02*
X113029Y377189D01*
X113029Y386335D01*
X113286Y386295D01*
X115073Y385714D01*
X116747Y384861D01*
X118268Y383756D01*
X119596Y382428D01*
X120701Y380907D01*
X121554Y379233D01*
X122135Y377446D01*
X122175Y377189D01*
X113029Y377189D01*
G37*
%LPD*%
%LPC*%
G36*
X240029Y377189D02*
X240029Y377189D01*
X240029Y386335D01*
X240286Y386295D01*
X242073Y385714D01*
X243747Y384861D01*
X245268Y383756D01*
X246596Y382428D01*
X247701Y380907D01*
X248554Y379233D01*
X249135Y377446D01*
X249175Y377189D01*
X240029Y377189D01*
G37*
%LPD*%
%LPC*%
G36*
X113029Y92709D02*
X113029Y92709D01*
X113029Y101855D01*
X113286Y101815D01*
X115073Y101234D01*
X116747Y100381D01*
X118268Y99276D01*
X119596Y97948D01*
X120701Y96427D01*
X121554Y94753D01*
X122135Y92966D01*
X122175Y92709D01*
X113029Y92709D01*
G37*
%LPD*%
%LPC*%
G36*
X240029Y92709D02*
X240029Y92709D01*
X240029Y101855D01*
X240286Y101815D01*
X242073Y101234D01*
X243747Y100381D01*
X245268Y99276D01*
X246596Y97948D01*
X247701Y96427D01*
X248554Y94753D01*
X249135Y92966D01*
X249175Y92709D01*
X240029Y92709D01*
G37*
%LPD*%
%LPC*%
G36*
X113029Y372111D02*
X113029Y372111D01*
X122175Y372111D01*
X122135Y371854D01*
X121554Y370067D01*
X120701Y368393D01*
X119596Y366872D01*
X118268Y365544D01*
X116747Y364439D01*
X115073Y363586D01*
X113286Y363005D01*
X113029Y362965D01*
X113029Y372111D01*
G37*
%LPD*%
%LPC*%
G36*
X240029Y372111D02*
X240029Y372111D01*
X249175Y372111D01*
X249135Y371854D01*
X248554Y370067D01*
X247701Y368393D01*
X246596Y366872D01*
X245268Y365544D01*
X243747Y364439D01*
X242073Y363586D01*
X240286Y363005D01*
X240029Y362965D01*
X240029Y372111D01*
G37*
%LPD*%
%LPC*%
G36*
X98805Y92709D02*
X98805Y92709D01*
X98845Y92966D01*
X99426Y94753D01*
X100279Y96427D01*
X101384Y97948D01*
X102712Y99276D01*
X104233Y100381D01*
X105907Y101234D01*
X107694Y101815D01*
X107951Y101855D01*
X107951Y92709D01*
X98805Y92709D01*
G37*
%LPD*%
%LPC*%
G36*
X98805Y377189D02*
X98805Y377189D01*
X98845Y377446D01*
X99426Y379233D01*
X100279Y380907D01*
X101384Y382428D01*
X102712Y383756D01*
X104233Y384861D01*
X105907Y385714D01*
X107694Y386295D01*
X107951Y386335D01*
X107951Y377189D01*
X98805Y377189D01*
G37*
%LPD*%
%LPC*%
G36*
X225805Y377189D02*
X225805Y377189D01*
X225845Y377446D01*
X226426Y379233D01*
X227279Y380907D01*
X228384Y382428D01*
X229712Y383756D01*
X231233Y384861D01*
X232907Y385714D01*
X234694Y386295D01*
X234951Y386335D01*
X234951Y377189D01*
X225805Y377189D01*
G37*
%LPD*%
%LPC*%
G36*
X225805Y92709D02*
X225805Y92709D01*
X225845Y92966D01*
X226426Y94753D01*
X227279Y96427D01*
X228384Y97948D01*
X229712Y99276D01*
X231233Y100381D01*
X232907Y101234D01*
X234694Y101815D01*
X234951Y101855D01*
X234951Y92709D01*
X225805Y92709D01*
G37*
%LPD*%
%LPC*%
G36*
X240029Y87631D02*
X240029Y87631D01*
X249175Y87631D01*
X249135Y87374D01*
X248554Y85587D01*
X247701Y83913D01*
X246596Y82392D01*
X245268Y81064D01*
X243747Y79959D01*
X242073Y79106D01*
X240286Y78525D01*
X240029Y78485D01*
X240029Y87631D01*
G37*
%LPD*%
%LPC*%
G36*
X113029Y87631D02*
X113029Y87631D01*
X122175Y87631D01*
X122135Y87374D01*
X121554Y85587D01*
X120701Y83913D01*
X119596Y82392D01*
X118268Y81064D01*
X116747Y79959D01*
X115073Y79106D01*
X113286Y78525D01*
X113029Y78485D01*
X113029Y87631D01*
G37*
%LPD*%
%LPC*%
G36*
X107694Y363005D02*
X107694Y363005D01*
X105907Y363586D01*
X104233Y364439D01*
X102712Y365544D01*
X101384Y366872D01*
X100279Y368393D01*
X99426Y370067D01*
X98845Y371854D01*
X98805Y372111D01*
X107951Y372111D01*
X107951Y362965D01*
X107694Y363005D01*
G37*
%LPD*%
%LPC*%
G36*
X234694Y363005D02*
X234694Y363005D01*
X232907Y363586D01*
X231233Y364439D01*
X229712Y365544D01*
X228384Y366872D01*
X227279Y368393D01*
X226426Y370067D01*
X225845Y371854D01*
X225805Y372111D01*
X234951Y372111D01*
X234951Y362965D01*
X234694Y363005D01*
G37*
%LPD*%
%LPC*%
G36*
X234694Y78525D02*
X234694Y78525D01*
X232907Y79106D01*
X231233Y79959D01*
X229712Y81064D01*
X228384Y82392D01*
X227279Y83913D01*
X226426Y85587D01*
X225845Y87374D01*
X225805Y87631D01*
X234951Y87631D01*
X234951Y78485D01*
X234694Y78525D01*
G37*
%LPD*%
%LPC*%
G36*
X107694Y78525D02*
X107694Y78525D01*
X105907Y79106D01*
X104233Y79959D01*
X102712Y81064D01*
X101384Y82392D01*
X100279Y83913D01*
X99426Y85587D01*
X98845Y87374D01*
X98805Y87631D01*
X107951Y87631D01*
X107951Y78485D01*
X107694Y78525D01*
G37*
%LPD*%
%LPC*%
G36*
X419441Y281356D02*
X419441Y281356D01*
X419494Y281519D01*
X420176Y282857D01*
X421059Y284072D01*
X422121Y285134D01*
X423336Y286017D01*
X424674Y286699D01*
X426102Y287163D01*
X427585Y287398D01*
X428337Y287398D01*
X428337Y281356D01*
X419441Y281356D01*
G37*
%LPD*%
%LPC*%
G36*
X419441Y226756D02*
X419441Y226756D01*
X419494Y226919D01*
X420176Y228257D01*
X421059Y229472D01*
X422121Y230534D01*
X423336Y231417D01*
X424674Y232099D01*
X426102Y232563D01*
X427585Y232798D01*
X428337Y232798D01*
X428337Y226756D01*
X419441Y226756D01*
G37*
%LPD*%
%LPC*%
G36*
X427585Y213716D02*
X427585Y213716D01*
X426102Y213951D01*
X424674Y214415D01*
X423336Y215097D01*
X422121Y215980D01*
X421059Y217041D01*
X420176Y218256D01*
X419494Y219594D01*
X419441Y219758D01*
X428337Y219758D01*
X428337Y213716D01*
X427585Y213716D01*
G37*
%LPD*%
%LPC*%
G36*
X427585Y268316D02*
X427585Y268316D01*
X426102Y268551D01*
X424674Y269015D01*
X423336Y269697D01*
X422121Y270580D01*
X421059Y271641D01*
X420176Y272856D01*
X419494Y274194D01*
X419441Y274358D01*
X428337Y274358D01*
X428337Y268316D01*
X427585Y268316D01*
G37*
%LPD*%
%LPC*%
G36*
X407116Y277410D02*
X407116Y277410D01*
X407116Y282353D01*
X408277Y282122D01*
X409649Y281554D01*
X410884Y280728D01*
X411934Y279678D01*
X412760Y278443D01*
X413187Y277410D01*
X407116Y277410D01*
G37*
%LPD*%
%LPC*%
G36*
X407116Y228810D02*
X407116Y228810D01*
X407116Y233753D01*
X408277Y233522D01*
X409649Y232954D01*
X410884Y232128D01*
X411934Y231078D01*
X412760Y229843D01*
X413187Y228810D01*
X407116Y228810D01*
G37*
%LPD*%
%LPC*%
G36*
X395967Y277410D02*
X395967Y277410D01*
X396394Y278443D01*
X397220Y279678D01*
X398270Y280728D01*
X399505Y281554D01*
X400877Y282122D01*
X402038Y282353D01*
X402038Y277410D01*
X395967Y277410D01*
G37*
%LPD*%
%LPC*%
G36*
X395967Y228810D02*
X395967Y228810D01*
X396394Y229843D01*
X397220Y231078D01*
X398270Y232128D01*
X399505Y232954D01*
X400877Y233522D01*
X402038Y233753D01*
X402038Y228810D01*
X395967Y228810D01*
G37*
%LPD*%
%LPC*%
G36*
X407116Y272332D02*
X407116Y272332D01*
X413187Y272332D01*
X412760Y271299D01*
X411934Y270064D01*
X410884Y269014D01*
X409649Y268188D01*
X408277Y267620D01*
X407116Y267389D01*
X407116Y272332D01*
G37*
%LPD*%
%LPC*%
G36*
X407116Y223732D02*
X407116Y223732D01*
X413187Y223732D01*
X412760Y222699D01*
X411934Y221464D01*
X410884Y220414D01*
X409649Y219588D01*
X408277Y219020D01*
X407116Y218789D01*
X407116Y223732D01*
G37*
%LPD*%
%LPC*%
G36*
X400877Y267620D02*
X400877Y267620D01*
X399505Y268188D01*
X398270Y269014D01*
X397220Y270064D01*
X396394Y271299D01*
X395967Y272332D01*
X402038Y272332D01*
X402038Y267389D01*
X400877Y267620D01*
G37*
%LPD*%
%LPC*%
G36*
X400877Y219020D02*
X400877Y219020D01*
X399505Y219588D01*
X398270Y220414D01*
X397220Y221464D01*
X396394Y222699D01*
X395967Y223732D01*
X402038Y223732D01*
X402038Y218789D01*
X400877Y219020D01*
G37*
%LPD*%
D10*
X42164Y175514D03*
D11*
X42164Y225514D03*
X42164Y275514D03*
D12*
X300609Y347218D03*
X326009Y347218D03*
X300736Y273939D03*
X328676Y273939D03*
X300736Y248539D03*
X328676Y248539D03*
X300736Y223139D03*
X328676Y223139D03*
X300736Y197739D03*
X328676Y197739D03*
X300736Y172339D03*
X328676Y172339D03*
D13*
X428336Y277857D02*
X435336Y277857D01*
X435336Y223257D02*
X428336Y223257D01*
D14*
X406077Y226271D02*
X403077Y226271D01*
X403077Y274871D02*
X406077Y274871D01*
D15*
X425196Y108966D03*
X425196Y159766D03*
D12*
X110490Y90170D03*
X237490Y90170D03*
X110490Y374650D03*
X237490Y374650D03*
D16*
X66294Y113284D03*
X106934Y265684D03*
X164084Y273685D03*
X354330Y395605D03*
X147828Y348361D03*
X174244Y166878D03*
X379349Y89408D03*
X372745Y175895D03*
X156464Y233172D03*
X233045Y125349D03*
X383286Y274193D03*
M02*
