G04 EAGLE Gerber RS-274X export*
G75*
%MOMM*%
%FSLAX34Y34*%
%LPD*%
%INTop Copper*%
%IPPOS*%
%AMOC8*
5,1,8,0,0,1.08239X$1,22.5*%
G01*
%ADD10R,2.413000X2.413000*%
%ADD11C,2.413000*%
%ADD12C,1.879600*%
%ADD13R,1.981200X0.558800*%
%ADD14R,0.900000X0.850000*%
%ADD15R,0.850000X0.900000*%
%ADD16R,0.830000X0.630000*%
%ADD17R,1.750000X0.400000*%
%ADD18R,1.460000X2.000000*%
%ADD19R,2.500000X1.425000*%
%ADD20C,1.000000*%
%ADD21C,1.100000*%
%ADD22R,4.064000X1.524000*%
%ADD23R,4.064000X1.270000*%
%ADD24R,2.499994X2.560397*%
%ADD25R,2.560397X2.499994*%
%ADD26C,0.508000*%
%ADD27C,0.812800*%
%ADD28C,1.500000*%

G36*
X419831Y212264D02*
X419831Y212264D01*
X419893Y212262D01*
X419971Y212283D01*
X420051Y212293D01*
X420108Y212319D01*
X420168Y212334D01*
X420238Y212375D01*
X420311Y212408D01*
X420359Y212448D01*
X420413Y212480D01*
X420468Y212538D01*
X420530Y212590D01*
X420565Y212641D01*
X420607Y212687D01*
X420644Y212758D01*
X420689Y212825D01*
X420708Y212884D01*
X420737Y212940D01*
X420748Y213006D01*
X420777Y213095D01*
X420780Y213201D01*
X420792Y213271D01*
X420792Y216008D01*
X438680Y216056D01*
X438895Y216087D01*
X438946Y216092D01*
X439711Y216302D01*
X439848Y216361D01*
X439922Y216387D01*
X440621Y216762D01*
X440741Y216850D01*
X440808Y216891D01*
X441406Y217412D01*
X441504Y217525D01*
X441560Y217580D01*
X442027Y218221D01*
X442097Y218353D01*
X442139Y218419D01*
X442452Y219148D01*
X442491Y219292D01*
X442518Y219365D01*
X442660Y220146D01*
X442666Y220295D01*
X442676Y220373D01*
X442642Y221143D01*
X442642Y227121D01*
X442624Y227251D01*
X442621Y227329D01*
X442479Y228008D01*
X442408Y228204D01*
X442391Y228258D01*
X442078Y228877D01*
X441959Y229048D01*
X441929Y229096D01*
X441466Y229613D01*
X441307Y229747D01*
X441265Y229786D01*
X440684Y230166D01*
X440496Y230254D01*
X440446Y230281D01*
X439787Y230497D01*
X439582Y230534D01*
X439526Y230546D01*
X438833Y230585D01*
X438803Y230582D01*
X438779Y230586D01*
X413379Y230636D01*
X413320Y230628D01*
X413261Y230630D01*
X413180Y230609D01*
X413097Y230597D01*
X413043Y230573D01*
X412986Y230558D01*
X412914Y230515D01*
X412838Y230481D01*
X412792Y230443D01*
X412741Y230413D01*
X412684Y230352D01*
X412620Y230298D01*
X412587Y230249D01*
X412547Y230205D01*
X412509Y230131D01*
X412462Y230062D01*
X412444Y230005D01*
X412417Y229952D01*
X412406Y229885D01*
X412376Y229791D01*
X412373Y229690D01*
X412362Y229621D01*
X412362Y213321D01*
X412369Y213267D01*
X412368Y213213D01*
X412389Y213127D01*
X412402Y213040D01*
X412424Y212990D01*
X412437Y212937D01*
X412482Y212861D01*
X412518Y212780D01*
X412553Y212739D01*
X412581Y212691D01*
X412645Y212630D01*
X412702Y212563D01*
X412747Y212533D01*
X412786Y212495D01*
X412865Y212454D01*
X412938Y212406D01*
X412990Y212389D01*
X413038Y212364D01*
X413109Y212352D01*
X413209Y212320D01*
X413304Y212317D01*
X413369Y212306D01*
X419769Y212256D01*
X419831Y212264D01*
G37*
G36*
X439542Y270935D02*
X439542Y270935D01*
X439592Y270932D01*
X440115Y270992D01*
X440316Y271044D01*
X440372Y271056D01*
X440861Y271249D01*
X441043Y271352D01*
X441093Y271377D01*
X441516Y271690D01*
X441665Y271837D01*
X441707Y271875D01*
X442034Y272286D01*
X442140Y272466D01*
X442171Y272513D01*
X442380Y272996D01*
X442436Y273197D01*
X442453Y273251D01*
X442531Y273771D01*
X442532Y273840D01*
X442542Y273892D01*
X442792Y282542D01*
X442785Y282604D01*
X442789Y282652D01*
X442756Y283059D01*
X442694Y283336D01*
X442685Y283353D01*
X442682Y283368D01*
X442525Y283744D01*
X442380Y283989D01*
X442366Y284002D01*
X442358Y284015D01*
X442093Y284325D01*
X441879Y284512D01*
X441863Y284520D01*
X441851Y284531D01*
X441503Y284743D01*
X441242Y284856D01*
X441223Y284858D01*
X441209Y284864D01*
X440812Y284959D01*
X440653Y284974D01*
X440577Y284986D01*
X420742Y284986D01*
X420742Y287751D01*
X420734Y287809D01*
X420736Y287867D01*
X420714Y287949D01*
X420702Y288033D01*
X420679Y288086D01*
X420664Y288142D01*
X420621Y288215D01*
X420586Y288292D01*
X420548Y288337D01*
X420519Y288387D01*
X420457Y288445D01*
X420403Y288509D01*
X420354Y288541D01*
X420311Y288581D01*
X420236Y288620D01*
X420166Y288667D01*
X420110Y288684D01*
X420058Y288711D01*
X419990Y288722D01*
X419895Y288752D01*
X419795Y288755D01*
X419727Y288766D01*
X413377Y288766D01*
X413319Y288758D01*
X413261Y288760D01*
X413179Y288738D01*
X413096Y288726D01*
X413042Y288703D01*
X412986Y288688D01*
X412913Y288645D01*
X412836Y288610D01*
X412791Y288572D01*
X412741Y288543D01*
X412683Y288481D01*
X412619Y288427D01*
X412587Y288378D01*
X412547Y288335D01*
X412508Y288260D01*
X412462Y288190D01*
X412444Y288134D01*
X412417Y288082D01*
X412406Y288014D01*
X412376Y287919D01*
X412373Y287819D01*
X412362Y287751D01*
X412362Y271941D01*
X412370Y271883D01*
X412368Y271825D01*
X412390Y271743D01*
X412402Y271660D01*
X412426Y271606D01*
X412440Y271550D01*
X412483Y271477D01*
X412518Y271400D01*
X412556Y271355D01*
X412586Y271305D01*
X412647Y271247D01*
X412702Y271183D01*
X412750Y271151D01*
X412793Y271111D01*
X412868Y271072D01*
X412938Y271026D01*
X412994Y271008D01*
X413046Y270981D01*
X413114Y270970D01*
X413209Y270940D01*
X413309Y270937D01*
X413377Y270926D01*
X439477Y270926D01*
X439542Y270935D01*
G37*
D10*
X42164Y175514D03*
D11*
X42164Y225514D03*
X42164Y275514D03*
D12*
X300609Y347218D03*
X326009Y347218D03*
D13*
X98806Y200914D03*
X98806Y188214D03*
X98806Y175514D03*
X98806Y162814D03*
X148082Y162814D03*
X148082Y175514D03*
X148082Y188214D03*
X148082Y200914D03*
X139446Y292354D03*
X139446Y279654D03*
X139446Y266954D03*
X139446Y254254D03*
X188722Y254254D03*
X188722Y266954D03*
X188722Y279654D03*
X188722Y292354D03*
D14*
X89154Y235924D03*
X89154Y224324D03*
X188214Y121454D03*
X188214Y133054D03*
X165354Y133054D03*
X165354Y121454D03*
X151384Y133054D03*
X151384Y121454D03*
X137414Y133054D03*
X137414Y121454D03*
D15*
X207560Y202438D03*
X219160Y202438D03*
X207560Y188595D03*
X219160Y188595D03*
X219117Y226060D03*
X230717Y226060D03*
D12*
X300736Y273939D03*
X328676Y273939D03*
X300736Y248539D03*
X328676Y248539D03*
X300736Y223139D03*
X328676Y223139D03*
X300736Y197739D03*
X328676Y197739D03*
X300736Y172339D03*
X328676Y172339D03*
D16*
X249809Y248863D03*
X249809Y225863D03*
D17*
X406527Y250571D03*
X406527Y244071D03*
X406527Y263571D03*
X406527Y257071D03*
D18*
X403777Y279571D03*
X403777Y221571D03*
D19*
X433277Y240946D03*
X433277Y260196D03*
D20*
X432277Y277571D03*
D21*
X431836Y223257D02*
X435836Y223257D01*
D17*
X406527Y237571D03*
D14*
X94234Y121454D03*
X94234Y133054D03*
X106934Y224324D03*
X106934Y235924D03*
D22*
X425196Y108966D03*
X425196Y159766D03*
D23*
X425196Y134366D03*
D24*
X394716Y319353D03*
X394716Y372797D03*
D25*
X238685Y333375D03*
X185241Y333375D03*
D14*
X166116Y201337D03*
X166116Y212937D03*
X179832Y201337D03*
X179832Y212937D03*
X242443Y157438D03*
X242443Y145838D03*
X228092Y157438D03*
X228092Y145838D03*
X208915Y278723D03*
X208915Y267123D03*
X222631Y278723D03*
X222631Y267123D03*
D12*
X110490Y90170D03*
X237490Y90170D03*
X110490Y374650D03*
X237490Y374650D03*
D26*
X207179Y188214D02*
X148082Y188214D01*
X207179Y188214D02*
X207560Y188595D01*
X207560Y202438D01*
X300412Y248863D02*
X300736Y248539D01*
X300412Y248863D02*
X249809Y248863D01*
X263398Y333375D02*
X263525Y333375D01*
X277241Y347218D02*
X300609Y347218D01*
X277241Y347218D02*
X263398Y333375D01*
X237617Y249047D02*
X232537Y243967D01*
X237617Y249047D02*
X249625Y249047D01*
X249809Y248863D01*
X249682Y280797D02*
X263525Y294640D01*
X249682Y280797D02*
X249682Y248990D01*
X249809Y248863D01*
X263525Y294640D02*
X263525Y333375D01*
X189611Y292354D02*
X188722Y292354D01*
X188722Y291465D02*
X189611Y292354D01*
X165693Y200914D02*
X148082Y200914D01*
X165693Y200914D02*
X166116Y201337D01*
X179832Y201337D01*
X188002Y201337D01*
X194437Y207772D02*
X194437Y236855D01*
X201549Y243967D01*
X194437Y207772D02*
X188002Y201337D01*
X201549Y243967D02*
X232537Y243967D01*
X222631Y278723D02*
X247608Y278723D01*
X249682Y280797D01*
X207984Y279654D02*
X188722Y279654D01*
X207984Y279654D02*
X208915Y278723D01*
X222631Y278723D01*
X188722Y279654D02*
X188722Y291465D01*
D27*
X238685Y333375D02*
X263398Y333375D01*
D26*
X394716Y319353D02*
X394716Y315595D01*
X377698Y298577D01*
X362331Y268305D02*
X393065Y237571D01*
X406527Y237571D01*
X348361Y347218D02*
X326009Y347218D01*
X348361Y347218D02*
X362331Y333248D01*
X362331Y300990D01*
X362331Y268305D01*
X364744Y298577D02*
X362331Y300990D01*
X364744Y298577D02*
X377698Y298577D01*
X81864Y275514D02*
X42164Y275514D01*
X81864Y275514D02*
X89154Y268224D01*
X89154Y235924D01*
X188214Y145034D02*
X188214Y133054D01*
X188214Y145034D02*
X184404Y148844D01*
X128524Y148844D01*
X123444Y188214D02*
X98806Y188214D01*
X128524Y183134D02*
X128524Y148844D01*
X128524Y183134D02*
X123444Y188214D01*
X137414Y133054D02*
X151384Y133054D01*
X165354Y133054D01*
X137414Y133054D02*
X123444Y133054D01*
X117094Y139404D01*
X114554Y175514D02*
X98806Y175514D01*
X114554Y175514D02*
X117094Y172974D01*
X117094Y139404D01*
X106934Y224324D02*
X89154Y224324D01*
X125984Y279654D02*
X139446Y279654D01*
X125984Y279654D02*
X120904Y274574D01*
X120904Y224324D01*
X106934Y224324D01*
X120904Y224324D02*
X120904Y207264D01*
X114554Y200914D01*
X98806Y200914D01*
X137414Y121454D02*
X151384Y121454D01*
X165354Y121454D01*
X188214Y121454D01*
X219160Y226017D02*
X219117Y226060D01*
X219160Y226017D02*
X219160Y202438D01*
X219160Y188595D01*
X54864Y162814D02*
X42164Y175514D01*
X94234Y162814D02*
X98806Y162814D01*
X94234Y162814D02*
X94234Y133054D01*
X115824Y292354D02*
X139446Y292354D01*
X86614Y321564D02*
X28194Y321564D01*
X13716Y307086D01*
X13716Y183642D02*
X21844Y175514D01*
X42164Y175514D01*
X115824Y292354D02*
X86614Y321564D01*
X13716Y307086D02*
X13716Y183642D01*
X54864Y162814D02*
X98806Y162814D01*
D27*
X364109Y134366D02*
X425196Y134366D01*
X364109Y134366D02*
X351663Y121920D01*
D26*
X249809Y225863D02*
X249612Y226060D01*
X230717Y226060D01*
D27*
X286385Y121920D02*
X351663Y121920D01*
X286385Y121920D02*
X269494Y138811D01*
X269494Y197739D02*
X300736Y197739D01*
D26*
X242443Y157438D02*
X228092Y157438D01*
X249809Y217424D02*
X249809Y225863D01*
X249809Y217424D02*
X269494Y197739D01*
X242443Y157438D02*
X243713Y156168D01*
X269494Y156168D01*
D27*
X269494Y138811D01*
X269494Y156168D02*
X269494Y197739D01*
D26*
X148082Y175514D02*
X148082Y162814D01*
X399627Y225721D02*
X403777Y221571D01*
X432150Y221571D01*
X433836Y223257D01*
X433836Y240387D01*
X433277Y240946D01*
X433277Y254000D01*
X433277Y260196D01*
X406527Y276821D02*
X403777Y279571D01*
X406527Y276821D02*
X406527Y263571D01*
X94234Y121454D02*
X86064Y113284D01*
X66294Y113284D01*
D28*
X66294Y113284D03*
D26*
X106934Y235924D02*
X106934Y265684D01*
D28*
X106934Y265684D03*
D26*
X164084Y273685D02*
X170815Y266954D01*
D28*
X164084Y273685D03*
D26*
X170815Y266954D02*
X188722Y266954D01*
D28*
X354330Y395605D03*
D26*
X384375Y383138D02*
X394716Y372797D01*
X384375Y383138D02*
X384375Y384672D01*
X373442Y395605D01*
X354330Y395605D01*
D28*
X147828Y348361D03*
D26*
X148082Y162814D02*
X170180Y162814D01*
X174244Y166878D01*
D28*
X174244Y166878D03*
D26*
X405777Y277571D02*
X429133Y277571D01*
X405777Y277571D02*
X403777Y279571D01*
D27*
X425196Y108966D02*
X405638Y89408D01*
X379349Y89408D01*
D28*
X379349Y89408D03*
D27*
X388874Y159766D02*
X425196Y159766D01*
X388874Y159766D02*
X372745Y175895D01*
D28*
X372745Y175895D03*
D26*
X433277Y273427D02*
X429133Y277571D01*
X432277Y277571D02*
X432277Y255000D01*
X433277Y254000D01*
X179832Y212937D02*
X166116Y212937D01*
X166116Y223520D01*
X156464Y233172D01*
D28*
X156464Y233172D03*
D26*
X228092Y145838D02*
X242443Y145838D01*
X242443Y134747D01*
X233045Y125349D01*
D28*
X233045Y125349D03*
D26*
X208746Y266954D02*
X188722Y266954D01*
X208746Y266954D02*
X208915Y267123D01*
X222631Y267123D01*
D27*
X185241Y333375D02*
X162814Y333375D01*
X147828Y348361D01*
D26*
X393908Y263571D02*
X406527Y263571D01*
X393908Y263571D02*
X383286Y274193D01*
D28*
X383286Y274193D03*
M02*
