G04 EAGLE Gerber RS-274X export*
G75*
%MOMM*%
%FSLAX34Y34*%
%LPD*%
%IN*%
%IPPOS*%
%AMOC8*
5,1,8,0,0,1.08239X$1,22.5*%
G01*
%ADD10C,0.254000*%


D10*
X0Y0D02*
X457200Y0D01*
X457200Y457200D01*
X0Y457200D01*
X0Y0D01*
X428777Y223271D02*
X428780Y222973D01*
X428809Y222677D01*
X428864Y222385D01*
X428944Y222098D01*
X429049Y221819D01*
X429177Y221551D01*
X429329Y221295D01*
X429502Y221053D01*
X429696Y220827D01*
X429908Y220619D01*
X430138Y220430D01*
X430384Y220262D01*
X430643Y220115D01*
X430914Y219992D01*
X431195Y219894D01*
X431483Y219820D01*
X431777Y219771D01*
X437777Y219771D01*
X438071Y219820D01*
X438359Y219894D01*
X438640Y219992D01*
X438911Y220115D01*
X439170Y220262D01*
X439416Y220430D01*
X439646Y220619D01*
X439858Y220827D01*
X440052Y221053D01*
X440225Y221295D01*
X440377Y221551D01*
X440505Y221819D01*
X440610Y222098D01*
X440690Y222385D01*
X440745Y222677D01*
X440774Y222973D01*
X440777Y223271D01*
X440774Y223569D01*
X440745Y223865D01*
X440690Y224157D01*
X440610Y224444D01*
X440505Y224723D01*
X440377Y224991D01*
X440225Y225247D01*
X440052Y225489D01*
X439858Y225715D01*
X439646Y225923D01*
X439416Y226112D01*
X439170Y226281D01*
X438911Y226427D01*
X438640Y226550D01*
X438359Y226648D01*
X438071Y226722D01*
X437777Y226771D01*
X431777Y226771D01*
X431483Y226722D01*
X431195Y226648D01*
X430914Y226550D01*
X430643Y226427D01*
X430384Y226281D01*
X430138Y226112D01*
X429908Y225923D01*
X429696Y225715D01*
X429502Y225489D01*
X429329Y225247D01*
X429177Y224991D01*
X429049Y224723D01*
X428944Y224444D01*
X428864Y224157D01*
X428809Y223865D01*
X428780Y223569D01*
X428777Y223271D01*
X399227Y226271D02*
X399235Y225992D01*
X399267Y225715D01*
X399323Y225441D01*
X399403Y225174D01*
X399505Y224914D01*
X399630Y224665D01*
X399776Y224427D01*
X399943Y224203D01*
X400128Y223994D01*
X400331Y223802D01*
X400550Y223629D01*
X400783Y223475D01*
X401028Y223342D01*
X401284Y223231D01*
X401549Y223143D01*
X401821Y223078D01*
X402097Y223038D01*
X402375Y223021D01*
X406477Y223021D01*
X406772Y223047D01*
X407064Y223098D01*
X407350Y223175D01*
X407629Y223276D01*
X407898Y223401D01*
X408154Y223549D01*
X408397Y223719D01*
X408624Y223910D01*
X408834Y224119D01*
X409025Y224346D01*
X409195Y224589D01*
X409343Y224846D01*
X409468Y225114D01*
X409570Y225393D01*
X409647Y225679D01*
X409698Y225971D01*
X409724Y226266D01*
X409727Y226371D01*
X409730Y226633D01*
X409710Y226893D01*
X409667Y227151D01*
X409602Y227405D01*
X409516Y227651D01*
X409408Y227890D01*
X409279Y228117D01*
X409132Y228333D01*
X408966Y228535D01*
X408783Y228722D01*
X408584Y228893D01*
X408372Y229045D01*
X408147Y229178D01*
X407911Y229291D01*
X407666Y229383D01*
X407414Y229454D01*
X407157Y229502D01*
X406897Y229528D01*
X406636Y229530D01*
X406477Y229521D01*
X402477Y229521D01*
X402194Y229509D01*
X401913Y229472D01*
X401636Y229410D01*
X401365Y229325D01*
X401104Y229217D01*
X400852Y229086D01*
X400613Y228933D01*
X400388Y228761D01*
X400179Y228569D01*
X399987Y228360D01*
X399815Y228135D01*
X399662Y227896D01*
X399532Y227645D01*
X399423Y227383D01*
X399338Y227112D01*
X399276Y226835D01*
X399239Y226554D01*
X399227Y226271D01*
X399227Y274871D02*
X399227Y274769D01*
X399244Y274491D01*
X399284Y274215D01*
X399349Y273943D01*
X399437Y273678D01*
X399548Y273422D01*
X399681Y273177D01*
X399835Y272944D01*
X400008Y272725D01*
X400200Y272522D01*
X400409Y272337D01*
X400633Y272170D01*
X400871Y272024D01*
X401120Y271899D01*
X401380Y271797D01*
X401647Y271717D01*
X401921Y271661D01*
X402198Y271629D01*
X402477Y271621D01*
X406477Y271621D01*
X406582Y271627D01*
X406876Y271662D01*
X407166Y271722D01*
X407450Y271808D01*
X407725Y271918D01*
X407990Y272051D01*
X408242Y272207D01*
X408480Y272384D01*
X408701Y272582D01*
X408904Y272798D01*
X409087Y273030D01*
X409250Y273278D01*
X409390Y273539D01*
X409507Y273812D01*
X409600Y274093D01*
X409668Y274382D01*
X409710Y274675D01*
X409727Y274971D01*
X409731Y275130D01*
X409720Y275391D01*
X409687Y275650D01*
X409630Y275906D01*
X409552Y276155D01*
X409453Y276397D01*
X409332Y276629D01*
X409192Y276850D01*
X409033Y277058D01*
X408857Y277251D01*
X408664Y277428D01*
X408457Y277587D01*
X408237Y277728D01*
X408005Y277849D01*
X407763Y277950D01*
X407514Y278029D01*
X407259Y278086D01*
X407000Y278120D01*
X406738Y278132D01*
X406477Y278121D01*
X402477Y278121D01*
X402194Y278109D01*
X401913Y278072D01*
X401636Y278010D01*
X401365Y277925D01*
X401104Y277817D01*
X400852Y277686D01*
X400613Y277533D01*
X400388Y277361D01*
X400179Y277169D01*
X399987Y276960D01*
X399815Y276735D01*
X399662Y276496D01*
X399532Y276245D01*
X399423Y275983D01*
X399338Y275712D01*
X399276Y275435D01*
X399239Y275154D01*
X399227Y274871D01*
X428777Y277871D02*
X428780Y277573D01*
X428809Y277277D01*
X428864Y276985D01*
X428944Y276698D01*
X429049Y276419D01*
X429177Y276151D01*
X429329Y275895D01*
X429502Y275653D01*
X429696Y275427D01*
X429908Y275219D01*
X430138Y275030D01*
X430384Y274862D01*
X430643Y274715D01*
X430914Y274592D01*
X431195Y274494D01*
X431483Y274420D01*
X431777Y274371D01*
X437777Y274371D01*
X438071Y274420D01*
X438359Y274494D01*
X438640Y274592D01*
X438911Y274715D01*
X439170Y274862D01*
X439416Y275030D01*
X439646Y275219D01*
X439858Y275427D01*
X440052Y275653D01*
X440225Y275895D01*
X440377Y276151D01*
X440505Y276419D01*
X440610Y276698D01*
X440690Y276985D01*
X440745Y277277D01*
X440774Y277573D01*
X440777Y277871D01*
X440774Y278169D01*
X440745Y278465D01*
X440690Y278757D01*
X440610Y279044D01*
X440505Y279323D01*
X440377Y279591D01*
X440225Y279847D01*
X440052Y280089D01*
X439858Y280315D01*
X439646Y280523D01*
X439416Y280712D01*
X439170Y280881D01*
X438911Y281027D01*
X438640Y281150D01*
X438359Y281248D01*
X438071Y281322D01*
X437777Y281371D01*
X431777Y281371D01*
X431483Y281322D01*
X431195Y281248D01*
X430914Y281150D01*
X430643Y281027D01*
X430384Y280881D01*
X430138Y280712D01*
X429908Y280523D01*
X429696Y280315D01*
X429502Y280089D01*
X429329Y279847D01*
X429177Y279591D01*
X429049Y279323D01*
X428944Y279044D01*
X428864Y278757D01*
X428809Y278465D01*
X428780Y278169D01*
X428777Y277871D01*
X44069Y428994D02*
X44001Y427957D01*
X43865Y426927D01*
X43663Y425907D01*
X43394Y424903D01*
X43059Y423919D01*
X42662Y422959D01*
X42202Y422027D01*
X41682Y421126D01*
X41105Y420262D01*
X40472Y419438D01*
X39787Y418656D01*
X39052Y417921D01*
X38270Y417236D01*
X37446Y416603D01*
X36582Y416026D01*
X35681Y415506D01*
X34749Y415046D01*
X33789Y414649D01*
X32805Y414314D01*
X31801Y414045D01*
X30781Y413843D01*
X29751Y413707D01*
X28714Y413639D01*
X27674Y413639D01*
X26637Y413707D01*
X25607Y413843D01*
X24587Y414045D01*
X23583Y414314D01*
X22599Y414649D01*
X21639Y415046D01*
X20707Y415506D01*
X19806Y416026D01*
X18942Y416603D01*
X18118Y417236D01*
X17336Y417921D01*
X16601Y418656D01*
X15916Y419438D01*
X15283Y420262D01*
X14706Y421126D01*
X14186Y422027D01*
X13726Y422959D01*
X13329Y423919D01*
X12994Y424903D01*
X12725Y425907D01*
X12523Y426927D01*
X12387Y427957D01*
X12319Y428994D01*
X12319Y430034D01*
X12387Y431071D01*
X12523Y432101D01*
X12725Y433121D01*
X12994Y434125D01*
X13329Y435109D01*
X13726Y436069D01*
X14186Y437001D01*
X14706Y437902D01*
X15283Y438766D01*
X15916Y439590D01*
X16601Y440372D01*
X17336Y441107D01*
X18118Y441792D01*
X18942Y442425D01*
X19806Y443002D01*
X20707Y443522D01*
X21639Y443982D01*
X22599Y444379D01*
X23583Y444714D01*
X24587Y444983D01*
X25607Y445185D01*
X26637Y445321D01*
X27674Y445389D01*
X28714Y445389D01*
X29751Y445321D01*
X30781Y445185D01*
X31801Y444983D01*
X32805Y444714D01*
X33789Y444379D01*
X34749Y443982D01*
X35681Y443522D01*
X36582Y443002D01*
X37446Y442425D01*
X38270Y441792D01*
X39052Y441107D01*
X39787Y440372D01*
X40472Y439590D01*
X41105Y438766D01*
X41682Y437902D01*
X42202Y437001D01*
X42662Y436069D01*
X43059Y435109D01*
X43394Y434125D01*
X43663Y433121D01*
X43865Y432101D01*
X44001Y431071D01*
X44069Y430034D01*
X44069Y428994D01*
X47879Y30214D02*
X47811Y29177D01*
X47675Y28147D01*
X47473Y27127D01*
X47204Y26123D01*
X46869Y25139D01*
X46472Y24179D01*
X46012Y23247D01*
X45492Y22346D01*
X44915Y21482D01*
X44282Y20658D01*
X43597Y19876D01*
X42862Y19141D01*
X42080Y18456D01*
X41256Y17823D01*
X40392Y17246D01*
X39491Y16726D01*
X38559Y16266D01*
X37599Y15869D01*
X36615Y15534D01*
X35611Y15265D01*
X34591Y15063D01*
X33561Y14927D01*
X32524Y14859D01*
X31484Y14859D01*
X30447Y14927D01*
X29417Y15063D01*
X28397Y15265D01*
X27393Y15534D01*
X26409Y15869D01*
X25449Y16266D01*
X24517Y16726D01*
X23616Y17246D01*
X22752Y17823D01*
X21928Y18456D01*
X21146Y19141D01*
X20411Y19876D01*
X19726Y20658D01*
X19093Y21482D01*
X18516Y22346D01*
X17996Y23247D01*
X17536Y24179D01*
X17139Y25139D01*
X16804Y26123D01*
X16535Y27127D01*
X16333Y28147D01*
X16197Y29177D01*
X16129Y30214D01*
X16129Y31254D01*
X16197Y32291D01*
X16333Y33321D01*
X16535Y34341D01*
X16804Y35345D01*
X17139Y36329D01*
X17536Y37289D01*
X17996Y38221D01*
X18516Y39122D01*
X19093Y39986D01*
X19726Y40810D01*
X20411Y41592D01*
X21146Y42327D01*
X21928Y43012D01*
X22752Y43645D01*
X23616Y44222D01*
X24517Y44742D01*
X25449Y45202D01*
X26409Y45599D01*
X27393Y45934D01*
X28397Y46203D01*
X29417Y46405D01*
X30447Y46541D01*
X31484Y46609D01*
X32524Y46609D01*
X33561Y46541D01*
X34591Y46405D01*
X35611Y46203D01*
X36615Y45934D01*
X37599Y45599D01*
X38559Y45202D01*
X39491Y44742D01*
X40392Y44222D01*
X41256Y43645D01*
X42080Y43012D01*
X42862Y42327D01*
X43597Y41592D01*
X44282Y40810D01*
X44915Y39986D01*
X45492Y39122D01*
X46012Y38221D01*
X46472Y37289D01*
X46869Y36329D01*
X47204Y35345D01*
X47473Y34341D01*
X47675Y33321D01*
X47811Y32291D01*
X47879Y31254D01*
X47879Y30214D01*
X443865Y30087D02*
X443797Y29050D01*
X443661Y28020D01*
X443459Y27000D01*
X443190Y25996D01*
X442855Y25012D01*
X442458Y24052D01*
X441998Y23120D01*
X441478Y22219D01*
X440901Y21355D01*
X440268Y20531D01*
X439583Y19749D01*
X438848Y19014D01*
X438066Y18329D01*
X437242Y17696D01*
X436378Y17119D01*
X435477Y16599D01*
X434545Y16139D01*
X433585Y15742D01*
X432601Y15407D01*
X431597Y15138D01*
X430577Y14936D01*
X429547Y14800D01*
X428510Y14732D01*
X427470Y14732D01*
X426433Y14800D01*
X425403Y14936D01*
X424383Y15138D01*
X423379Y15407D01*
X422395Y15742D01*
X421435Y16139D01*
X420503Y16599D01*
X419602Y17119D01*
X418738Y17696D01*
X417914Y18329D01*
X417132Y19014D01*
X416397Y19749D01*
X415712Y20531D01*
X415079Y21355D01*
X414502Y22219D01*
X413982Y23120D01*
X413522Y24052D01*
X413125Y25012D01*
X412790Y25996D01*
X412521Y27000D01*
X412319Y28020D01*
X412183Y29050D01*
X412115Y30087D01*
X412115Y31127D01*
X412183Y32164D01*
X412319Y33194D01*
X412521Y34214D01*
X412790Y35218D01*
X413125Y36202D01*
X413522Y37162D01*
X413982Y38094D01*
X414502Y38995D01*
X415079Y39859D01*
X415712Y40683D01*
X416397Y41465D01*
X417132Y42200D01*
X417914Y42885D01*
X418738Y43518D01*
X419602Y44095D01*
X420503Y44615D01*
X421435Y45075D01*
X422395Y45472D01*
X423379Y45807D01*
X424383Y46076D01*
X425403Y46278D01*
X426433Y46414D01*
X427470Y46482D01*
X428510Y46482D01*
X429547Y46414D01*
X430577Y46278D01*
X431597Y46076D01*
X432601Y45807D01*
X433585Y45472D01*
X434545Y45075D01*
X435477Y44615D01*
X436378Y44095D01*
X437242Y43518D01*
X438066Y42885D01*
X438848Y42200D01*
X439583Y41465D01*
X440268Y40683D01*
X440901Y39859D01*
X441478Y38995D01*
X441998Y38094D01*
X442458Y37162D01*
X442855Y36202D01*
X443190Y35218D01*
X443459Y34214D01*
X443661Y33194D01*
X443797Y32164D01*
X443865Y31127D01*
X443865Y30087D01*
X447802Y429248D02*
X447734Y428211D01*
X447598Y427181D01*
X447396Y426161D01*
X447127Y425157D01*
X446792Y424173D01*
X446395Y423213D01*
X445935Y422281D01*
X445415Y421380D01*
X444838Y420516D01*
X444205Y419692D01*
X443520Y418910D01*
X442785Y418175D01*
X442003Y417490D01*
X441179Y416857D01*
X440315Y416280D01*
X439414Y415760D01*
X438482Y415300D01*
X437522Y414903D01*
X436538Y414568D01*
X435534Y414299D01*
X434514Y414097D01*
X433484Y413961D01*
X432447Y413893D01*
X431407Y413893D01*
X430370Y413961D01*
X429340Y414097D01*
X428320Y414299D01*
X427316Y414568D01*
X426332Y414903D01*
X425372Y415300D01*
X424440Y415760D01*
X423539Y416280D01*
X422675Y416857D01*
X421851Y417490D01*
X421069Y418175D01*
X420334Y418910D01*
X419649Y419692D01*
X419016Y420516D01*
X418439Y421380D01*
X417919Y422281D01*
X417459Y423213D01*
X417062Y424173D01*
X416727Y425157D01*
X416458Y426161D01*
X416256Y427181D01*
X416120Y428211D01*
X416052Y429248D01*
X416052Y430288D01*
X416120Y431325D01*
X416256Y432355D01*
X416458Y433375D01*
X416727Y434379D01*
X417062Y435363D01*
X417459Y436323D01*
X417919Y437255D01*
X418439Y438156D01*
X419016Y439020D01*
X419649Y439844D01*
X420334Y440626D01*
X421069Y441361D01*
X421851Y442046D01*
X422675Y442679D01*
X423539Y443256D01*
X424440Y443776D01*
X425372Y444236D01*
X426332Y444633D01*
X427316Y444968D01*
X428320Y445237D01*
X429340Y445439D01*
X430370Y445575D01*
X431407Y445643D01*
X432447Y445643D01*
X433484Y445575D01*
X434514Y445439D01*
X435534Y445237D01*
X436538Y444968D01*
X437522Y444633D01*
X438482Y444236D01*
X439414Y443776D01*
X440315Y443256D01*
X441179Y442679D01*
X442003Y442046D01*
X442785Y441361D01*
X443520Y440626D01*
X444205Y439844D01*
X444838Y439020D01*
X445415Y438156D01*
X445935Y437255D01*
X446395Y436323D01*
X446792Y435363D01*
X447127Y434379D01*
X447396Y433375D01*
X447598Y432355D01*
X447734Y431325D01*
X447802Y430288D01*
X447802Y429248D01*
M02*
