G04 EAGLE Gerber RS-274X export*
G75*
%MOMM*%
%FSLAX34Y34*%
%LPD*%
%INSilkscreen Top*%
%IPPOS*%
%AMOC8*
5,1,8,0,0,1.08239X$1,22.5*%
G01*
%ADD10C,0.101600*%
%ADD11R,0.508000X0.050800*%
%ADD12R,0.812800X0.050800*%
%ADD13R,0.914400X0.050800*%
%ADD14R,0.254000X0.050800*%
%ADD15R,1.066800X0.050800*%
%ADD16R,0.457200X0.050800*%
%ADD17R,0.355600X0.050800*%
%ADD18R,0.304800X0.050800*%
%ADD19R,0.152400X0.050800*%
%ADD20R,0.660400X0.050800*%
%ADD21R,0.711200X0.050800*%
%ADD22R,0.609600X0.050800*%
%ADD23R,0.558800X0.050800*%
%ADD24R,0.863600X0.050800*%
%ADD25R,0.203200X0.050800*%
%ADD26R,0.965200X0.050800*%
%ADD27R,1.016000X0.050800*%
%ADD28R,1.117600X0.050800*%
%ADD29R,1.371600X0.050800*%
%ADD30R,0.406400X0.050800*%
%ADD31R,0.762000X0.050800*%
%ADD32R,0.050800X0.050800*%
%ADD33R,1.625600X0.050800*%
%ADD34R,1.574800X0.050800*%
%ADD35R,1.168400X0.050800*%
%ADD36R,1.219200X0.050800*%
%ADD37R,0.101600X0.050800*%
%ADD38C,0.050800*%
%ADD39C,0.203200*%
%ADD40C,0.127000*%
%ADD41C,0.152400*%
%ADD42C,0.076200*%
%ADD43C,0.177800*%
%ADD44C,0.025400*%


D10*
X57277Y42545D02*
X57277Y54229D01*
X60523Y54229D01*
X60636Y54227D01*
X60749Y54221D01*
X60862Y54211D01*
X60975Y54197D01*
X61087Y54180D01*
X61198Y54158D01*
X61308Y54133D01*
X61418Y54103D01*
X61526Y54070D01*
X61633Y54033D01*
X61739Y53993D01*
X61843Y53948D01*
X61946Y53900D01*
X62047Y53849D01*
X62146Y53794D01*
X62243Y53736D01*
X62338Y53674D01*
X62431Y53609D01*
X62521Y53541D01*
X62609Y53470D01*
X62695Y53395D01*
X62778Y53318D01*
X62858Y53238D01*
X62935Y53155D01*
X63010Y53069D01*
X63081Y52981D01*
X63149Y52891D01*
X63214Y52798D01*
X63276Y52703D01*
X63334Y52606D01*
X63389Y52507D01*
X63440Y52406D01*
X63488Y52303D01*
X63533Y52199D01*
X63573Y52093D01*
X63610Y51986D01*
X63643Y51878D01*
X63673Y51768D01*
X63698Y51658D01*
X63720Y51547D01*
X63737Y51435D01*
X63751Y51322D01*
X63761Y51209D01*
X63767Y51096D01*
X63769Y50983D01*
X63767Y50870D01*
X63761Y50757D01*
X63751Y50644D01*
X63737Y50531D01*
X63720Y50419D01*
X63698Y50308D01*
X63673Y50198D01*
X63643Y50088D01*
X63610Y49980D01*
X63573Y49873D01*
X63533Y49767D01*
X63488Y49663D01*
X63440Y49560D01*
X63389Y49459D01*
X63334Y49360D01*
X63276Y49263D01*
X63214Y49168D01*
X63149Y49075D01*
X63081Y48985D01*
X63010Y48897D01*
X62935Y48811D01*
X62858Y48728D01*
X62778Y48648D01*
X62695Y48571D01*
X62609Y48496D01*
X62521Y48425D01*
X62431Y48357D01*
X62338Y48292D01*
X62243Y48230D01*
X62146Y48172D01*
X62047Y48117D01*
X61946Y48066D01*
X61843Y48018D01*
X61739Y47973D01*
X61633Y47933D01*
X61526Y47896D01*
X61418Y47863D01*
X61308Y47833D01*
X61198Y47808D01*
X61087Y47786D01*
X60975Y47769D01*
X60862Y47755D01*
X60749Y47745D01*
X60636Y47739D01*
X60523Y47737D01*
X60523Y47738D02*
X57277Y47738D01*
X70640Y42545D02*
X70640Y54229D01*
X67395Y54229D02*
X73886Y54229D01*
X78063Y51633D02*
X81308Y54229D01*
X81308Y42545D01*
X78063Y42545D02*
X84554Y42545D01*
X89493Y48387D02*
X89496Y48617D01*
X89504Y48847D01*
X89518Y49076D01*
X89537Y49305D01*
X89562Y49534D01*
X89592Y49761D01*
X89627Y49989D01*
X89668Y50215D01*
X89714Y50440D01*
X89766Y50664D01*
X89823Y50886D01*
X89885Y51108D01*
X89953Y51327D01*
X90026Y51545D01*
X90104Y51762D01*
X90187Y51976D01*
X90275Y52188D01*
X90368Y52398D01*
X90467Y52606D01*
X90466Y52606D02*
X90499Y52696D01*
X90535Y52785D01*
X90575Y52873D01*
X90619Y52958D01*
X90666Y53042D01*
X90716Y53124D01*
X90770Y53204D01*
X90826Y53281D01*
X90886Y53357D01*
X90949Y53430D01*
X91014Y53500D01*
X91083Y53568D01*
X91154Y53632D01*
X91227Y53694D01*
X91303Y53753D01*
X91381Y53809D01*
X91462Y53862D01*
X91544Y53911D01*
X91628Y53957D01*
X91715Y54000D01*
X91802Y54039D01*
X91892Y54075D01*
X91982Y54107D01*
X92074Y54135D01*
X92167Y54160D01*
X92261Y54181D01*
X92355Y54198D01*
X92450Y54212D01*
X92546Y54221D01*
X92642Y54227D01*
X92738Y54229D01*
X92834Y54227D01*
X92930Y54221D01*
X93026Y54212D01*
X93121Y54198D01*
X93215Y54181D01*
X93309Y54160D01*
X93402Y54135D01*
X93494Y54107D01*
X93584Y54075D01*
X93674Y54039D01*
X93761Y54000D01*
X93848Y53957D01*
X93932Y53911D01*
X94014Y53862D01*
X94095Y53809D01*
X94173Y53753D01*
X94249Y53694D01*
X94322Y53632D01*
X94393Y53568D01*
X94462Y53500D01*
X94527Y53430D01*
X94590Y53357D01*
X94650Y53281D01*
X94706Y53204D01*
X94760Y53124D01*
X94810Y53042D01*
X94857Y52958D01*
X94901Y52873D01*
X94941Y52785D01*
X94977Y52696D01*
X95010Y52606D01*
X95109Y52399D01*
X95202Y52189D01*
X95290Y51976D01*
X95373Y51762D01*
X95451Y51546D01*
X95524Y51328D01*
X95592Y51108D01*
X95654Y50887D01*
X95711Y50664D01*
X95763Y50440D01*
X95809Y50215D01*
X95850Y49989D01*
X95885Y49762D01*
X95915Y49534D01*
X95940Y49305D01*
X95959Y49076D01*
X95973Y48847D01*
X95981Y48617D01*
X95984Y48387D01*
X89492Y48387D02*
X89495Y48157D01*
X89503Y47927D01*
X89517Y47698D01*
X89536Y47469D01*
X89561Y47240D01*
X89591Y47012D01*
X89626Y46785D01*
X89667Y46559D01*
X89713Y46334D01*
X89765Y46110D01*
X89822Y45887D01*
X89884Y45666D01*
X89952Y45446D01*
X90025Y45228D01*
X90103Y45012D01*
X90186Y44798D01*
X90274Y44586D01*
X90367Y44375D01*
X90466Y44168D01*
X90499Y44078D01*
X90535Y43989D01*
X90576Y43901D01*
X90619Y43816D01*
X90666Y43732D01*
X90716Y43650D01*
X90770Y43570D01*
X90826Y43493D01*
X90886Y43417D01*
X90949Y43344D01*
X91014Y43274D01*
X91083Y43206D01*
X91154Y43142D01*
X91227Y43080D01*
X91303Y43021D01*
X91381Y42965D01*
X91462Y42912D01*
X91544Y42863D01*
X91628Y42817D01*
X91715Y42774D01*
X91802Y42735D01*
X91892Y42699D01*
X91982Y42667D01*
X92074Y42639D01*
X92167Y42614D01*
X92261Y42593D01*
X92355Y42576D01*
X92450Y42562D01*
X92546Y42553D01*
X92642Y42547D01*
X92738Y42545D01*
X95010Y44168D02*
X95109Y44375D01*
X95202Y44586D01*
X95290Y44798D01*
X95373Y45012D01*
X95451Y45228D01*
X95524Y45446D01*
X95592Y45666D01*
X95654Y45887D01*
X95711Y46110D01*
X95763Y46334D01*
X95809Y46559D01*
X95850Y46785D01*
X95885Y47012D01*
X95915Y47240D01*
X95940Y47469D01*
X95959Y47698D01*
X95973Y47927D01*
X95981Y48157D01*
X95984Y48387D01*
X95010Y44168D02*
X94977Y44078D01*
X94941Y43989D01*
X94901Y43901D01*
X94857Y43816D01*
X94810Y43732D01*
X94760Y43650D01*
X94706Y43570D01*
X94650Y43493D01*
X94590Y43417D01*
X94527Y43344D01*
X94462Y43274D01*
X94393Y43206D01*
X94322Y43142D01*
X94249Y43080D01*
X94173Y43021D01*
X94095Y42965D01*
X94014Y42912D01*
X93932Y42863D01*
X93848Y42817D01*
X93761Y42774D01*
X93674Y42735D01*
X93584Y42699D01*
X93494Y42667D01*
X93402Y42639D01*
X93309Y42614D01*
X93215Y42593D01*
X93121Y42576D01*
X93026Y42562D01*
X92930Y42553D01*
X92834Y42547D01*
X92738Y42545D01*
X90142Y45141D02*
X95335Y51633D01*
X100923Y48387D02*
X100926Y48617D01*
X100934Y48847D01*
X100948Y49076D01*
X100967Y49305D01*
X100992Y49534D01*
X101022Y49761D01*
X101057Y49989D01*
X101098Y50215D01*
X101144Y50440D01*
X101196Y50664D01*
X101253Y50886D01*
X101315Y51108D01*
X101383Y51327D01*
X101456Y51545D01*
X101534Y51762D01*
X101617Y51976D01*
X101705Y52188D01*
X101798Y52398D01*
X101897Y52606D01*
X101896Y52606D02*
X101929Y52696D01*
X101965Y52785D01*
X102005Y52873D01*
X102049Y52958D01*
X102096Y53042D01*
X102146Y53124D01*
X102200Y53204D01*
X102256Y53281D01*
X102316Y53357D01*
X102379Y53430D01*
X102444Y53500D01*
X102513Y53568D01*
X102584Y53632D01*
X102657Y53694D01*
X102733Y53753D01*
X102811Y53809D01*
X102892Y53862D01*
X102974Y53911D01*
X103058Y53957D01*
X103145Y54000D01*
X103232Y54039D01*
X103322Y54075D01*
X103412Y54107D01*
X103504Y54135D01*
X103597Y54160D01*
X103691Y54181D01*
X103785Y54198D01*
X103880Y54212D01*
X103976Y54221D01*
X104072Y54227D01*
X104168Y54229D01*
X104264Y54227D01*
X104360Y54221D01*
X104456Y54212D01*
X104551Y54198D01*
X104645Y54181D01*
X104739Y54160D01*
X104832Y54135D01*
X104924Y54107D01*
X105014Y54075D01*
X105104Y54039D01*
X105191Y54000D01*
X105278Y53957D01*
X105362Y53911D01*
X105444Y53862D01*
X105525Y53809D01*
X105603Y53753D01*
X105679Y53694D01*
X105752Y53632D01*
X105823Y53568D01*
X105892Y53500D01*
X105957Y53430D01*
X106020Y53357D01*
X106080Y53281D01*
X106136Y53204D01*
X106190Y53124D01*
X106240Y53042D01*
X106287Y52958D01*
X106331Y52873D01*
X106371Y52785D01*
X106407Y52696D01*
X106440Y52606D01*
X106539Y52399D01*
X106632Y52189D01*
X106720Y51976D01*
X106803Y51762D01*
X106881Y51546D01*
X106954Y51328D01*
X107022Y51108D01*
X107084Y50887D01*
X107141Y50664D01*
X107193Y50440D01*
X107239Y50215D01*
X107280Y49989D01*
X107315Y49762D01*
X107345Y49534D01*
X107370Y49305D01*
X107389Y49076D01*
X107403Y48847D01*
X107411Y48617D01*
X107414Y48387D01*
X100922Y48387D02*
X100925Y48157D01*
X100933Y47927D01*
X100947Y47698D01*
X100966Y47469D01*
X100991Y47240D01*
X101021Y47012D01*
X101056Y46785D01*
X101097Y46559D01*
X101143Y46334D01*
X101195Y46110D01*
X101252Y45887D01*
X101314Y45666D01*
X101382Y45446D01*
X101455Y45228D01*
X101533Y45012D01*
X101616Y44798D01*
X101704Y44586D01*
X101797Y44375D01*
X101896Y44168D01*
X101929Y44078D01*
X101965Y43989D01*
X102006Y43901D01*
X102049Y43816D01*
X102096Y43732D01*
X102146Y43650D01*
X102200Y43570D01*
X102256Y43493D01*
X102316Y43417D01*
X102379Y43344D01*
X102444Y43274D01*
X102513Y43206D01*
X102584Y43142D01*
X102657Y43080D01*
X102733Y43021D01*
X102811Y42965D01*
X102892Y42912D01*
X102974Y42863D01*
X103058Y42817D01*
X103145Y42774D01*
X103232Y42735D01*
X103322Y42699D01*
X103412Y42667D01*
X103504Y42639D01*
X103597Y42614D01*
X103691Y42593D01*
X103785Y42576D01*
X103880Y42562D01*
X103976Y42553D01*
X104072Y42547D01*
X104168Y42545D01*
X106440Y44168D02*
X106539Y44375D01*
X106632Y44586D01*
X106720Y44798D01*
X106803Y45012D01*
X106881Y45228D01*
X106954Y45446D01*
X107022Y45666D01*
X107084Y45887D01*
X107141Y46110D01*
X107193Y46334D01*
X107239Y46559D01*
X107280Y46785D01*
X107315Y47012D01*
X107345Y47240D01*
X107370Y47469D01*
X107389Y47698D01*
X107403Y47927D01*
X107411Y48157D01*
X107414Y48387D01*
X106440Y44168D02*
X106407Y44078D01*
X106371Y43989D01*
X106331Y43901D01*
X106287Y43816D01*
X106240Y43732D01*
X106190Y43650D01*
X106136Y43570D01*
X106080Y43493D01*
X106020Y43417D01*
X105957Y43344D01*
X105892Y43274D01*
X105823Y43206D01*
X105752Y43142D01*
X105679Y43080D01*
X105603Y43021D01*
X105525Y42965D01*
X105444Y42912D01*
X105362Y42863D01*
X105278Y42817D01*
X105191Y42774D01*
X105104Y42735D01*
X105014Y42699D01*
X104924Y42667D01*
X104832Y42639D01*
X104739Y42614D01*
X104645Y42593D01*
X104551Y42576D01*
X104456Y42562D01*
X104360Y42553D01*
X104264Y42547D01*
X104168Y42545D01*
X101572Y45141D02*
X106765Y51633D01*
X117799Y42545D02*
X121694Y54229D01*
X125589Y42545D01*
X124615Y45466D02*
X118773Y45466D01*
X130147Y42545D02*
X130147Y50334D01*
X133392Y50334D01*
X133479Y50332D01*
X133567Y50326D01*
X133653Y50316D01*
X133740Y50303D01*
X133825Y50285D01*
X133910Y50264D01*
X133994Y50239D01*
X134076Y50210D01*
X134157Y50177D01*
X134237Y50141D01*
X134315Y50102D01*
X134391Y50058D01*
X134465Y50012D01*
X134536Y49962D01*
X134606Y49909D01*
X134673Y49853D01*
X134737Y49794D01*
X134799Y49733D01*
X134858Y49668D01*
X134914Y49601D01*
X134967Y49531D01*
X135017Y49460D01*
X135063Y49386D01*
X135107Y49310D01*
X135146Y49232D01*
X135182Y49152D01*
X135215Y49071D01*
X135244Y48989D01*
X135269Y48905D01*
X135290Y48820D01*
X135308Y48735D01*
X135321Y48648D01*
X135331Y48562D01*
X135337Y48474D01*
X135339Y48387D01*
X135340Y48387D02*
X135340Y42545D01*
X142647Y47089D02*
X145568Y47089D01*
X142647Y47089D02*
X142553Y47087D01*
X142459Y47081D01*
X142366Y47072D01*
X142273Y47058D01*
X142181Y47041D01*
X142089Y47019D01*
X141999Y46995D01*
X141909Y46966D01*
X141821Y46934D01*
X141734Y46898D01*
X141649Y46858D01*
X141566Y46815D01*
X141484Y46769D01*
X141404Y46719D01*
X141327Y46666D01*
X141252Y46610D01*
X141179Y46551D01*
X141108Y46489D01*
X141040Y46424D01*
X140975Y46356D01*
X140913Y46285D01*
X140854Y46212D01*
X140798Y46137D01*
X140745Y46060D01*
X140695Y45980D01*
X140649Y45898D01*
X140606Y45815D01*
X140566Y45730D01*
X140530Y45643D01*
X140498Y45555D01*
X140469Y45465D01*
X140445Y45375D01*
X140423Y45283D01*
X140406Y45191D01*
X140392Y45098D01*
X140383Y45005D01*
X140377Y44911D01*
X140375Y44817D01*
X140377Y44723D01*
X140383Y44629D01*
X140392Y44536D01*
X140406Y44443D01*
X140423Y44351D01*
X140445Y44259D01*
X140469Y44169D01*
X140498Y44079D01*
X140530Y43991D01*
X140566Y43904D01*
X140606Y43819D01*
X140649Y43736D01*
X140695Y43654D01*
X140745Y43574D01*
X140798Y43497D01*
X140854Y43422D01*
X140913Y43349D01*
X140975Y43278D01*
X141040Y43210D01*
X141108Y43145D01*
X141179Y43083D01*
X141252Y43024D01*
X141327Y42968D01*
X141404Y42915D01*
X141484Y42865D01*
X141566Y42819D01*
X141649Y42776D01*
X141734Y42736D01*
X141821Y42700D01*
X141909Y42668D01*
X141999Y42639D01*
X142089Y42615D01*
X142181Y42593D01*
X142273Y42576D01*
X142366Y42562D01*
X142459Y42553D01*
X142553Y42547D01*
X142647Y42545D01*
X145568Y42545D01*
X145568Y48387D01*
X145567Y48387D02*
X145565Y48474D01*
X145559Y48562D01*
X145549Y48648D01*
X145536Y48735D01*
X145518Y48820D01*
X145497Y48905D01*
X145472Y48989D01*
X145443Y49071D01*
X145410Y49152D01*
X145374Y49232D01*
X145335Y49310D01*
X145291Y49386D01*
X145245Y49460D01*
X145195Y49531D01*
X145142Y49601D01*
X145086Y49668D01*
X145027Y49732D01*
X144965Y49794D01*
X144901Y49853D01*
X144834Y49909D01*
X144764Y49962D01*
X144693Y50012D01*
X144619Y50058D01*
X144543Y50102D01*
X144465Y50141D01*
X144385Y50177D01*
X144304Y50210D01*
X144222Y50239D01*
X144138Y50264D01*
X144053Y50285D01*
X143968Y50303D01*
X143881Y50316D01*
X143795Y50326D01*
X143707Y50332D01*
X143620Y50334D01*
X141024Y50334D01*
X150870Y54229D02*
X150870Y44492D01*
X150872Y44405D01*
X150878Y44317D01*
X150888Y44231D01*
X150901Y44144D01*
X150919Y44059D01*
X150940Y43974D01*
X150965Y43890D01*
X150994Y43808D01*
X151027Y43727D01*
X151063Y43647D01*
X151102Y43569D01*
X151146Y43493D01*
X151192Y43419D01*
X151242Y43348D01*
X151295Y43278D01*
X151351Y43211D01*
X151410Y43147D01*
X151472Y43085D01*
X151536Y43026D01*
X151603Y42970D01*
X151673Y42917D01*
X151744Y42867D01*
X151818Y42821D01*
X151894Y42777D01*
X151972Y42738D01*
X152052Y42702D01*
X152133Y42669D01*
X152215Y42640D01*
X152299Y42615D01*
X152384Y42594D01*
X152469Y42576D01*
X152556Y42563D01*
X152642Y42553D01*
X152730Y42547D01*
X152817Y42545D01*
X156817Y45141D02*
X156817Y47738D01*
X156819Y47839D01*
X156825Y47939D01*
X156835Y48039D01*
X156848Y48139D01*
X156866Y48238D01*
X156887Y48337D01*
X156912Y48434D01*
X156941Y48531D01*
X156974Y48626D01*
X157010Y48720D01*
X157050Y48812D01*
X157093Y48903D01*
X157140Y48992D01*
X157190Y49079D01*
X157244Y49165D01*
X157301Y49248D01*
X157361Y49328D01*
X157424Y49407D01*
X157491Y49483D01*
X157560Y49556D01*
X157632Y49626D01*
X157706Y49694D01*
X157783Y49759D01*
X157863Y49820D01*
X157945Y49879D01*
X158029Y49934D01*
X158115Y49986D01*
X158203Y50035D01*
X158293Y50080D01*
X158385Y50122D01*
X158478Y50160D01*
X158573Y50194D01*
X158668Y50225D01*
X158765Y50252D01*
X158863Y50275D01*
X158962Y50295D01*
X159062Y50310D01*
X159162Y50322D01*
X159262Y50330D01*
X159363Y50334D01*
X159463Y50334D01*
X159564Y50330D01*
X159664Y50322D01*
X159764Y50310D01*
X159864Y50295D01*
X159963Y50275D01*
X160061Y50252D01*
X160158Y50225D01*
X160253Y50194D01*
X160348Y50160D01*
X160441Y50122D01*
X160533Y50080D01*
X160623Y50035D01*
X160711Y49986D01*
X160797Y49934D01*
X160881Y49879D01*
X160963Y49820D01*
X161043Y49759D01*
X161120Y49694D01*
X161194Y49626D01*
X161266Y49556D01*
X161335Y49483D01*
X161402Y49407D01*
X161465Y49328D01*
X161525Y49248D01*
X161582Y49165D01*
X161636Y49079D01*
X161686Y48992D01*
X161733Y48903D01*
X161776Y48812D01*
X161816Y48720D01*
X161852Y48626D01*
X161885Y48531D01*
X161914Y48434D01*
X161939Y48337D01*
X161960Y48238D01*
X161978Y48139D01*
X161991Y48039D01*
X162001Y47939D01*
X162007Y47839D01*
X162009Y47738D01*
X162009Y45141D01*
X162007Y45040D01*
X162001Y44940D01*
X161991Y44840D01*
X161978Y44740D01*
X161960Y44641D01*
X161939Y44542D01*
X161914Y44445D01*
X161885Y44348D01*
X161852Y44253D01*
X161816Y44159D01*
X161776Y44067D01*
X161733Y43976D01*
X161686Y43887D01*
X161636Y43800D01*
X161582Y43714D01*
X161525Y43631D01*
X161465Y43551D01*
X161402Y43472D01*
X161335Y43396D01*
X161266Y43323D01*
X161194Y43253D01*
X161120Y43185D01*
X161043Y43120D01*
X160963Y43059D01*
X160881Y43000D01*
X160797Y42945D01*
X160711Y42893D01*
X160623Y42844D01*
X160533Y42799D01*
X160441Y42757D01*
X160348Y42719D01*
X160253Y42685D01*
X160158Y42654D01*
X160061Y42627D01*
X159963Y42604D01*
X159864Y42584D01*
X159764Y42569D01*
X159664Y42557D01*
X159564Y42549D01*
X159463Y42545D01*
X159363Y42545D01*
X159262Y42549D01*
X159162Y42557D01*
X159062Y42569D01*
X158962Y42584D01*
X158863Y42604D01*
X158765Y42627D01*
X158668Y42654D01*
X158573Y42685D01*
X158478Y42719D01*
X158385Y42757D01*
X158293Y42799D01*
X158203Y42844D01*
X158115Y42893D01*
X158029Y42945D01*
X157945Y43000D01*
X157863Y43059D01*
X157783Y43120D01*
X157706Y43185D01*
X157632Y43253D01*
X157560Y43323D01*
X157491Y43396D01*
X157424Y43472D01*
X157361Y43551D01*
X157301Y43631D01*
X157244Y43714D01*
X157190Y43800D01*
X157140Y43887D01*
X157093Y43976D01*
X157050Y44067D01*
X157010Y44159D01*
X156974Y44253D01*
X156941Y44348D01*
X156912Y44445D01*
X156887Y44542D01*
X156866Y44641D01*
X156848Y44740D01*
X156835Y44840D01*
X156825Y44940D01*
X156819Y45040D01*
X156817Y45141D01*
X168611Y42545D02*
X171857Y42545D01*
X168611Y42545D02*
X168524Y42547D01*
X168436Y42553D01*
X168350Y42563D01*
X168263Y42576D01*
X168178Y42594D01*
X168093Y42615D01*
X168009Y42640D01*
X167927Y42669D01*
X167846Y42702D01*
X167766Y42738D01*
X167688Y42777D01*
X167612Y42821D01*
X167538Y42867D01*
X167467Y42917D01*
X167397Y42970D01*
X167330Y43026D01*
X167266Y43085D01*
X167204Y43147D01*
X167145Y43211D01*
X167089Y43278D01*
X167036Y43348D01*
X166986Y43419D01*
X166940Y43493D01*
X166896Y43569D01*
X166857Y43647D01*
X166821Y43727D01*
X166788Y43808D01*
X166759Y43890D01*
X166734Y43974D01*
X166713Y44059D01*
X166695Y44144D01*
X166682Y44231D01*
X166672Y44317D01*
X166666Y44405D01*
X166664Y44492D01*
X166664Y48387D01*
X166666Y48474D01*
X166672Y48562D01*
X166682Y48648D01*
X166695Y48735D01*
X166713Y48820D01*
X166734Y48905D01*
X166759Y48989D01*
X166788Y49071D01*
X166821Y49152D01*
X166857Y49232D01*
X166896Y49310D01*
X166940Y49386D01*
X166986Y49460D01*
X167036Y49531D01*
X167089Y49601D01*
X167145Y49668D01*
X167204Y49732D01*
X167266Y49794D01*
X167330Y49853D01*
X167397Y49909D01*
X167467Y49962D01*
X167538Y50012D01*
X167612Y50058D01*
X167688Y50102D01*
X167766Y50141D01*
X167846Y50177D01*
X167927Y50210D01*
X168009Y50239D01*
X168093Y50264D01*
X168178Y50285D01*
X168263Y50303D01*
X168350Y50316D01*
X168436Y50326D01*
X168524Y50332D01*
X168611Y50334D01*
X171857Y50334D01*
X171857Y40598D01*
X171856Y40598D02*
X171854Y40511D01*
X171848Y40423D01*
X171838Y40337D01*
X171825Y40250D01*
X171807Y40165D01*
X171786Y40080D01*
X171761Y39996D01*
X171732Y39914D01*
X171699Y39833D01*
X171663Y39753D01*
X171624Y39675D01*
X171580Y39599D01*
X171534Y39525D01*
X171484Y39454D01*
X171431Y39384D01*
X171375Y39317D01*
X171316Y39253D01*
X171255Y39191D01*
X171190Y39132D01*
X171123Y39076D01*
X171053Y39023D01*
X170982Y38973D01*
X170908Y38927D01*
X170832Y38883D01*
X170754Y38844D01*
X170674Y38808D01*
X170593Y38775D01*
X170511Y38746D01*
X170427Y38721D01*
X170342Y38700D01*
X170257Y38682D01*
X170170Y38669D01*
X170084Y38659D01*
X169996Y38653D01*
X169909Y38651D01*
X169909Y38650D02*
X167313Y38650D01*
X183622Y42545D02*
X183622Y54229D01*
X188815Y54229D01*
X188815Y49036D02*
X183622Y49036D01*
X193459Y50334D02*
X193459Y42545D01*
X193459Y50334D02*
X197354Y50334D01*
X197354Y49036D01*
X201013Y47738D02*
X201013Y45141D01*
X201013Y47738D02*
X201015Y47839D01*
X201021Y47939D01*
X201031Y48039D01*
X201044Y48139D01*
X201062Y48238D01*
X201083Y48337D01*
X201108Y48434D01*
X201137Y48531D01*
X201170Y48626D01*
X201206Y48720D01*
X201246Y48812D01*
X201289Y48903D01*
X201336Y48992D01*
X201386Y49079D01*
X201440Y49165D01*
X201497Y49248D01*
X201557Y49328D01*
X201620Y49407D01*
X201687Y49483D01*
X201756Y49556D01*
X201828Y49626D01*
X201902Y49694D01*
X201979Y49759D01*
X202059Y49820D01*
X202141Y49879D01*
X202225Y49934D01*
X202311Y49986D01*
X202399Y50035D01*
X202489Y50080D01*
X202581Y50122D01*
X202674Y50160D01*
X202769Y50194D01*
X202864Y50225D01*
X202961Y50252D01*
X203059Y50275D01*
X203158Y50295D01*
X203258Y50310D01*
X203358Y50322D01*
X203458Y50330D01*
X203559Y50334D01*
X203659Y50334D01*
X203760Y50330D01*
X203860Y50322D01*
X203960Y50310D01*
X204060Y50295D01*
X204159Y50275D01*
X204257Y50252D01*
X204354Y50225D01*
X204449Y50194D01*
X204544Y50160D01*
X204637Y50122D01*
X204729Y50080D01*
X204819Y50035D01*
X204907Y49986D01*
X204993Y49934D01*
X205077Y49879D01*
X205159Y49820D01*
X205239Y49759D01*
X205316Y49694D01*
X205390Y49626D01*
X205462Y49556D01*
X205531Y49483D01*
X205598Y49407D01*
X205661Y49328D01*
X205721Y49248D01*
X205778Y49165D01*
X205832Y49079D01*
X205882Y48992D01*
X205929Y48903D01*
X205972Y48812D01*
X206012Y48720D01*
X206048Y48626D01*
X206081Y48531D01*
X206110Y48434D01*
X206135Y48337D01*
X206156Y48238D01*
X206174Y48139D01*
X206187Y48039D01*
X206197Y47939D01*
X206203Y47839D01*
X206205Y47738D01*
X206205Y45141D01*
X206203Y45040D01*
X206197Y44940D01*
X206187Y44840D01*
X206174Y44740D01*
X206156Y44641D01*
X206135Y44542D01*
X206110Y44445D01*
X206081Y44348D01*
X206048Y44253D01*
X206012Y44159D01*
X205972Y44067D01*
X205929Y43976D01*
X205882Y43887D01*
X205832Y43800D01*
X205778Y43714D01*
X205721Y43631D01*
X205661Y43551D01*
X205598Y43472D01*
X205531Y43396D01*
X205462Y43323D01*
X205390Y43253D01*
X205316Y43185D01*
X205239Y43120D01*
X205159Y43059D01*
X205077Y43000D01*
X204993Y42945D01*
X204907Y42893D01*
X204819Y42844D01*
X204729Y42799D01*
X204637Y42757D01*
X204544Y42719D01*
X204449Y42685D01*
X204354Y42654D01*
X204257Y42627D01*
X204159Y42604D01*
X204060Y42584D01*
X203960Y42569D01*
X203860Y42557D01*
X203760Y42549D01*
X203659Y42545D01*
X203559Y42545D01*
X203458Y42549D01*
X203358Y42557D01*
X203258Y42569D01*
X203158Y42584D01*
X203059Y42604D01*
X202961Y42627D01*
X202864Y42654D01*
X202769Y42685D01*
X202674Y42719D01*
X202581Y42757D01*
X202489Y42799D01*
X202399Y42844D01*
X202311Y42893D01*
X202225Y42945D01*
X202141Y43000D01*
X202059Y43059D01*
X201979Y43120D01*
X201902Y43185D01*
X201828Y43253D01*
X201756Y43323D01*
X201687Y43396D01*
X201620Y43472D01*
X201557Y43551D01*
X201497Y43631D01*
X201440Y43714D01*
X201386Y43800D01*
X201336Y43887D01*
X201289Y43976D01*
X201246Y44067D01*
X201206Y44159D01*
X201170Y44253D01*
X201137Y44348D01*
X201108Y44445D01*
X201083Y44542D01*
X201062Y44641D01*
X201044Y44740D01*
X201031Y44840D01*
X201021Y44940D01*
X201015Y45040D01*
X201013Y45141D01*
X211300Y42545D02*
X211300Y50334D01*
X214545Y50334D01*
X214632Y50332D01*
X214720Y50326D01*
X214806Y50316D01*
X214893Y50303D01*
X214978Y50285D01*
X215063Y50264D01*
X215147Y50239D01*
X215229Y50210D01*
X215310Y50177D01*
X215390Y50141D01*
X215468Y50102D01*
X215544Y50058D01*
X215618Y50012D01*
X215689Y49962D01*
X215759Y49909D01*
X215826Y49853D01*
X215890Y49794D01*
X215952Y49733D01*
X216011Y49668D01*
X216067Y49601D01*
X216120Y49531D01*
X216170Y49460D01*
X216216Y49386D01*
X216260Y49310D01*
X216299Y49232D01*
X216335Y49152D01*
X216368Y49071D01*
X216397Y48989D01*
X216422Y48905D01*
X216443Y48820D01*
X216461Y48735D01*
X216474Y48648D01*
X216484Y48562D01*
X216490Y48474D01*
X216492Y48387D01*
X216492Y42545D01*
X220619Y50334D02*
X224514Y50334D01*
X221917Y54229D02*
X221917Y44492D01*
X221918Y44492D02*
X221920Y44405D01*
X221926Y44317D01*
X221936Y44231D01*
X221949Y44144D01*
X221967Y44059D01*
X221988Y43974D01*
X222013Y43890D01*
X222042Y43808D01*
X222075Y43727D01*
X222111Y43647D01*
X222150Y43569D01*
X222194Y43493D01*
X222240Y43419D01*
X222290Y43348D01*
X222343Y43278D01*
X222399Y43211D01*
X222458Y43147D01*
X222520Y43085D01*
X222584Y43026D01*
X222651Y42970D01*
X222721Y42917D01*
X222792Y42867D01*
X222866Y42821D01*
X222942Y42777D01*
X223020Y42738D01*
X223100Y42702D01*
X223181Y42669D01*
X223263Y42640D01*
X223347Y42615D01*
X223432Y42594D01*
X223517Y42576D01*
X223604Y42563D01*
X223690Y42553D01*
X223778Y42547D01*
X223865Y42545D01*
X224514Y42545D01*
X229051Y47089D02*
X236841Y47089D01*
X242296Y42545D02*
X247489Y42545D01*
X242296Y42545D02*
X242296Y54229D01*
X247489Y54229D01*
X246191Y49036D02*
X242296Y49036D01*
X252067Y50334D02*
X252067Y42545D01*
X252067Y50334D02*
X255312Y50334D01*
X255399Y50332D01*
X255487Y50326D01*
X255573Y50316D01*
X255660Y50303D01*
X255745Y50285D01*
X255830Y50264D01*
X255914Y50239D01*
X255996Y50210D01*
X256077Y50177D01*
X256157Y50141D01*
X256235Y50102D01*
X256311Y50058D01*
X256385Y50012D01*
X256456Y49962D01*
X256526Y49909D01*
X256593Y49853D01*
X256657Y49794D01*
X256719Y49733D01*
X256778Y49668D01*
X256834Y49601D01*
X256887Y49531D01*
X256937Y49460D01*
X256983Y49386D01*
X257027Y49310D01*
X257066Y49232D01*
X257102Y49152D01*
X257135Y49071D01*
X257164Y48989D01*
X257189Y48905D01*
X257210Y48820D01*
X257228Y48735D01*
X257241Y48648D01*
X257251Y48562D01*
X257257Y48474D01*
X257259Y48387D01*
X257259Y42545D01*
X267487Y42545D02*
X267487Y54229D01*
X267487Y42545D02*
X264242Y42545D01*
X264155Y42547D01*
X264067Y42553D01*
X263981Y42563D01*
X263894Y42576D01*
X263809Y42594D01*
X263724Y42615D01*
X263640Y42640D01*
X263558Y42669D01*
X263477Y42702D01*
X263397Y42738D01*
X263319Y42777D01*
X263243Y42821D01*
X263169Y42867D01*
X263098Y42917D01*
X263028Y42970D01*
X262961Y43026D01*
X262897Y43085D01*
X262835Y43147D01*
X262776Y43211D01*
X262720Y43278D01*
X262667Y43348D01*
X262617Y43419D01*
X262571Y43493D01*
X262527Y43569D01*
X262488Y43647D01*
X262452Y43727D01*
X262419Y43808D01*
X262390Y43890D01*
X262365Y43974D01*
X262344Y44059D01*
X262326Y44144D01*
X262313Y44231D01*
X262303Y44317D01*
X262297Y44405D01*
X262295Y44492D01*
X262295Y48387D01*
X262297Y48474D01*
X262303Y48562D01*
X262313Y48648D01*
X262326Y48735D01*
X262344Y48820D01*
X262365Y48905D01*
X262390Y48989D01*
X262419Y49071D01*
X262452Y49152D01*
X262488Y49232D01*
X262527Y49310D01*
X262571Y49386D01*
X262617Y49460D01*
X262667Y49531D01*
X262720Y49601D01*
X262776Y49668D01*
X262835Y49732D01*
X262897Y49794D01*
X262961Y49853D01*
X263028Y49909D01*
X263098Y49962D01*
X263169Y50012D01*
X263243Y50058D01*
X263319Y50102D01*
X263397Y50141D01*
X263477Y50177D01*
X263558Y50210D01*
X263640Y50239D01*
X263724Y50264D01*
X263809Y50285D01*
X263894Y50303D01*
X263981Y50316D01*
X264067Y50326D01*
X264155Y50332D01*
X264242Y50334D01*
X267487Y50334D01*
X68311Y29337D02*
X68309Y29484D01*
X68303Y29631D01*
X68293Y29777D01*
X68280Y29923D01*
X68262Y30069D01*
X68241Y30215D01*
X68215Y30359D01*
X68186Y30503D01*
X68153Y30646D01*
X68117Y30789D01*
X68076Y30930D01*
X68032Y31070D01*
X67984Y31209D01*
X67932Y31346D01*
X67877Y31482D01*
X67818Y31617D01*
X67756Y31750D01*
X67690Y31881D01*
X67620Y32010D01*
X67547Y32138D01*
X67471Y32263D01*
X67391Y32387D01*
X67309Y32508D01*
X67223Y32627D01*
X67133Y32744D01*
X67041Y32858D01*
X66946Y32970D01*
X66848Y33079D01*
X66747Y33186D01*
X66643Y33290D01*
X66536Y33391D01*
X66427Y33489D01*
X66315Y33584D01*
X66201Y33676D01*
X66084Y33766D01*
X65965Y33852D01*
X65844Y33934D01*
X65720Y34014D01*
X65595Y34090D01*
X65467Y34163D01*
X65338Y34233D01*
X65207Y34299D01*
X65074Y34361D01*
X64939Y34420D01*
X64803Y34475D01*
X64666Y34527D01*
X64527Y34575D01*
X64387Y34619D01*
X64246Y34660D01*
X64103Y34696D01*
X63960Y34729D01*
X63816Y34758D01*
X63672Y34784D01*
X63526Y34805D01*
X63380Y34823D01*
X63234Y34836D01*
X63088Y34846D01*
X62941Y34852D01*
X62794Y34854D01*
X62647Y34852D01*
X62500Y34846D01*
X62354Y34836D01*
X62208Y34823D01*
X62062Y34805D01*
X61916Y34784D01*
X61772Y34758D01*
X61628Y34729D01*
X61485Y34696D01*
X61342Y34660D01*
X61201Y34619D01*
X61061Y34575D01*
X60922Y34527D01*
X60785Y34475D01*
X60649Y34420D01*
X60514Y34361D01*
X60381Y34299D01*
X60250Y34233D01*
X60121Y34163D01*
X59993Y34090D01*
X59868Y34014D01*
X59744Y33934D01*
X59623Y33852D01*
X59504Y33766D01*
X59387Y33676D01*
X59273Y33584D01*
X59161Y33489D01*
X59052Y33391D01*
X58945Y33290D01*
X58841Y33186D01*
X58740Y33079D01*
X58642Y32970D01*
X58547Y32858D01*
X58455Y32744D01*
X58365Y32627D01*
X58279Y32508D01*
X58197Y32387D01*
X58117Y32263D01*
X58041Y32138D01*
X57968Y32010D01*
X57898Y31881D01*
X57832Y31750D01*
X57770Y31617D01*
X57711Y31482D01*
X57656Y31346D01*
X57604Y31209D01*
X57556Y31070D01*
X57512Y30930D01*
X57471Y30789D01*
X57435Y30646D01*
X57402Y30503D01*
X57373Y30359D01*
X57347Y30215D01*
X57326Y30069D01*
X57308Y29923D01*
X57295Y29777D01*
X57285Y29631D01*
X57279Y29484D01*
X57277Y29337D01*
X57279Y29190D01*
X57285Y29043D01*
X57295Y28897D01*
X57308Y28751D01*
X57326Y28605D01*
X57347Y28459D01*
X57373Y28315D01*
X57402Y28171D01*
X57435Y28028D01*
X57471Y27885D01*
X57512Y27744D01*
X57556Y27604D01*
X57604Y27465D01*
X57656Y27328D01*
X57711Y27192D01*
X57770Y27057D01*
X57832Y26924D01*
X57898Y26793D01*
X57968Y26664D01*
X58041Y26536D01*
X58117Y26411D01*
X58197Y26287D01*
X58279Y26166D01*
X58365Y26047D01*
X58455Y25930D01*
X58547Y25816D01*
X58642Y25704D01*
X58740Y25595D01*
X58841Y25488D01*
X58945Y25384D01*
X59052Y25283D01*
X59161Y25185D01*
X59273Y25090D01*
X59387Y24998D01*
X59504Y24908D01*
X59623Y24822D01*
X59744Y24740D01*
X59868Y24660D01*
X59993Y24584D01*
X60121Y24511D01*
X60250Y24441D01*
X60381Y24375D01*
X60514Y24313D01*
X60649Y24254D01*
X60785Y24199D01*
X60922Y24147D01*
X61061Y24099D01*
X61201Y24055D01*
X61342Y24014D01*
X61485Y23978D01*
X61628Y23945D01*
X61772Y23916D01*
X61916Y23890D01*
X62062Y23869D01*
X62208Y23851D01*
X62354Y23838D01*
X62500Y23828D01*
X62647Y23822D01*
X62794Y23820D01*
X62941Y23822D01*
X63088Y23828D01*
X63234Y23838D01*
X63380Y23851D01*
X63526Y23869D01*
X63672Y23890D01*
X63816Y23916D01*
X63960Y23945D01*
X64103Y23978D01*
X64246Y24014D01*
X64387Y24055D01*
X64527Y24099D01*
X64666Y24147D01*
X64803Y24199D01*
X64939Y24254D01*
X65074Y24313D01*
X65207Y24375D01*
X65338Y24441D01*
X65467Y24511D01*
X65595Y24584D01*
X65720Y24660D01*
X65844Y24740D01*
X65965Y24822D01*
X66084Y24908D01*
X66201Y24998D01*
X66315Y25090D01*
X66427Y25185D01*
X66536Y25283D01*
X66643Y25384D01*
X66747Y25488D01*
X66848Y25595D01*
X66946Y25704D01*
X67041Y25816D01*
X67133Y25930D01*
X67223Y26047D01*
X67309Y26166D01*
X67391Y26287D01*
X67471Y26411D01*
X67547Y26536D01*
X67620Y26664D01*
X67690Y26793D01*
X67756Y26924D01*
X67818Y27057D01*
X67877Y27192D01*
X67932Y27328D01*
X67984Y27465D01*
X68032Y27604D01*
X68076Y27744D01*
X68117Y27885D01*
X68153Y28028D01*
X68186Y28171D01*
X68215Y28315D01*
X68241Y28459D01*
X68262Y28605D01*
X68280Y28751D01*
X68293Y28897D01*
X68303Y29043D01*
X68309Y29190D01*
X68311Y29337D01*
X64093Y26741D02*
X62470Y26741D01*
X62400Y26743D01*
X62330Y26749D01*
X62260Y26758D01*
X62191Y26771D01*
X62123Y26788D01*
X62056Y26809D01*
X61990Y26833D01*
X61925Y26861D01*
X61862Y26892D01*
X61801Y26927D01*
X61742Y26965D01*
X61684Y27006D01*
X61630Y27050D01*
X61577Y27097D01*
X61528Y27146D01*
X61481Y27199D01*
X61437Y27253D01*
X61396Y27311D01*
X61358Y27370D01*
X61323Y27431D01*
X61292Y27494D01*
X61264Y27559D01*
X61240Y27625D01*
X61219Y27692D01*
X61202Y27760D01*
X61189Y27829D01*
X61180Y27899D01*
X61174Y27969D01*
X61172Y28039D01*
X61172Y30635D01*
X61174Y30705D01*
X61180Y30775D01*
X61189Y30845D01*
X61202Y30914D01*
X61219Y30982D01*
X61240Y31049D01*
X61264Y31115D01*
X61292Y31180D01*
X61323Y31243D01*
X61358Y31304D01*
X61396Y31363D01*
X61437Y31421D01*
X61481Y31475D01*
X61528Y31528D01*
X61577Y31577D01*
X61630Y31624D01*
X61684Y31668D01*
X61742Y31709D01*
X61801Y31747D01*
X61862Y31782D01*
X61925Y31813D01*
X61990Y31841D01*
X62056Y31865D01*
X62123Y31886D01*
X62191Y31903D01*
X62260Y31916D01*
X62330Y31925D01*
X62400Y31931D01*
X62470Y31933D01*
X64093Y31933D01*
X82931Y35179D02*
X83038Y35177D01*
X83144Y35171D01*
X83250Y35161D01*
X83356Y35148D01*
X83462Y35130D01*
X83566Y35109D01*
X83670Y35084D01*
X83773Y35055D01*
X83874Y35023D01*
X83974Y34986D01*
X84073Y34946D01*
X84171Y34903D01*
X84267Y34856D01*
X84361Y34805D01*
X84453Y34751D01*
X84543Y34694D01*
X84631Y34634D01*
X84716Y34570D01*
X84799Y34503D01*
X84880Y34433D01*
X84958Y34361D01*
X85034Y34285D01*
X85106Y34207D01*
X85176Y34126D01*
X85243Y34043D01*
X85307Y33958D01*
X85367Y33870D01*
X85424Y33780D01*
X85478Y33688D01*
X85529Y33594D01*
X85576Y33498D01*
X85619Y33400D01*
X85659Y33301D01*
X85696Y33201D01*
X85728Y33100D01*
X85757Y32997D01*
X85782Y32893D01*
X85803Y32789D01*
X85821Y32683D01*
X85834Y32577D01*
X85844Y32471D01*
X85850Y32365D01*
X85852Y32258D01*
X82931Y35179D02*
X82810Y35177D01*
X82689Y35171D01*
X82569Y35161D01*
X82448Y35148D01*
X82329Y35130D01*
X82209Y35109D01*
X82091Y35084D01*
X81974Y35055D01*
X81857Y35022D01*
X81742Y34986D01*
X81628Y34945D01*
X81515Y34902D01*
X81403Y34854D01*
X81294Y34803D01*
X81186Y34748D01*
X81079Y34690D01*
X80975Y34629D01*
X80873Y34564D01*
X80773Y34496D01*
X80675Y34425D01*
X80579Y34351D01*
X80486Y34274D01*
X80396Y34193D01*
X80308Y34110D01*
X80223Y34024D01*
X80140Y33935D01*
X80061Y33844D01*
X79984Y33750D01*
X79911Y33654D01*
X79841Y33556D01*
X79774Y33455D01*
X79710Y33352D01*
X79650Y33247D01*
X79593Y33140D01*
X79539Y33032D01*
X79489Y32922D01*
X79443Y32810D01*
X79400Y32697D01*
X79361Y32582D01*
X84878Y29986D02*
X84957Y30063D01*
X85033Y30144D01*
X85106Y30227D01*
X85176Y30312D01*
X85243Y30400D01*
X85307Y30490D01*
X85367Y30582D01*
X85424Y30677D01*
X85478Y30773D01*
X85529Y30871D01*
X85576Y30971D01*
X85620Y31073D01*
X85660Y31176D01*
X85696Y31280D01*
X85728Y31386D01*
X85757Y31492D01*
X85782Y31600D01*
X85804Y31708D01*
X85821Y31818D01*
X85835Y31927D01*
X85844Y32037D01*
X85850Y32148D01*
X85852Y32258D01*
X84878Y29986D02*
X79361Y23495D01*
X85852Y23495D01*
X90791Y29337D02*
X90794Y29567D01*
X90802Y29797D01*
X90816Y30026D01*
X90835Y30255D01*
X90860Y30484D01*
X90890Y30711D01*
X90925Y30939D01*
X90966Y31165D01*
X91012Y31390D01*
X91064Y31614D01*
X91121Y31836D01*
X91183Y32058D01*
X91251Y32277D01*
X91324Y32495D01*
X91402Y32712D01*
X91485Y32926D01*
X91573Y33138D01*
X91666Y33348D01*
X91765Y33556D01*
X91764Y33556D02*
X91797Y33646D01*
X91833Y33735D01*
X91873Y33823D01*
X91917Y33908D01*
X91964Y33992D01*
X92014Y34074D01*
X92068Y34154D01*
X92124Y34231D01*
X92184Y34307D01*
X92247Y34380D01*
X92312Y34450D01*
X92381Y34518D01*
X92452Y34582D01*
X92525Y34644D01*
X92601Y34703D01*
X92679Y34759D01*
X92760Y34812D01*
X92842Y34861D01*
X92926Y34907D01*
X93013Y34950D01*
X93100Y34989D01*
X93190Y35025D01*
X93280Y35057D01*
X93372Y35085D01*
X93465Y35110D01*
X93559Y35131D01*
X93653Y35148D01*
X93748Y35162D01*
X93844Y35171D01*
X93940Y35177D01*
X94036Y35179D01*
X94132Y35177D01*
X94228Y35171D01*
X94324Y35162D01*
X94419Y35148D01*
X94513Y35131D01*
X94607Y35110D01*
X94700Y35085D01*
X94792Y35057D01*
X94882Y35025D01*
X94972Y34989D01*
X95059Y34950D01*
X95146Y34907D01*
X95230Y34861D01*
X95312Y34812D01*
X95393Y34759D01*
X95471Y34703D01*
X95547Y34644D01*
X95620Y34582D01*
X95691Y34518D01*
X95760Y34450D01*
X95825Y34380D01*
X95888Y34307D01*
X95948Y34231D01*
X96004Y34154D01*
X96058Y34074D01*
X96108Y33992D01*
X96155Y33908D01*
X96199Y33823D01*
X96239Y33735D01*
X96275Y33646D01*
X96308Y33556D01*
X96407Y33349D01*
X96500Y33139D01*
X96588Y32926D01*
X96671Y32712D01*
X96749Y32496D01*
X96822Y32278D01*
X96890Y32058D01*
X96952Y31837D01*
X97009Y31614D01*
X97061Y31390D01*
X97107Y31165D01*
X97148Y30939D01*
X97183Y30712D01*
X97213Y30484D01*
X97238Y30255D01*
X97257Y30026D01*
X97271Y29797D01*
X97279Y29567D01*
X97282Y29337D01*
X90791Y29337D02*
X90794Y29107D01*
X90802Y28877D01*
X90816Y28648D01*
X90835Y28419D01*
X90860Y28190D01*
X90890Y27962D01*
X90925Y27735D01*
X90966Y27509D01*
X91012Y27284D01*
X91064Y27060D01*
X91121Y26837D01*
X91183Y26616D01*
X91251Y26396D01*
X91324Y26178D01*
X91402Y25962D01*
X91485Y25748D01*
X91573Y25536D01*
X91666Y25325D01*
X91765Y25118D01*
X91764Y25118D02*
X91797Y25028D01*
X91833Y24939D01*
X91874Y24851D01*
X91917Y24766D01*
X91964Y24682D01*
X92014Y24600D01*
X92068Y24520D01*
X92124Y24443D01*
X92184Y24367D01*
X92247Y24294D01*
X92312Y24224D01*
X92381Y24156D01*
X92452Y24092D01*
X92525Y24030D01*
X92601Y23971D01*
X92679Y23915D01*
X92760Y23862D01*
X92842Y23813D01*
X92926Y23767D01*
X93013Y23724D01*
X93100Y23685D01*
X93190Y23649D01*
X93280Y23617D01*
X93372Y23589D01*
X93465Y23564D01*
X93559Y23543D01*
X93653Y23526D01*
X93748Y23512D01*
X93844Y23503D01*
X93940Y23497D01*
X94036Y23495D01*
X96308Y25118D02*
X96407Y25325D01*
X96500Y25536D01*
X96588Y25748D01*
X96671Y25962D01*
X96749Y26178D01*
X96822Y26396D01*
X96890Y26616D01*
X96952Y26837D01*
X97009Y27060D01*
X97061Y27284D01*
X97107Y27509D01*
X97148Y27735D01*
X97183Y27962D01*
X97213Y28190D01*
X97238Y28419D01*
X97257Y28648D01*
X97271Y28877D01*
X97279Y29107D01*
X97282Y29337D01*
X96308Y25118D02*
X96275Y25028D01*
X96239Y24939D01*
X96199Y24851D01*
X96155Y24766D01*
X96108Y24682D01*
X96058Y24600D01*
X96004Y24520D01*
X95948Y24443D01*
X95888Y24367D01*
X95825Y24294D01*
X95760Y24224D01*
X95691Y24156D01*
X95620Y24092D01*
X95547Y24030D01*
X95471Y23971D01*
X95393Y23915D01*
X95312Y23862D01*
X95230Y23813D01*
X95146Y23767D01*
X95059Y23724D01*
X94972Y23685D01*
X94882Y23649D01*
X94792Y23617D01*
X94700Y23589D01*
X94607Y23564D01*
X94513Y23543D01*
X94419Y23526D01*
X94324Y23512D01*
X94228Y23503D01*
X94132Y23497D01*
X94036Y23495D01*
X91440Y26091D02*
X96633Y32583D01*
X105791Y35179D02*
X105898Y35177D01*
X106004Y35171D01*
X106110Y35161D01*
X106216Y35148D01*
X106322Y35130D01*
X106426Y35109D01*
X106530Y35084D01*
X106633Y35055D01*
X106734Y35023D01*
X106834Y34986D01*
X106933Y34946D01*
X107031Y34903D01*
X107127Y34856D01*
X107221Y34805D01*
X107313Y34751D01*
X107403Y34694D01*
X107491Y34634D01*
X107576Y34570D01*
X107659Y34503D01*
X107740Y34433D01*
X107818Y34361D01*
X107894Y34285D01*
X107966Y34207D01*
X108036Y34126D01*
X108103Y34043D01*
X108167Y33958D01*
X108227Y33870D01*
X108284Y33780D01*
X108338Y33688D01*
X108389Y33594D01*
X108436Y33498D01*
X108479Y33400D01*
X108519Y33301D01*
X108556Y33201D01*
X108588Y33100D01*
X108617Y32997D01*
X108642Y32893D01*
X108663Y32789D01*
X108681Y32683D01*
X108694Y32577D01*
X108704Y32471D01*
X108710Y32365D01*
X108712Y32258D01*
X105791Y35179D02*
X105670Y35177D01*
X105549Y35171D01*
X105429Y35161D01*
X105308Y35148D01*
X105189Y35130D01*
X105069Y35109D01*
X104951Y35084D01*
X104834Y35055D01*
X104717Y35022D01*
X104602Y34986D01*
X104488Y34945D01*
X104375Y34902D01*
X104263Y34854D01*
X104154Y34803D01*
X104046Y34748D01*
X103939Y34690D01*
X103835Y34629D01*
X103733Y34564D01*
X103633Y34496D01*
X103535Y34425D01*
X103439Y34351D01*
X103346Y34274D01*
X103256Y34193D01*
X103168Y34110D01*
X103083Y34024D01*
X103000Y33935D01*
X102921Y33844D01*
X102844Y33750D01*
X102771Y33654D01*
X102701Y33556D01*
X102634Y33455D01*
X102570Y33352D01*
X102510Y33247D01*
X102453Y33140D01*
X102399Y33032D01*
X102349Y32922D01*
X102303Y32810D01*
X102260Y32697D01*
X102221Y32582D01*
X107738Y29986D02*
X107817Y30063D01*
X107893Y30144D01*
X107966Y30227D01*
X108036Y30312D01*
X108103Y30400D01*
X108167Y30490D01*
X108227Y30582D01*
X108284Y30677D01*
X108338Y30773D01*
X108389Y30871D01*
X108436Y30971D01*
X108480Y31073D01*
X108520Y31176D01*
X108556Y31280D01*
X108588Y31386D01*
X108617Y31492D01*
X108642Y31600D01*
X108664Y31708D01*
X108681Y31818D01*
X108695Y31927D01*
X108704Y32037D01*
X108710Y32148D01*
X108712Y32258D01*
X107738Y29986D02*
X102221Y23495D01*
X108712Y23495D01*
X113651Y32583D02*
X116896Y35179D01*
X116896Y23495D01*
X113651Y23495D02*
X120142Y23495D01*
D11*
X223266Y395351D03*
D12*
X223266Y395859D03*
D13*
X223266Y396367D03*
D14*
X237236Y396367D03*
D15*
X223520Y396875D03*
D14*
X237744Y396875D03*
D16*
X219964Y397383D03*
D11*
X226822Y397383D03*
D14*
X237744Y397383D03*
D17*
X218948Y397891D03*
X227584Y397891D03*
D14*
X238252Y397891D03*
D18*
X218186Y398399D03*
X228346Y398399D03*
D14*
X238252Y398399D03*
X217932Y398907D03*
D18*
X228854Y398907D03*
D14*
X238252Y398907D03*
X217424Y399415D03*
X229108Y399415D03*
X238760Y399415D03*
X229108Y399923D03*
X238760Y399923D03*
X229616Y400431D03*
X239268Y400431D03*
X73152Y400939D03*
D17*
X117348Y400939D03*
X134620Y400939D03*
D14*
X183388Y400939D03*
X205740Y400939D03*
D19*
X223012Y400939D03*
D14*
X229616Y400939D03*
X239268Y400939D03*
D20*
X73152Y401447D03*
D14*
X85344Y401447D03*
D18*
X104902Y401447D03*
D20*
X117348Y401447D03*
D21*
X134366Y401447D03*
D18*
X145542Y401447D03*
D14*
X155956Y401447D03*
X161544Y401447D03*
X172212Y401447D03*
D20*
X183388Y401447D03*
D14*
X194564Y401447D03*
D22*
X205994Y401447D03*
D23*
X223012Y401447D03*
D14*
X229616Y401447D03*
D18*
X239522Y401447D03*
D24*
X73152Y401955D03*
D14*
X85344Y401955D03*
D18*
X104902Y401955D03*
D24*
X117348Y401955D03*
X134620Y401955D03*
D14*
X145796Y401955D03*
X155956Y401955D03*
X161544Y401955D03*
X172212Y401955D03*
D24*
X183388Y401955D03*
D14*
X194564Y401955D03*
D12*
X205994Y401955D03*
X222758Y401955D03*
D25*
X229870Y401955D03*
D18*
X239522Y401955D03*
D26*
X73152Y402463D03*
D14*
X85344Y402463D03*
D18*
X104902Y402463D03*
D27*
X117094Y402463D03*
X134366Y402463D03*
D14*
X145796Y402463D03*
X155956Y402463D03*
X161544Y402463D03*
X172212Y402463D03*
D26*
X183388Y402463D03*
D14*
X194564Y402463D03*
D26*
X205740Y402463D03*
D13*
X222758Y402463D03*
D25*
X229870Y402463D03*
D18*
X239522Y402463D03*
D15*
X73152Y402971D03*
D14*
X85344Y402971D03*
D18*
X104902Y402971D03*
D28*
X117094Y402971D03*
X134366Y402971D03*
D14*
X145796Y402971D03*
X155956Y402971D03*
X161544Y402971D03*
X172212Y402971D03*
D15*
X183388Y402971D03*
D14*
X194564Y402971D03*
D15*
X205740Y402971D03*
D29*
X224536Y402971D03*
D30*
X239522Y402971D03*
D16*
X69596Y403479D03*
D30*
X76962Y403479D03*
D14*
X85344Y403479D03*
D18*
X104902Y403479D03*
D23*
X113792Y403479D03*
D11*
X120650Y403479D03*
X130810Y403479D03*
X137922Y403479D03*
D14*
X145796Y403479D03*
X155956Y403479D03*
X161544Y403479D03*
X172212Y403479D03*
D30*
X179578Y403479D03*
X187198Y403479D03*
D14*
X194564Y403479D03*
D30*
X201930Y403479D03*
X209550Y403479D03*
D16*
X219456Y403479D03*
D20*
X228092Y403479D03*
D30*
X239522Y403479D03*
D17*
X68580Y403987D03*
X77724Y403987D03*
D14*
X85344Y403987D03*
D18*
X104902Y403987D03*
D30*
X113030Y403987D03*
X121666Y403987D03*
X129794Y403987D03*
X138938Y403987D03*
D14*
X145796Y403987D03*
X155956Y403987D03*
X161544Y403987D03*
X172212Y403987D03*
D17*
X178816Y403987D03*
X187960Y403987D03*
D14*
X194564Y403987D03*
D17*
X201168Y403987D03*
X210312Y403987D03*
X218440Y403987D03*
D23*
X228600Y403987D03*
D11*
X239522Y403987D03*
D17*
X68072Y404495D03*
X78232Y404495D03*
D14*
X85344Y404495D03*
D18*
X104902Y404495D03*
D17*
X112268Y404495D03*
X122428Y404495D03*
X129540Y404495D03*
X139700Y404495D03*
D18*
X145542Y404495D03*
D14*
X155956Y404495D03*
X161544Y404495D03*
X172212Y404495D03*
D18*
X178562Y404495D03*
D17*
X188468Y404495D03*
D14*
X194564Y404495D03*
D18*
X200914Y404495D03*
D17*
X210820Y404495D03*
X217932Y404495D03*
D16*
X229108Y404495D03*
D11*
X239522Y404495D03*
D18*
X67818Y405003D03*
X78486Y405003D03*
D14*
X85344Y405003D03*
D18*
X104902Y405003D03*
D17*
X111760Y405003D03*
D18*
X122682Y405003D03*
D17*
X129032Y405003D03*
D18*
X139954Y405003D03*
D14*
X145796Y405003D03*
X155956Y405003D03*
X161544Y405003D03*
X172212Y405003D03*
D18*
X178054Y405003D03*
X188722Y405003D03*
D14*
X194564Y405003D03*
D18*
X200406Y405003D03*
D14*
X211328Y405003D03*
D18*
X217678Y405003D03*
D30*
X229362Y405003D03*
D11*
X239522Y405003D03*
D18*
X67310Y405511D03*
X78994Y405511D03*
D14*
X85344Y405511D03*
D18*
X104902Y405511D03*
X111506Y405511D03*
X123190Y405511D03*
X128778Y405511D03*
D17*
X140208Y405511D03*
D18*
X145542Y405511D03*
D14*
X155956Y405511D03*
X161544Y405511D03*
X172212Y405511D03*
D18*
X177546Y405511D03*
X189230Y405511D03*
D14*
X194564Y405511D03*
D18*
X199898Y405511D03*
X211582Y405511D03*
X217170Y405511D03*
D17*
X229616Y405511D03*
D14*
X237744Y405511D03*
X241300Y405511D03*
X67056Y406019D03*
X79248Y406019D03*
X85344Y406019D03*
D18*
X104902Y406019D03*
D14*
X111252Y406019D03*
D18*
X128270Y406019D03*
X140462Y406019D03*
D14*
X145796Y406019D03*
X155956Y406019D03*
X161544Y406019D03*
X172212Y406019D03*
X177292Y406019D03*
X189484Y406019D03*
X194564Y406019D03*
X199644Y406019D03*
X211836Y406019D03*
X216916Y406019D03*
D17*
X229616Y406019D03*
D14*
X237744Y406019D03*
X241300Y406019D03*
X67056Y406527D03*
X79248Y406527D03*
X85344Y406527D03*
D18*
X104902Y406527D03*
X110998Y406527D03*
X128270Y406527D03*
X145542Y406527D03*
D14*
X155956Y406527D03*
X161544Y406527D03*
X172212Y406527D03*
X177292Y406527D03*
X189484Y406527D03*
X194564Y406527D03*
X199644Y406527D03*
D18*
X212090Y406527D03*
X216662Y406527D03*
X229870Y406527D03*
D14*
X237744Y406527D03*
X241808Y406527D03*
D18*
X66802Y407035D03*
D14*
X79756Y407035D03*
X85344Y407035D03*
D18*
X104902Y407035D03*
X110998Y407035D03*
D14*
X128016Y407035D03*
X145796Y407035D03*
X155956Y407035D03*
X161544Y407035D03*
X172212Y407035D03*
X176784Y407035D03*
X189992Y407035D03*
X194564Y407035D03*
D18*
X199390Y407035D03*
D14*
X212344Y407035D03*
D18*
X216662Y407035D03*
X229870Y407035D03*
D14*
X237236Y407035D03*
X241808Y407035D03*
X66548Y407543D03*
X79756Y407543D03*
X85344Y407543D03*
D18*
X104902Y407543D03*
D14*
X110744Y407543D03*
X128016Y407543D03*
X145796Y407543D03*
X155956Y407543D03*
X161544Y407543D03*
X172212Y407543D03*
X176784Y407543D03*
X189992Y407543D03*
X194564Y407543D03*
X199136Y407543D03*
X212344Y407543D03*
X216408Y407543D03*
X230124Y407543D03*
X237236Y407543D03*
X241808Y407543D03*
X66548Y408051D03*
X79756Y408051D03*
X85344Y408051D03*
D18*
X104902Y408051D03*
D16*
X111760Y408051D03*
D31*
X118364Y408051D03*
D19*
X123444Y408051D03*
D32*
X124968Y408051D03*
D18*
X127762Y408051D03*
X145542Y408051D03*
D14*
X155956Y408051D03*
X161544Y408051D03*
X172212Y408051D03*
X176784Y408051D03*
X189992Y408051D03*
X194564Y408051D03*
X199136Y408051D03*
X212344Y408051D03*
X216408Y408051D03*
X230124Y408051D03*
D18*
X236982Y408051D03*
D14*
X242316Y408051D03*
X66548Y408559D03*
X79756Y408559D03*
X85344Y408559D03*
D18*
X104902Y408559D03*
D33*
X117094Y408559D03*
D18*
X127762Y408559D03*
X145542Y408559D03*
D14*
X155956Y408559D03*
X161544Y408559D03*
X172212Y408559D03*
X176784Y408559D03*
X189992Y408559D03*
X194564Y408559D03*
X199136Y408559D03*
X212344Y408559D03*
X216408Y408559D03*
X230124Y408559D03*
X236728Y408559D03*
X242316Y408559D03*
X66548Y409067D03*
X79756Y409067D03*
X85344Y409067D03*
D18*
X104902Y409067D03*
D33*
X117094Y409067D03*
D18*
X127762Y409067D03*
D14*
X145796Y409067D03*
X155956Y409067D03*
X161544Y409067D03*
X172212Y409067D03*
X176784Y409067D03*
X189992Y409067D03*
X194564Y409067D03*
X199136Y409067D03*
X212344Y409067D03*
X216408Y409067D03*
X230124Y409067D03*
X236728Y409067D03*
X242824Y409067D03*
X66548Y409575D03*
X79756Y409575D03*
X85344Y409575D03*
D18*
X104902Y409575D03*
D33*
X117094Y409575D03*
D18*
X127762Y409575D03*
X145542Y409575D03*
D14*
X155956Y409575D03*
X161544Y409575D03*
X172212Y409575D03*
X176784Y409575D03*
X189992Y409575D03*
X194564Y409575D03*
X199136Y409575D03*
X212344Y409575D03*
X216408Y409575D03*
X230124Y409575D03*
D18*
X236474Y409575D03*
D14*
X242824Y409575D03*
X66548Y410083D03*
X79756Y410083D03*
X85344Y410083D03*
D18*
X104902Y410083D03*
D34*
X117348Y410083D03*
D18*
X127762Y410083D03*
X145542Y410083D03*
D14*
X155956Y410083D03*
X161544Y410083D03*
X172212Y410083D03*
X176784Y410083D03*
X189992Y410083D03*
X194564Y410083D03*
X199136Y410083D03*
X212344Y410083D03*
X216408Y410083D03*
X230124Y410083D03*
X236220Y410083D03*
X242824Y410083D03*
X66548Y410591D03*
X79756Y410591D03*
X85344Y410591D03*
D18*
X104902Y410591D03*
D14*
X110744Y410591D03*
D18*
X123698Y410591D03*
D14*
X128016Y410591D03*
X145796Y410591D03*
X155956Y410591D03*
X161544Y410591D03*
X172212Y410591D03*
X176784Y410591D03*
X189992Y410591D03*
X194564Y410591D03*
X199136Y410591D03*
X212344Y410591D03*
X216408Y410591D03*
X230124Y410591D03*
X236220Y410591D03*
X243332Y410591D03*
D18*
X66802Y411099D03*
D14*
X79756Y411099D03*
X85344Y411099D03*
D18*
X104902Y411099D03*
X110998Y411099D03*
X123698Y411099D03*
D14*
X128016Y411099D03*
X145796Y411099D03*
X155956Y411099D03*
X161544Y411099D03*
X172212Y411099D03*
X176784Y411099D03*
X189992Y411099D03*
X194564Y411099D03*
D18*
X199390Y411099D03*
D14*
X212344Y411099D03*
D18*
X216662Y411099D03*
X229870Y411099D03*
D14*
X235712Y411099D03*
X243332Y411099D03*
X67056Y411607D03*
D18*
X79502Y411607D03*
D14*
X85344Y411607D03*
D18*
X104902Y411607D03*
X110998Y411607D03*
X123698Y411607D03*
X128270Y411607D03*
D14*
X145796Y411607D03*
X155956Y411607D03*
X161544Y411607D03*
X172212Y411607D03*
X177292Y411607D03*
D18*
X189738Y411607D03*
D14*
X194564Y411607D03*
X199644Y411607D03*
D18*
X212090Y411607D03*
X216662Y411607D03*
X229870Y411607D03*
D14*
X235712Y411607D03*
X243840Y411607D03*
X67056Y412115D03*
X79248Y412115D03*
X85344Y412115D03*
D18*
X104902Y412115D03*
X110998Y412115D03*
X123190Y412115D03*
X128270Y412115D03*
X140462Y412115D03*
X146050Y412115D03*
X155702Y412115D03*
X161798Y412115D03*
X171958Y412115D03*
D14*
X177292Y412115D03*
X189484Y412115D03*
X194564Y412115D03*
D18*
X199898Y412115D03*
D14*
X211836Y412115D03*
X216916Y412115D03*
D17*
X229616Y412115D03*
D14*
X235712Y412115D03*
X243840Y412115D03*
D18*
X67310Y412623D03*
X78994Y412623D03*
D14*
X85344Y412623D03*
D18*
X104902Y412623D03*
X111506Y412623D03*
X123190Y412623D03*
X128778Y412623D03*
D17*
X140208Y412623D03*
X145796Y412623D03*
D18*
X155702Y412623D03*
X161798Y412623D03*
D14*
X171704Y412623D03*
D18*
X177546Y412623D03*
X189230Y412623D03*
D14*
X194564Y412623D03*
D18*
X199898Y412623D03*
X211582Y412623D03*
X217170Y412623D03*
D30*
X229362Y412623D03*
D14*
X235204Y412623D03*
X243840Y412623D03*
D18*
X67818Y413131D03*
X78486Y413131D03*
D14*
X85344Y413131D03*
D18*
X104902Y413131D03*
D17*
X111760Y413131D03*
D18*
X122682Y413131D03*
D17*
X129032Y413131D03*
X139700Y413131D03*
X146304Y413131D03*
X155448Y413131D03*
X162052Y413131D03*
D14*
X171704Y413131D03*
D18*
X178054Y413131D03*
X188722Y413131D03*
D14*
X194564Y413131D03*
D18*
X200406Y413131D03*
X211074Y413131D03*
X217678Y413131D03*
D30*
X229362Y413131D03*
D14*
X235204Y413131D03*
X244348Y413131D03*
D18*
X68326Y413639D03*
D17*
X78232Y413639D03*
D14*
X85344Y413639D03*
D18*
X104902Y413639D03*
D17*
X112268Y413639D03*
X122428Y413639D03*
X129540Y413639D03*
D30*
X139446Y413639D03*
X146558Y413639D03*
D18*
X155194Y413639D03*
D30*
X162306Y413639D03*
D18*
X171450Y413639D03*
X178562Y413639D03*
D17*
X188468Y413639D03*
D14*
X194564Y413639D03*
D18*
X200914Y413639D03*
D17*
X210820Y413639D03*
X217932Y413639D03*
D11*
X228854Y413639D03*
D18*
X234950Y413639D03*
D14*
X244348Y413639D03*
D17*
X68580Y414147D03*
X77724Y414147D03*
D14*
X85344Y414147D03*
D18*
X104902Y414147D03*
D30*
X113030Y414147D03*
X121666Y414147D03*
X130302Y414147D03*
X138938Y414147D03*
D16*
X146812Y414147D03*
D30*
X154686Y414147D03*
D16*
X162560Y414147D03*
D18*
X170942Y414147D03*
D17*
X178816Y414147D03*
X187960Y414147D03*
D14*
X194564Y414147D03*
D17*
X201168Y414147D03*
X210312Y414147D03*
D30*
X218694Y414147D03*
D23*
X228600Y414147D03*
D14*
X234696Y414147D03*
D18*
X244602Y414147D03*
D16*
X69596Y414655D03*
X76708Y414655D03*
D32*
X82804Y414655D03*
D18*
X85090Y414655D03*
X104902Y414655D03*
D11*
X113538Y414655D03*
X120650Y414655D03*
D23*
X131064Y414655D03*
X137668Y414655D03*
D35*
X150368Y414655D03*
D22*
X163322Y414655D03*
D11*
X169926Y414655D03*
D16*
X179832Y414655D03*
X186944Y414655D03*
D14*
X194564Y414655D03*
D16*
X202184Y414655D03*
X209296Y414655D03*
D11*
X219710Y414655D03*
D21*
X227838Y414655D03*
D14*
X234696Y414655D03*
X244856Y414655D03*
D15*
X73152Y415163D03*
D21*
X85598Y415163D03*
D18*
X104902Y415163D03*
D28*
X117094Y415163D03*
X134366Y415163D03*
D35*
X150368Y415163D03*
X166116Y415163D03*
D15*
X183388Y415163D03*
D14*
X194564Y415163D03*
D15*
X205740Y415163D03*
X223012Y415163D03*
D14*
X230124Y415163D03*
D18*
X234442Y415163D03*
D14*
X244856Y415163D03*
D26*
X73152Y415671D03*
D21*
X85598Y415671D03*
D18*
X104902Y415671D03*
D26*
X117348Y415671D03*
X134620Y415671D03*
D14*
X145796Y415671D03*
D12*
X151638Y415671D03*
D14*
X161544Y415671D03*
D12*
X167386Y415671D03*
D26*
X183388Y415671D03*
D14*
X194564Y415671D03*
D26*
X205740Y415671D03*
D13*
X222758Y415671D03*
D14*
X230124Y415671D03*
X234188Y415671D03*
X245364Y415671D03*
D31*
X73152Y416179D03*
D21*
X85598Y416179D03*
D18*
X104902Y416179D03*
D24*
X117348Y416179D03*
X134620Y416179D03*
D14*
X145796Y416179D03*
D21*
X151638Y416179D03*
D14*
X161544Y416179D03*
D20*
X167640Y416179D03*
D31*
X183388Y416179D03*
D14*
X194564Y416179D03*
D12*
X205994Y416179D03*
D31*
X223012Y416179D03*
D14*
X230124Y416179D03*
X234188Y416179D03*
X245364Y416179D03*
D22*
X73406Y416687D03*
D21*
X85598Y416687D03*
D18*
X104902Y416687D03*
D20*
X117348Y416687D03*
X134620Y416687D03*
D14*
X145796Y416687D03*
D11*
X151638Y416687D03*
D14*
X161544Y416687D03*
D16*
X167132Y416687D03*
D23*
X183388Y416687D03*
D14*
X194564Y416687D03*
D22*
X205994Y416687D03*
D23*
X223012Y416687D03*
D14*
X230124Y416687D03*
X233680Y416687D03*
X245872Y416687D03*
X73152Y417195D03*
D25*
X85090Y417195D03*
D18*
X104902Y417195D03*
D17*
X117348Y417195D03*
X134620Y417195D03*
D14*
X145796Y417195D03*
X183388Y417195D03*
X194564Y417195D03*
X205740Y417195D03*
D25*
X85090Y417703D03*
D18*
X104902Y417703D03*
D14*
X145796Y417703D03*
X194564Y417703D03*
X85344Y418211D03*
D18*
X104902Y418211D03*
D14*
X145796Y418211D03*
X194564Y418211D03*
X85344Y418719D03*
D18*
X104902Y418719D03*
D14*
X145796Y418719D03*
X194564Y418719D03*
X85344Y419227D03*
D18*
X104902Y419227D03*
D14*
X145796Y419227D03*
X194564Y419227D03*
D18*
X86106Y419735D03*
D15*
X104648Y419735D03*
D14*
X145796Y419735D03*
X194564Y419735D03*
D16*
X86868Y420243D03*
D15*
X104648Y420243D03*
D14*
X145796Y420243D03*
X194564Y420243D03*
D30*
X87122Y420751D03*
D15*
X104648Y420751D03*
D14*
X145796Y420751D03*
X194564Y420751D03*
D17*
X87376Y421259D03*
D15*
X104648Y421259D03*
D14*
X145796Y421259D03*
X194564Y421259D03*
X87884Y421767D03*
D15*
X104648Y421767D03*
D14*
X145796Y421767D03*
X194564Y421767D03*
D19*
X71120Y430403D03*
D25*
X102870Y430403D03*
X120142Y430403D03*
D23*
X71120Y430911D03*
D14*
X80772Y430911D03*
D18*
X86106Y430911D03*
D14*
X91440Y430911D03*
D22*
X102870Y430911D03*
X120142Y430911D03*
D14*
X131572Y430911D03*
X142240Y430911D03*
D18*
X156210Y430911D03*
D25*
X161798Y430911D03*
X172974Y430911D03*
D30*
X180594Y430911D03*
D25*
X189738Y430911D03*
X196342Y430911D03*
X202438Y430911D03*
D30*
X213614Y430911D03*
D14*
X219456Y430911D03*
D25*
X226314Y430911D03*
D23*
X238252Y430911D03*
D21*
X70866Y431419D03*
D14*
X80772Y431419D03*
D18*
X86106Y431419D03*
D14*
X91440Y431419D03*
D24*
X103124Y431419D03*
D12*
X120142Y431419D03*
D14*
X131572Y431419D03*
X142240Y431419D03*
D18*
X156210Y431419D03*
D14*
X162052Y431419D03*
X172720Y431419D03*
D23*
X180848Y431419D03*
D14*
X189992Y431419D03*
X196088Y431419D03*
X202692Y431419D03*
D22*
X213614Y431419D03*
D14*
X219456Y431419D03*
X226060Y431419D03*
D31*
X238252Y431419D03*
D24*
X71120Y431927D03*
D14*
X80772Y431927D03*
D18*
X86106Y431927D03*
D14*
X91440Y431927D03*
D26*
X103124Y431927D03*
D13*
X120142Y431927D03*
D14*
X131572Y431927D03*
X142240Y431927D03*
D18*
X156210Y431927D03*
D14*
X162052Y431927D03*
X172720Y431927D03*
D21*
X180594Y431927D03*
D14*
X189992Y431927D03*
X196088Y431927D03*
X202692Y431927D03*
D31*
X213360Y431927D03*
D14*
X219456Y431927D03*
X226060Y431927D03*
D13*
X238506Y431927D03*
D26*
X71120Y432435D03*
D14*
X80772Y432435D03*
D18*
X86106Y432435D03*
D14*
X91440Y432435D03*
D15*
X103124Y432435D03*
D28*
X120142Y432435D03*
D14*
X131572Y432435D03*
X142240Y432435D03*
D18*
X156210Y432435D03*
D14*
X162052Y432435D03*
X172720Y432435D03*
D31*
X180848Y432435D03*
D14*
X189992Y432435D03*
X196088Y432435D03*
X202692Y432435D03*
D24*
X213360Y432435D03*
D14*
X219456Y432435D03*
X226060Y432435D03*
D15*
X238252Y432435D03*
D26*
X71120Y432943D03*
D14*
X80772Y432943D03*
D18*
X86106Y432943D03*
D14*
X91440Y432943D03*
D35*
X103124Y432943D03*
D36*
X120142Y432943D03*
D14*
X131572Y432943D03*
X142240Y432943D03*
D18*
X156210Y432943D03*
D14*
X162052Y432943D03*
X172720Y432943D03*
D17*
X178308Y432943D03*
X183388Y432943D03*
D14*
X189992Y432943D03*
X196088Y432943D03*
X202692Y432943D03*
D16*
X211328Y432943D03*
D20*
X217424Y432943D03*
D14*
X226060Y432943D03*
D35*
X238252Y432943D03*
D17*
X67564Y433451D03*
D30*
X74422Y433451D03*
D14*
X80772Y433451D03*
D18*
X86106Y433451D03*
D14*
X91440Y433451D03*
D30*
X98806Y433451D03*
D16*
X107188Y433451D03*
D30*
X116078Y433451D03*
X124206Y433451D03*
D14*
X131572Y433451D03*
X142240Y433451D03*
D18*
X156210Y433451D03*
D14*
X162052Y433451D03*
X172720Y433451D03*
X177800Y433451D03*
X183896Y433451D03*
X189992Y433451D03*
X196088Y433451D03*
X202692Y433451D03*
D17*
X210312Y433451D03*
D16*
X218440Y433451D03*
D14*
X226060Y433451D03*
D30*
X233934Y433451D03*
X242570Y433451D03*
D18*
X67310Y433959D03*
D17*
X75184Y433959D03*
D14*
X80772Y433959D03*
D18*
X86106Y433959D03*
D14*
X91440Y433959D03*
D17*
X98044Y433959D03*
X107696Y433959D03*
X115316Y433959D03*
X124968Y433959D03*
D14*
X131572Y433959D03*
X142240Y433959D03*
D18*
X156210Y433959D03*
D14*
X162052Y433959D03*
X172720Y433959D03*
X177292Y433959D03*
X184404Y433959D03*
X189992Y433959D03*
X196088Y433959D03*
X202692Y433959D03*
D18*
X210058Y433959D03*
D30*
X218694Y433959D03*
D14*
X226060Y433959D03*
D18*
X233426Y433959D03*
X243078Y433959D03*
X66802Y434467D03*
X75438Y434467D03*
D14*
X80772Y434467D03*
D18*
X86106Y434467D03*
D14*
X91440Y434467D03*
D18*
X97790Y434467D03*
D17*
X108204Y434467D03*
X114808Y434467D03*
X125476Y434467D03*
D14*
X131572Y434467D03*
X142240Y434467D03*
D18*
X156210Y434467D03*
D14*
X162052Y434467D03*
X172720Y434467D03*
X177292Y434467D03*
X184404Y434467D03*
X189992Y434467D03*
X196088Y434467D03*
X202692Y434467D03*
D18*
X209550Y434467D03*
D17*
X218948Y434467D03*
D14*
X226060Y434467D03*
D18*
X232918Y434467D03*
X243586Y434467D03*
D14*
X66548Y434975D03*
D18*
X75438Y434975D03*
D14*
X80772Y434975D03*
D18*
X86106Y434975D03*
D14*
X91440Y434975D03*
D18*
X97282Y434975D03*
X108458Y434975D03*
X114554Y434975D03*
X125730Y434975D03*
D14*
X131572Y434975D03*
X142240Y434975D03*
D18*
X156210Y434975D03*
D14*
X162052Y434975D03*
X172720Y434975D03*
D25*
X177038Y434975D03*
D14*
X184404Y434975D03*
X189992Y434975D03*
X196088Y434975D03*
X202692Y434975D03*
D18*
X209550Y434975D03*
X219202Y434975D03*
D14*
X226060Y434975D03*
D18*
X232410Y434975D03*
X244094Y434975D03*
D14*
X66548Y435483D03*
X75692Y435483D03*
X80772Y435483D03*
D18*
X86106Y435483D03*
D14*
X91440Y435483D03*
D18*
X97282Y435483D03*
X108966Y435483D03*
X114046Y435483D03*
X126238Y435483D03*
D14*
X131572Y435483D03*
X142240Y435483D03*
D18*
X156210Y435483D03*
D14*
X162052Y435483D03*
X172720Y435483D03*
D25*
X177038Y435483D03*
D14*
X184404Y435483D03*
X189992Y435483D03*
X196088Y435483D03*
X202692Y435483D03*
X209296Y435483D03*
D18*
X219202Y435483D03*
D14*
X226060Y435483D03*
D18*
X232410Y435483D03*
D14*
X244348Y435483D03*
X66548Y435991D03*
X75692Y435991D03*
X80772Y435991D03*
D18*
X86106Y435991D03*
D14*
X91440Y435991D03*
D18*
X96774Y435991D03*
D14*
X109220Y435991D03*
D18*
X114046Y435991D03*
X126238Y435991D03*
D14*
X131572Y435991D03*
X142240Y435991D03*
D18*
X156210Y435991D03*
D14*
X162052Y435991D03*
X172720Y435991D03*
X184404Y435991D03*
X189992Y435991D03*
X196088Y435991D03*
X202692Y435991D03*
X209296Y435991D03*
X219456Y435991D03*
X226060Y435991D03*
X232156Y435991D03*
X66548Y436499D03*
D18*
X75946Y436499D03*
D14*
X80772Y436499D03*
D18*
X86106Y436499D03*
D14*
X91440Y436499D03*
D18*
X96774Y436499D03*
D14*
X113792Y436499D03*
X126492Y436499D03*
X131572Y436499D03*
X142240Y436499D03*
D18*
X156210Y436499D03*
D14*
X162052Y436499D03*
X172720Y436499D03*
X184404Y436499D03*
X189992Y436499D03*
X196088Y436499D03*
X202692Y436499D03*
X209296Y436499D03*
X219456Y436499D03*
X226060Y436499D03*
D18*
X231902Y436499D03*
X75946Y437007D03*
D14*
X80772Y437007D03*
D18*
X86106Y437007D03*
D14*
X91440Y437007D03*
X96520Y437007D03*
D18*
X113538Y437007D03*
X126746Y437007D03*
D14*
X131572Y437007D03*
X142240Y437007D03*
D18*
X156210Y437007D03*
D14*
X162052Y437007D03*
X172720Y437007D03*
X183896Y437007D03*
X189992Y437007D03*
X196088Y437007D03*
X202692Y437007D03*
X209296Y437007D03*
X219456Y437007D03*
X226060Y437007D03*
X231648Y437007D03*
D18*
X75946Y437515D03*
D14*
X80772Y437515D03*
D18*
X86106Y437515D03*
D14*
X91440Y437515D03*
D18*
X96266Y437515D03*
X113538Y437515D03*
X126746Y437515D03*
D14*
X131572Y437515D03*
X142240Y437515D03*
D18*
X156210Y437515D03*
D14*
X162052Y437515D03*
X172720Y437515D03*
D17*
X183388Y437515D03*
D14*
X189992Y437515D03*
X196088Y437515D03*
X202692Y437515D03*
X208788Y437515D03*
X219456Y437515D03*
X226060Y437515D03*
X231648Y437515D03*
X75692Y438023D03*
X80772Y438023D03*
D18*
X86106Y438023D03*
D14*
X91440Y438023D03*
D18*
X96266Y438023D03*
X113538Y438023D03*
X126746Y438023D03*
D14*
X131572Y438023D03*
X142240Y438023D03*
D18*
X156210Y438023D03*
D14*
X162052Y438023D03*
X172720Y438023D03*
D16*
X182880Y438023D03*
D14*
X189992Y438023D03*
X196088Y438023D03*
X202692Y438023D03*
X208788Y438023D03*
X219456Y438023D03*
X226060Y438023D03*
D34*
X238252Y438023D03*
D18*
X75438Y438531D03*
D14*
X80772Y438531D03*
D18*
X86106Y438531D03*
D14*
X91440Y438531D03*
D18*
X96266Y438531D03*
X113538Y438531D03*
D14*
X127000Y438531D03*
X131572Y438531D03*
X142240Y438531D03*
D18*
X156210Y438531D03*
D14*
X162052Y438531D03*
X172720Y438531D03*
D23*
X181864Y438531D03*
D14*
X189992Y438531D03*
X196088Y438531D03*
X202692Y438531D03*
X208788Y438531D03*
X219456Y438531D03*
X226060Y438531D03*
D34*
X238252Y438531D03*
D18*
X75438Y439039D03*
D14*
X80772Y439039D03*
D18*
X86106Y439039D03*
D14*
X91440Y439039D03*
D18*
X96266Y439039D03*
X113538Y439039D03*
X126746Y439039D03*
D14*
X131572Y439039D03*
X142240Y439039D03*
D18*
X156210Y439039D03*
D14*
X162052Y439039D03*
X172720Y439039D03*
D23*
X180848Y439039D03*
D14*
X189992Y439039D03*
X196088Y439039D03*
X202692Y439039D03*
X208788Y439039D03*
X219456Y439039D03*
X226060Y439039D03*
D34*
X238252Y439039D03*
D30*
X74930Y439547D03*
D14*
X80772Y439547D03*
D18*
X86106Y439547D03*
D14*
X91440Y439547D03*
D18*
X96266Y439547D03*
X113538Y439547D03*
X126746Y439547D03*
D14*
X131572Y439547D03*
X142240Y439547D03*
D18*
X156210Y439547D03*
D14*
X162052Y439547D03*
X172720Y439547D03*
D23*
X180340Y439547D03*
D14*
X189992Y439547D03*
X196088Y439547D03*
X202692Y439547D03*
X208788Y439547D03*
X219456Y439547D03*
X226060Y439547D03*
D34*
X238252Y439547D03*
D30*
X74422Y440055D03*
D14*
X80772Y440055D03*
D18*
X86106Y440055D03*
D14*
X91440Y440055D03*
X96520Y440055D03*
D18*
X113538Y440055D03*
X126746Y440055D03*
D14*
X131572Y440055D03*
X142240Y440055D03*
D18*
X156210Y440055D03*
D14*
X162052Y440055D03*
X172720Y440055D03*
D16*
X179324Y440055D03*
D14*
X189992Y440055D03*
X196088Y440055D03*
X202692Y440055D03*
X208788Y440055D03*
X219456Y440055D03*
X226060Y440055D03*
D18*
X231902Y440055D03*
D14*
X244856Y440055D03*
D23*
X73660Y440563D03*
D14*
X80772Y440563D03*
D18*
X86106Y440563D03*
D14*
X91440Y440563D03*
X96520Y440563D03*
D18*
X113538Y440563D03*
X126746Y440563D03*
D14*
X131572Y440563D03*
X142240Y440563D03*
D18*
X156210Y440563D03*
D14*
X162052Y440563D03*
X172720Y440563D03*
D17*
X178816Y440563D03*
D14*
X189992Y440563D03*
X196088Y440563D03*
X202692Y440563D03*
X208788Y440563D03*
X219456Y440563D03*
X226060Y440563D03*
X231648Y440563D03*
X244856Y440563D03*
D20*
X72644Y441071D03*
D14*
X80772Y441071D03*
D18*
X86106Y441071D03*
D14*
X91440Y441071D03*
D18*
X96774Y441071D03*
D14*
X113792Y441071D03*
X126492Y441071D03*
D18*
X131826Y441071D03*
D14*
X142240Y441071D03*
D18*
X156210Y441071D03*
D14*
X162052Y441071D03*
X172720Y441071D03*
D18*
X178054Y441071D03*
D14*
X189992Y441071D03*
X196088Y441071D03*
X202692Y441071D03*
X208788Y441071D03*
X219456Y441071D03*
X226060Y441071D03*
D18*
X231902Y441071D03*
X244602Y441071D03*
D21*
X71882Y441579D03*
D14*
X80772Y441579D03*
D18*
X86106Y441579D03*
D14*
X91440Y441579D03*
D18*
X96774Y441579D03*
X108966Y441579D03*
X114046Y441579D03*
X126238Y441579D03*
X131826Y441579D03*
X141986Y441579D03*
X156210Y441579D03*
X162306Y441579D03*
D14*
X172720Y441579D03*
X177800Y441579D03*
X189992Y441579D03*
X196088Y441579D03*
X202692Y441579D03*
X208788Y441579D03*
X219456Y441579D03*
X226060Y441579D03*
X232156Y441579D03*
X244348Y441579D03*
D21*
X70866Y442087D03*
D14*
X80772Y442087D03*
D18*
X86106Y442087D03*
D14*
X91440Y442087D03*
D18*
X97282Y442087D03*
X108966Y442087D03*
D17*
X114300Y442087D03*
D18*
X126238Y442087D03*
X131826Y442087D03*
X141986Y442087D03*
X156210Y442087D03*
X162306Y442087D03*
X172466Y442087D03*
D14*
X177800Y442087D03*
X189992Y442087D03*
X196088Y442087D03*
X202692Y442087D03*
X208788Y442087D03*
X219456Y442087D03*
X226060Y442087D03*
D18*
X232410Y442087D03*
X244094Y442087D03*
D21*
X70358Y442595D03*
D14*
X80772Y442595D03*
D18*
X86106Y442595D03*
D14*
X91440Y442595D03*
D17*
X97536Y442595D03*
D18*
X108458Y442595D03*
X114554Y442595D03*
X125730Y442595D03*
D17*
X132080Y442595D03*
D18*
X141986Y442595D03*
X156210Y442595D03*
X162306Y442595D03*
D14*
X172212Y442595D03*
X177800Y442595D03*
X189992Y442595D03*
X196088Y442595D03*
X202692Y442595D03*
X208788Y442595D03*
X219456Y442595D03*
X226060Y442595D03*
D18*
X232918Y442595D03*
X244094Y442595D03*
D22*
X69342Y443103D03*
D14*
X80772Y443103D03*
D18*
X86106Y443103D03*
D14*
X91440Y443103D03*
D17*
X98044Y443103D03*
X108204Y443103D03*
D18*
X115062Y443103D03*
D17*
X125476Y443103D03*
D30*
X132334Y443103D03*
D18*
X141478Y443103D03*
X156210Y443103D03*
D17*
X162560Y443103D03*
D18*
X171958Y443103D03*
D14*
X177800Y443103D03*
D25*
X184150Y443103D03*
D14*
X189992Y443103D03*
X196088Y443103D03*
X202692Y443103D03*
X208788Y443103D03*
X219456Y443103D03*
X226060Y443103D03*
D17*
X233172Y443103D03*
D18*
X243586Y443103D03*
D30*
X68326Y443611D03*
D14*
X80772Y443611D03*
D18*
X86106Y443611D03*
D14*
X91440Y443611D03*
D30*
X98298Y443611D03*
X107442Y443611D03*
X115570Y443611D03*
X124714Y443611D03*
D16*
X132588Y443611D03*
D17*
X141224Y443611D03*
D18*
X156210Y443611D03*
D30*
X162814Y443611D03*
D18*
X171450Y443611D03*
D14*
X177800Y443611D03*
X183896Y443611D03*
X189992Y443611D03*
X196088Y443611D03*
X202692Y443611D03*
X208788Y443611D03*
X219456Y443611D03*
X226060Y443611D03*
D17*
X233680Y443611D03*
X242824Y443611D03*
X67564Y444119D03*
D14*
X80772Y444119D03*
D18*
X86106Y444119D03*
D14*
X91440Y444119D03*
D16*
X99060Y444119D03*
D11*
X106934Y444119D03*
D16*
X116332Y444119D03*
X123952Y444119D03*
D23*
X133096Y444119D03*
D16*
X140208Y444119D03*
D18*
X156210Y444119D03*
D11*
X163322Y444119D03*
D30*
X170942Y444119D03*
D14*
X178308Y444119D03*
D18*
X183642Y444119D03*
D14*
X189992Y444119D03*
X196088Y444119D03*
X202692Y444119D03*
X208788Y444119D03*
X219456Y444119D03*
X226060Y444119D03*
D30*
X234442Y444119D03*
D17*
X242316Y444119D03*
D18*
X67310Y444627D03*
D14*
X80772Y444627D03*
D18*
X86106Y444627D03*
D14*
X91440Y444627D03*
D35*
X103124Y444627D03*
D28*
X120142Y444627D03*
D36*
X136398Y444627D03*
D18*
X156210Y444627D03*
D35*
X166624Y444627D03*
D17*
X178816Y444627D03*
D30*
X183134Y444627D03*
D21*
X189738Y444627D03*
D14*
X196088Y444627D03*
D20*
X202692Y444627D03*
D14*
X208788Y444627D03*
X219456Y444627D03*
D20*
X226060Y444627D03*
D28*
X238506Y444627D03*
D18*
X67310Y445135D03*
D14*
X80772Y445135D03*
D18*
X86106Y445135D03*
D14*
X91440Y445135D03*
D15*
X103124Y445135D03*
D27*
X120142Y445135D03*
D14*
X131572Y445135D03*
D24*
X137668Y445135D03*
D18*
X156210Y445135D03*
D25*
X161798Y445135D03*
D12*
X167894Y445135D03*
D21*
X181102Y445135D03*
X189738Y445135D03*
D14*
X196088Y445135D03*
D20*
X202692Y445135D03*
D14*
X208788Y445135D03*
X219456Y445135D03*
D20*
X226060Y445135D03*
D26*
X238252Y445135D03*
D14*
X67056Y445643D03*
X80772Y445643D03*
D18*
X86106Y445643D03*
D14*
X91440Y445643D03*
D24*
X103124Y445643D03*
D13*
X120142Y445643D03*
D14*
X131572Y445643D03*
D31*
X137668Y445643D03*
D18*
X156210Y445643D03*
D14*
X162052Y445643D03*
D21*
X167894Y445643D03*
D22*
X181102Y445643D03*
D21*
X189738Y445643D03*
D14*
X196088Y445643D03*
D20*
X202692Y445643D03*
D14*
X208788Y445643D03*
X219456Y445643D03*
D20*
X226060Y445643D03*
D24*
X238252Y445643D03*
D14*
X67056Y446151D03*
X80772Y446151D03*
D18*
X86106Y446151D03*
D14*
X91440Y446151D03*
D31*
X103124Y446151D03*
D21*
X120142Y446151D03*
D14*
X131572Y446151D03*
D22*
X137414Y446151D03*
D18*
X156210Y446151D03*
D25*
X161798Y446151D03*
D11*
X167894Y446151D03*
X181102Y446151D03*
D21*
X189738Y446151D03*
D14*
X196088Y446151D03*
D20*
X202692Y446151D03*
D14*
X208788Y446151D03*
X219456Y446151D03*
D20*
X226060Y446151D03*
X238252Y446151D03*
D14*
X67056Y446659D03*
D25*
X75438Y446659D03*
D18*
X86106Y446659D03*
D16*
X103124Y446659D03*
D11*
X120142Y446659D03*
D18*
X137414Y446659D03*
X156210Y446659D03*
D37*
X167894Y446659D03*
D18*
X181102Y446659D03*
D14*
X189992Y446659D03*
X202692Y446659D03*
X226060Y446659D03*
D17*
X238252Y446659D03*
D14*
X67056Y447167D03*
D18*
X75438Y447167D03*
X86106Y447167D03*
X156210Y447167D03*
D14*
X189992Y447167D03*
X202692Y447167D03*
X226060Y447167D03*
D18*
X67310Y447675D03*
D14*
X75184Y447675D03*
D18*
X86106Y447675D03*
X156210Y447675D03*
D14*
X189992Y447675D03*
X202692Y447675D03*
X226060Y447675D03*
D18*
X67310Y448183D03*
X74930Y448183D03*
X86106Y448183D03*
X156210Y448183D03*
D14*
X189992Y448183D03*
X202692Y448183D03*
X226060Y448183D03*
D18*
X67818Y448691D03*
X74930Y448691D03*
D14*
X80772Y448691D03*
D18*
X86106Y448691D03*
D14*
X91440Y448691D03*
D18*
X156210Y448691D03*
D14*
X189992Y448691D03*
D25*
X196342Y448691D03*
D14*
X202692Y448691D03*
X226060Y448691D03*
D17*
X68072Y449199D03*
X74168Y449199D03*
D14*
X80772Y449199D03*
D18*
X86106Y449199D03*
D14*
X91440Y449199D03*
D18*
X156210Y449199D03*
D14*
X189992Y449199D03*
X196088Y449199D03*
X202692Y449199D03*
X226060Y449199D03*
D13*
X71374Y449707D03*
D14*
X80772Y449707D03*
D18*
X86106Y449707D03*
D14*
X91440Y449707D03*
D18*
X156210Y449707D03*
D14*
X189992Y449707D03*
X196088Y449707D03*
X202692Y449707D03*
X226060Y449707D03*
D24*
X71120Y450215D03*
D14*
X80772Y450215D03*
D18*
X86106Y450215D03*
D14*
X91440Y450215D03*
D18*
X156210Y450215D03*
D14*
X189992Y450215D03*
X196088Y450215D03*
X202692Y450215D03*
X226060Y450215D03*
D31*
X71120Y450723D03*
D14*
X80772Y450723D03*
D18*
X86106Y450723D03*
D14*
X91440Y450723D03*
D18*
X156210Y450723D03*
D14*
X189992Y450723D03*
X196088Y450723D03*
X202692Y450723D03*
X226060Y450723D03*
D22*
X71374Y451231D03*
D14*
X80772Y451231D03*
D18*
X86106Y451231D03*
D14*
X91440Y451231D03*
D18*
X156210Y451231D03*
D14*
X189992Y451231D03*
X196088Y451231D03*
X202692Y451231D03*
X226060Y451231D03*
D30*
X71374Y451739D03*
D38*
X105015Y215646D02*
X105015Y210058D01*
X104394Y210058D02*
X105636Y210058D01*
X105636Y215646D02*
X104394Y215646D01*
X108035Y215646D02*
X108035Y210058D01*
X111139Y210058D02*
X108035Y215646D01*
X111139Y215646D02*
X111139Y210058D01*
X113393Y210058D02*
X115256Y215646D01*
X117119Y210058D01*
X116653Y211455D02*
X113859Y211455D01*
X122117Y211610D02*
X122119Y211687D01*
X122125Y211765D01*
X122134Y211841D01*
X122148Y211918D01*
X122165Y211993D01*
X122186Y212067D01*
X122211Y212141D01*
X122239Y212213D01*
X122271Y212283D01*
X122306Y212352D01*
X122345Y212419D01*
X122387Y212484D01*
X122432Y212547D01*
X122480Y212608D01*
X122531Y212666D01*
X122585Y212721D01*
X122642Y212774D01*
X122701Y212823D01*
X122763Y212870D01*
X122827Y212914D01*
X122893Y212954D01*
X122961Y212991D01*
X123031Y213025D01*
X123102Y213055D01*
X123175Y213081D01*
X123249Y213104D01*
X123324Y213123D01*
X123399Y213138D01*
X123476Y213150D01*
X123553Y213158D01*
X123630Y213162D01*
X123708Y213162D01*
X123785Y213158D01*
X123862Y213150D01*
X123939Y213138D01*
X124014Y213123D01*
X124089Y213104D01*
X124163Y213081D01*
X124236Y213055D01*
X124307Y213025D01*
X124377Y212991D01*
X124445Y212954D01*
X124511Y212914D01*
X124575Y212870D01*
X124637Y212823D01*
X124696Y212774D01*
X124753Y212721D01*
X124807Y212666D01*
X124858Y212608D01*
X124906Y212547D01*
X124951Y212484D01*
X124993Y212419D01*
X125032Y212352D01*
X125067Y212283D01*
X125099Y212213D01*
X125127Y212141D01*
X125152Y212067D01*
X125173Y211993D01*
X125190Y211918D01*
X125204Y211841D01*
X125213Y211765D01*
X125219Y211687D01*
X125221Y211610D01*
X125219Y211533D01*
X125213Y211455D01*
X125204Y211379D01*
X125190Y211302D01*
X125173Y211227D01*
X125152Y211153D01*
X125127Y211079D01*
X125099Y211007D01*
X125067Y210937D01*
X125032Y210868D01*
X124993Y210801D01*
X124951Y210736D01*
X124906Y210673D01*
X124858Y210612D01*
X124807Y210554D01*
X124753Y210499D01*
X124696Y210446D01*
X124637Y210397D01*
X124575Y210350D01*
X124511Y210306D01*
X124445Y210266D01*
X124377Y210229D01*
X124307Y210195D01*
X124236Y210165D01*
X124163Y210139D01*
X124089Y210116D01*
X124014Y210097D01*
X123939Y210082D01*
X123862Y210070D01*
X123785Y210062D01*
X123708Y210058D01*
X123630Y210058D01*
X123553Y210062D01*
X123476Y210070D01*
X123399Y210082D01*
X123324Y210097D01*
X123249Y210116D01*
X123175Y210139D01*
X123102Y210165D01*
X123031Y210195D01*
X122961Y210229D01*
X122893Y210266D01*
X122827Y210306D01*
X122763Y210350D01*
X122701Y210397D01*
X122642Y210446D01*
X122585Y210499D01*
X122531Y210554D01*
X122480Y210612D01*
X122432Y210673D01*
X122387Y210736D01*
X122345Y210801D01*
X122306Y210868D01*
X122271Y210937D01*
X122239Y211007D01*
X122211Y211079D01*
X122186Y211153D01*
X122165Y211227D01*
X122148Y211302D01*
X122134Y211379D01*
X122125Y211455D01*
X122119Y211533D01*
X122117Y211610D01*
X122427Y214404D02*
X122429Y214474D01*
X122435Y214543D01*
X122445Y214612D01*
X122458Y214680D01*
X122476Y214748D01*
X122497Y214814D01*
X122522Y214879D01*
X122550Y214943D01*
X122582Y215005D01*
X122617Y215065D01*
X122656Y215123D01*
X122698Y215178D01*
X122743Y215232D01*
X122791Y215282D01*
X122841Y215330D01*
X122895Y215375D01*
X122950Y215417D01*
X123008Y215456D01*
X123068Y215491D01*
X123130Y215523D01*
X123194Y215551D01*
X123259Y215576D01*
X123325Y215597D01*
X123393Y215615D01*
X123461Y215628D01*
X123530Y215638D01*
X123599Y215644D01*
X123669Y215646D01*
X123739Y215644D01*
X123808Y215638D01*
X123877Y215628D01*
X123945Y215615D01*
X124013Y215597D01*
X124079Y215576D01*
X124144Y215551D01*
X124208Y215523D01*
X124270Y215491D01*
X124330Y215456D01*
X124388Y215417D01*
X124443Y215375D01*
X124497Y215330D01*
X124547Y215282D01*
X124595Y215232D01*
X124640Y215178D01*
X124682Y215123D01*
X124721Y215065D01*
X124756Y215005D01*
X124788Y214943D01*
X124816Y214879D01*
X124841Y214814D01*
X124862Y214748D01*
X124880Y214680D01*
X124893Y214612D01*
X124903Y214543D01*
X124909Y214474D01*
X124911Y214404D01*
X124909Y214334D01*
X124903Y214265D01*
X124893Y214196D01*
X124880Y214128D01*
X124862Y214060D01*
X124841Y213994D01*
X124816Y213929D01*
X124788Y213865D01*
X124756Y213803D01*
X124721Y213743D01*
X124682Y213685D01*
X124640Y213630D01*
X124595Y213576D01*
X124547Y213526D01*
X124497Y213478D01*
X124443Y213433D01*
X124388Y213391D01*
X124330Y213352D01*
X124270Y213317D01*
X124208Y213285D01*
X124144Y213257D01*
X124079Y213232D01*
X124013Y213211D01*
X123945Y213193D01*
X123877Y213180D01*
X123808Y213170D01*
X123739Y213164D01*
X123669Y213162D01*
X123599Y213164D01*
X123530Y213170D01*
X123461Y213180D01*
X123393Y213193D01*
X123325Y213211D01*
X123259Y213232D01*
X123194Y213257D01*
X123130Y213285D01*
X123068Y213317D01*
X123008Y213352D01*
X122950Y213391D01*
X122895Y213433D01*
X122841Y213478D01*
X122791Y213526D01*
X122743Y213576D01*
X122698Y213630D01*
X122656Y213685D01*
X122617Y213743D01*
X122582Y213803D01*
X122550Y213865D01*
X122522Y213929D01*
X122497Y213994D01*
X122476Y214060D01*
X122458Y214128D01*
X122445Y214196D01*
X122435Y214265D01*
X122429Y214334D01*
X122427Y214404D01*
X129310Y215646D02*
X129383Y215644D01*
X129456Y215638D01*
X129529Y215629D01*
X129600Y215615D01*
X129672Y215598D01*
X129742Y215578D01*
X129811Y215553D01*
X129878Y215525D01*
X129944Y215494D01*
X130009Y215459D01*
X130071Y215421D01*
X130131Y215379D01*
X130189Y215335D01*
X130245Y215287D01*
X130298Y215237D01*
X130348Y215184D01*
X130396Y215128D01*
X130440Y215070D01*
X130482Y215010D01*
X130520Y214948D01*
X130555Y214883D01*
X130586Y214817D01*
X130614Y214750D01*
X130639Y214681D01*
X130659Y214611D01*
X130676Y214539D01*
X130690Y214468D01*
X130699Y214395D01*
X130705Y214322D01*
X130707Y214249D01*
X129310Y215646D02*
X129226Y215644D01*
X129143Y215638D01*
X129060Y215629D01*
X128978Y215615D01*
X128896Y215598D01*
X128815Y215576D01*
X128735Y215551D01*
X128657Y215523D01*
X128579Y215491D01*
X128504Y215455D01*
X128430Y215416D01*
X128358Y215373D01*
X128288Y215327D01*
X128221Y215278D01*
X128155Y215225D01*
X128093Y215170D01*
X128033Y215112D01*
X127975Y215051D01*
X127921Y214988D01*
X127869Y214922D01*
X127821Y214854D01*
X127776Y214783D01*
X127734Y214711D01*
X127696Y214636D01*
X127661Y214560D01*
X127630Y214483D01*
X127602Y214404D01*
X130241Y213163D02*
X130295Y213216D01*
X130346Y213273D01*
X130394Y213332D01*
X130439Y213393D01*
X130480Y213456D01*
X130519Y213522D01*
X130554Y213589D01*
X130586Y213658D01*
X130614Y213729D01*
X130638Y213800D01*
X130659Y213873D01*
X130676Y213947D01*
X130690Y214022D01*
X130699Y214097D01*
X130705Y214173D01*
X130707Y214249D01*
X130241Y213162D02*
X127603Y210058D01*
X130707Y210058D01*
X133089Y213162D02*
X134952Y213162D01*
X134952Y213163D02*
X135022Y213161D01*
X135091Y213155D01*
X135160Y213145D01*
X135228Y213132D01*
X135296Y213114D01*
X135362Y213093D01*
X135427Y213068D01*
X135491Y213040D01*
X135553Y213008D01*
X135613Y212973D01*
X135671Y212934D01*
X135726Y212892D01*
X135780Y212847D01*
X135830Y212799D01*
X135878Y212749D01*
X135923Y212695D01*
X135965Y212640D01*
X136004Y212582D01*
X136039Y212522D01*
X136071Y212460D01*
X136099Y212396D01*
X136124Y212331D01*
X136145Y212265D01*
X136163Y212197D01*
X136176Y212129D01*
X136186Y212060D01*
X136192Y211991D01*
X136194Y211921D01*
X136193Y211921D02*
X136193Y211610D01*
X136191Y211533D01*
X136185Y211455D01*
X136176Y211379D01*
X136162Y211302D01*
X136145Y211227D01*
X136124Y211153D01*
X136099Y211079D01*
X136071Y211007D01*
X136039Y210937D01*
X136004Y210868D01*
X135965Y210801D01*
X135923Y210736D01*
X135878Y210673D01*
X135830Y210612D01*
X135779Y210554D01*
X135725Y210499D01*
X135668Y210446D01*
X135609Y210397D01*
X135547Y210350D01*
X135483Y210306D01*
X135417Y210266D01*
X135349Y210229D01*
X135279Y210195D01*
X135208Y210165D01*
X135135Y210139D01*
X135061Y210116D01*
X134986Y210097D01*
X134911Y210082D01*
X134834Y210070D01*
X134757Y210062D01*
X134680Y210058D01*
X134602Y210058D01*
X134525Y210062D01*
X134448Y210070D01*
X134371Y210082D01*
X134296Y210097D01*
X134221Y210116D01*
X134147Y210139D01*
X134074Y210165D01*
X134003Y210195D01*
X133933Y210229D01*
X133865Y210266D01*
X133799Y210306D01*
X133735Y210350D01*
X133673Y210397D01*
X133614Y210446D01*
X133557Y210499D01*
X133503Y210554D01*
X133452Y210612D01*
X133404Y210673D01*
X133359Y210736D01*
X133317Y210801D01*
X133278Y210868D01*
X133243Y210937D01*
X133211Y211007D01*
X133183Y211079D01*
X133158Y211153D01*
X133137Y211227D01*
X133120Y211302D01*
X133106Y211379D01*
X133097Y211455D01*
X133091Y211533D01*
X133089Y211610D01*
X133089Y213162D01*
X133091Y213260D01*
X133097Y213357D01*
X133106Y213454D01*
X133120Y213551D01*
X133137Y213647D01*
X133158Y213742D01*
X133182Y213836D01*
X133211Y213930D01*
X133243Y214022D01*
X133278Y214113D01*
X133317Y214202D01*
X133360Y214290D01*
X133406Y214376D01*
X133455Y214460D01*
X133508Y214542D01*
X133563Y214622D01*
X133622Y214700D01*
X133684Y214775D01*
X133749Y214848D01*
X133817Y214918D01*
X133887Y214986D01*
X133960Y215051D01*
X134035Y215113D01*
X134113Y215172D01*
X134193Y215227D01*
X134275Y215280D01*
X134359Y215329D01*
X134445Y215375D01*
X134533Y215418D01*
X134622Y215457D01*
X134713Y215492D01*
X134805Y215524D01*
X134899Y215553D01*
X134993Y215577D01*
X135088Y215598D01*
X135184Y215615D01*
X135281Y215629D01*
X135378Y215638D01*
X135475Y215644D01*
X135573Y215646D01*
X139954Y300990D02*
X139954Y306578D01*
X141506Y306578D01*
X141583Y306576D01*
X141661Y306570D01*
X141737Y306561D01*
X141814Y306547D01*
X141889Y306530D01*
X141963Y306509D01*
X142037Y306484D01*
X142109Y306456D01*
X142179Y306424D01*
X142248Y306389D01*
X142315Y306350D01*
X142380Y306308D01*
X142443Y306263D01*
X142504Y306215D01*
X142562Y306164D01*
X142617Y306110D01*
X142670Y306053D01*
X142719Y305994D01*
X142766Y305932D01*
X142810Y305868D01*
X142850Y305802D01*
X142887Y305734D01*
X142921Y305664D01*
X142951Y305593D01*
X142977Y305520D01*
X143000Y305446D01*
X143019Y305371D01*
X143034Y305296D01*
X143046Y305219D01*
X143054Y305142D01*
X143058Y305065D01*
X143058Y304987D01*
X143054Y304910D01*
X143046Y304833D01*
X143034Y304756D01*
X143019Y304681D01*
X143000Y304606D01*
X142977Y304532D01*
X142951Y304459D01*
X142921Y304388D01*
X142887Y304318D01*
X142850Y304250D01*
X142810Y304184D01*
X142766Y304120D01*
X142719Y304058D01*
X142670Y303999D01*
X142617Y303942D01*
X142562Y303888D01*
X142504Y303837D01*
X142443Y303789D01*
X142380Y303744D01*
X142315Y303702D01*
X142248Y303663D01*
X142179Y303628D01*
X142109Y303596D01*
X142037Y303568D01*
X141963Y303543D01*
X141889Y303522D01*
X141814Y303505D01*
X141737Y303491D01*
X141661Y303482D01*
X141583Y303476D01*
X141506Y303474D01*
X139954Y303474D01*
X141817Y303474D02*
X143058Y300990D01*
X145598Y300990D02*
X148082Y300990D01*
X145598Y300990D02*
X145598Y306578D01*
X148082Y306578D01*
X147461Y304094D02*
X145598Y304094D01*
X150403Y305647D02*
X150403Y300990D01*
X150403Y305647D02*
X150405Y305705D01*
X150410Y305764D01*
X150419Y305821D01*
X150432Y305879D01*
X150449Y305935D01*
X150468Y305990D01*
X150492Y306043D01*
X150518Y306096D01*
X150548Y306146D01*
X150581Y306194D01*
X150617Y306240D01*
X150655Y306284D01*
X150697Y306326D01*
X150741Y306364D01*
X150787Y306400D01*
X150835Y306433D01*
X150886Y306463D01*
X150938Y306489D01*
X150991Y306513D01*
X151046Y306532D01*
X151102Y306549D01*
X151160Y306562D01*
X151217Y306571D01*
X151276Y306576D01*
X151334Y306578D01*
X151335Y306578D02*
X151645Y306578D01*
X151645Y304715D02*
X149782Y304715D01*
X157902Y306578D02*
X157975Y306576D01*
X158048Y306570D01*
X158121Y306561D01*
X158192Y306547D01*
X158264Y306530D01*
X158334Y306510D01*
X158403Y306485D01*
X158470Y306457D01*
X158536Y306426D01*
X158601Y306391D01*
X158663Y306353D01*
X158723Y306311D01*
X158781Y306267D01*
X158837Y306219D01*
X158890Y306169D01*
X158940Y306116D01*
X158988Y306060D01*
X159032Y306002D01*
X159074Y305942D01*
X159112Y305880D01*
X159147Y305815D01*
X159178Y305749D01*
X159206Y305682D01*
X159231Y305613D01*
X159251Y305543D01*
X159268Y305471D01*
X159282Y305400D01*
X159291Y305327D01*
X159297Y305254D01*
X159299Y305181D01*
X157902Y306578D02*
X157818Y306576D01*
X157735Y306570D01*
X157652Y306561D01*
X157570Y306547D01*
X157488Y306530D01*
X157407Y306508D01*
X157327Y306483D01*
X157249Y306455D01*
X157171Y306423D01*
X157096Y306387D01*
X157022Y306348D01*
X156950Y306305D01*
X156880Y306259D01*
X156813Y306210D01*
X156747Y306157D01*
X156685Y306102D01*
X156625Y306044D01*
X156567Y305983D01*
X156513Y305920D01*
X156461Y305854D01*
X156413Y305786D01*
X156368Y305715D01*
X156326Y305643D01*
X156288Y305568D01*
X156253Y305492D01*
X156222Y305415D01*
X156194Y305336D01*
X158832Y304095D02*
X158886Y304148D01*
X158937Y304205D01*
X158985Y304264D01*
X159030Y304325D01*
X159071Y304388D01*
X159110Y304454D01*
X159145Y304521D01*
X159177Y304590D01*
X159205Y304661D01*
X159229Y304732D01*
X159250Y304805D01*
X159267Y304879D01*
X159281Y304954D01*
X159290Y305029D01*
X159296Y305105D01*
X159298Y305181D01*
X158833Y304094D02*
X156194Y300990D01*
X159299Y300990D01*
X161680Y303784D02*
X161682Y303915D01*
X161687Y304045D01*
X161697Y304175D01*
X161710Y304305D01*
X161726Y304435D01*
X161746Y304564D01*
X161770Y304692D01*
X161798Y304819D01*
X161829Y304946D01*
X161864Y305072D01*
X161902Y305197D01*
X161944Y305321D01*
X161989Y305443D01*
X162038Y305564D01*
X162090Y305684D01*
X162146Y305802D01*
X162169Y305862D01*
X162195Y305922D01*
X162224Y305979D01*
X162257Y306035D01*
X162293Y306089D01*
X162331Y306141D01*
X162373Y306191D01*
X162417Y306238D01*
X162464Y306283D01*
X162514Y306325D01*
X162565Y306364D01*
X162619Y306400D01*
X162675Y306433D01*
X162732Y306463D01*
X162791Y306490D01*
X162852Y306513D01*
X162913Y306533D01*
X162976Y306549D01*
X163040Y306562D01*
X163104Y306571D01*
X163168Y306576D01*
X163233Y306578D01*
X163298Y306576D01*
X163362Y306571D01*
X163426Y306562D01*
X163490Y306549D01*
X163553Y306533D01*
X163614Y306513D01*
X163675Y306490D01*
X163734Y306463D01*
X163791Y306433D01*
X163847Y306400D01*
X163901Y306364D01*
X163952Y306325D01*
X164002Y306283D01*
X164049Y306238D01*
X164093Y306191D01*
X164135Y306141D01*
X164173Y306089D01*
X164209Y306035D01*
X164242Y305979D01*
X164271Y305922D01*
X164297Y305862D01*
X164320Y305802D01*
X164319Y305802D02*
X164375Y305684D01*
X164427Y305564D01*
X164476Y305443D01*
X164521Y305321D01*
X164563Y305197D01*
X164601Y305072D01*
X164636Y304946D01*
X164667Y304820D01*
X164695Y304692D01*
X164719Y304564D01*
X164739Y304435D01*
X164755Y304305D01*
X164768Y304175D01*
X164778Y304045D01*
X164783Y303915D01*
X164785Y303784D01*
X161681Y303784D02*
X161683Y303653D01*
X161688Y303523D01*
X161698Y303393D01*
X161711Y303263D01*
X161727Y303133D01*
X161747Y303004D01*
X161771Y302876D01*
X161799Y302749D01*
X161830Y302622D01*
X161865Y302496D01*
X161903Y302371D01*
X161945Y302247D01*
X161990Y302125D01*
X162039Y302004D01*
X162091Y301884D01*
X162147Y301766D01*
X162146Y301766D02*
X162169Y301706D01*
X162195Y301646D01*
X162224Y301589D01*
X162257Y301533D01*
X162293Y301479D01*
X162331Y301427D01*
X162373Y301377D01*
X162417Y301330D01*
X162464Y301285D01*
X162514Y301243D01*
X162565Y301204D01*
X162619Y301168D01*
X162675Y301135D01*
X162732Y301105D01*
X162791Y301078D01*
X162852Y301055D01*
X162913Y301035D01*
X162976Y301019D01*
X163040Y301006D01*
X163104Y300997D01*
X163168Y300992D01*
X163233Y300990D01*
X164319Y301766D02*
X164375Y301884D01*
X164427Y302004D01*
X164476Y302125D01*
X164521Y302247D01*
X164563Y302371D01*
X164601Y302496D01*
X164636Y302622D01*
X164667Y302748D01*
X164695Y302876D01*
X164719Y303004D01*
X164739Y303133D01*
X164755Y303263D01*
X164768Y303393D01*
X164778Y303523D01*
X164783Y303653D01*
X164785Y303784D01*
X164320Y301766D02*
X164297Y301706D01*
X164271Y301646D01*
X164242Y301589D01*
X164209Y301533D01*
X164173Y301479D01*
X164135Y301427D01*
X164093Y301377D01*
X164049Y301330D01*
X164002Y301285D01*
X163952Y301243D01*
X163901Y301204D01*
X163847Y301168D01*
X163791Y301135D01*
X163734Y301105D01*
X163675Y301078D01*
X163614Y301055D01*
X163553Y301035D01*
X163490Y301019D01*
X163426Y301006D01*
X163362Y300997D01*
X163298Y300992D01*
X163233Y300990D01*
X161991Y302232D02*
X164474Y305336D01*
X167167Y303784D02*
X167169Y303915D01*
X167174Y304045D01*
X167184Y304175D01*
X167197Y304305D01*
X167213Y304435D01*
X167233Y304564D01*
X167257Y304692D01*
X167285Y304819D01*
X167316Y304946D01*
X167351Y305072D01*
X167389Y305197D01*
X167431Y305321D01*
X167476Y305443D01*
X167525Y305564D01*
X167577Y305684D01*
X167633Y305802D01*
X167632Y305802D02*
X167655Y305862D01*
X167681Y305922D01*
X167710Y305979D01*
X167743Y306035D01*
X167779Y306089D01*
X167817Y306141D01*
X167859Y306191D01*
X167903Y306238D01*
X167950Y306283D01*
X168000Y306325D01*
X168051Y306364D01*
X168105Y306400D01*
X168161Y306433D01*
X168218Y306463D01*
X168277Y306490D01*
X168338Y306513D01*
X168399Y306533D01*
X168462Y306549D01*
X168526Y306562D01*
X168590Y306571D01*
X168654Y306576D01*
X168719Y306578D01*
X168784Y306576D01*
X168848Y306571D01*
X168912Y306562D01*
X168976Y306549D01*
X169039Y306533D01*
X169100Y306513D01*
X169161Y306490D01*
X169220Y306463D01*
X169277Y306433D01*
X169333Y306400D01*
X169387Y306364D01*
X169438Y306325D01*
X169488Y306283D01*
X169535Y306238D01*
X169579Y306191D01*
X169621Y306141D01*
X169659Y306089D01*
X169695Y306035D01*
X169728Y305979D01*
X169757Y305922D01*
X169783Y305862D01*
X169806Y305802D01*
X169862Y305684D01*
X169914Y305564D01*
X169963Y305443D01*
X170008Y305321D01*
X170050Y305197D01*
X170088Y305072D01*
X170123Y304946D01*
X170154Y304820D01*
X170182Y304692D01*
X170206Y304564D01*
X170226Y304435D01*
X170242Y304305D01*
X170255Y304175D01*
X170265Y304045D01*
X170270Y303915D01*
X170272Y303784D01*
X167167Y303784D02*
X167169Y303653D01*
X167174Y303523D01*
X167184Y303393D01*
X167197Y303263D01*
X167213Y303133D01*
X167233Y303004D01*
X167257Y302876D01*
X167285Y302749D01*
X167316Y302622D01*
X167351Y302496D01*
X167389Y302371D01*
X167431Y302247D01*
X167476Y302125D01*
X167525Y302004D01*
X167577Y301884D01*
X167633Y301766D01*
X167632Y301766D02*
X167655Y301706D01*
X167681Y301646D01*
X167710Y301589D01*
X167743Y301533D01*
X167779Y301479D01*
X167817Y301427D01*
X167859Y301377D01*
X167903Y301330D01*
X167950Y301285D01*
X168000Y301243D01*
X168051Y301204D01*
X168105Y301168D01*
X168161Y301135D01*
X168218Y301105D01*
X168277Y301078D01*
X168338Y301055D01*
X168399Y301035D01*
X168462Y301019D01*
X168526Y301006D01*
X168590Y300997D01*
X168654Y300992D01*
X168719Y300990D01*
X169805Y301766D02*
X169861Y301884D01*
X169913Y302004D01*
X169962Y302125D01*
X170007Y302247D01*
X170049Y302371D01*
X170087Y302496D01*
X170122Y302622D01*
X170153Y302748D01*
X170181Y302876D01*
X170205Y303004D01*
X170225Y303133D01*
X170241Y303263D01*
X170254Y303393D01*
X170264Y303523D01*
X170269Y303653D01*
X170271Y303784D01*
X169806Y301766D02*
X169783Y301706D01*
X169757Y301646D01*
X169728Y301589D01*
X169695Y301533D01*
X169659Y301479D01*
X169621Y301427D01*
X169579Y301377D01*
X169535Y301330D01*
X169488Y301285D01*
X169438Y301243D01*
X169387Y301204D01*
X169333Y301168D01*
X169277Y301135D01*
X169220Y301105D01*
X169161Y301078D01*
X169100Y301055D01*
X169039Y301035D01*
X168976Y301019D01*
X168912Y301006D01*
X168848Y300997D01*
X168784Y300992D01*
X168719Y300990D01*
X167477Y302232D02*
X169961Y305336D01*
D39*
X164Y306514D02*
X164Y144514D01*
X164Y306514D02*
X65164Y306514D01*
X75164Y306514D01*
X75164Y144514D01*
X65164Y144514D01*
X164Y144514D01*
X65164Y144514D02*
X65164Y306514D01*
D40*
X17612Y139573D02*
X17612Y135819D01*
X17610Y135754D01*
X17604Y135690D01*
X17594Y135626D01*
X17581Y135562D01*
X17563Y135500D01*
X17542Y135439D01*
X17518Y135379D01*
X17489Y135321D01*
X17457Y135264D01*
X17422Y135210D01*
X17384Y135158D01*
X17342Y135108D01*
X17298Y135061D01*
X17251Y135017D01*
X17201Y134975D01*
X17149Y134937D01*
X17095Y134902D01*
X17038Y134870D01*
X16980Y134841D01*
X16920Y134817D01*
X16859Y134796D01*
X16797Y134778D01*
X16733Y134765D01*
X16669Y134755D01*
X16605Y134749D01*
X16540Y134747D01*
X16003Y134747D01*
X20560Y135819D02*
X21632Y139573D01*
X20560Y135819D02*
X23241Y135819D01*
X22437Y136892D02*
X22437Y134747D01*
D39*
X294259Y359918D02*
X306959Y359918D01*
X313309Y353568D01*
X313309Y340868D02*
X306959Y334518D01*
X313309Y353568D02*
X319659Y359918D01*
X332359Y359918D01*
X338709Y353568D01*
X338709Y340868D02*
X332359Y334518D01*
X319659Y334518D01*
X313309Y340868D01*
X287909Y340868D02*
X287909Y353568D01*
X294259Y359918D01*
X287909Y340868D02*
X294259Y334518D01*
X306959Y334518D01*
X338709Y340868D02*
X338709Y353568D01*
D40*
X283041Y330581D02*
X283041Y326827D01*
X283040Y326827D02*
X283038Y326762D01*
X283032Y326698D01*
X283022Y326634D01*
X283009Y326570D01*
X282991Y326508D01*
X282970Y326447D01*
X282946Y326387D01*
X282917Y326329D01*
X282885Y326272D01*
X282850Y326218D01*
X282812Y326166D01*
X282770Y326116D01*
X282726Y326069D01*
X282679Y326025D01*
X282629Y325983D01*
X282577Y325945D01*
X282523Y325910D01*
X282466Y325878D01*
X282408Y325849D01*
X282348Y325825D01*
X282287Y325804D01*
X282225Y325786D01*
X282161Y325773D01*
X282097Y325763D01*
X282033Y325757D01*
X281968Y325755D01*
X281432Y325755D01*
X286318Y325755D02*
X286318Y330581D01*
X287659Y330581D01*
X287730Y330579D01*
X287802Y330573D01*
X287872Y330564D01*
X287942Y330551D01*
X288012Y330534D01*
X288080Y330513D01*
X288147Y330489D01*
X288213Y330461D01*
X288277Y330430D01*
X288340Y330395D01*
X288400Y330357D01*
X288459Y330316D01*
X288515Y330272D01*
X288569Y330225D01*
X288620Y330176D01*
X288668Y330123D01*
X288714Y330068D01*
X288756Y330011D01*
X288796Y329951D01*
X288832Y329890D01*
X288865Y329826D01*
X288894Y329761D01*
X288920Y329695D01*
X288943Y329627D01*
X288962Y329558D01*
X288977Y329488D01*
X288988Y329418D01*
X288996Y329347D01*
X289000Y329276D01*
X289000Y329204D01*
X288996Y329133D01*
X288988Y329062D01*
X288977Y328992D01*
X288962Y328922D01*
X288943Y328853D01*
X288920Y328785D01*
X288894Y328719D01*
X288865Y328654D01*
X288832Y328590D01*
X288796Y328529D01*
X288756Y328469D01*
X288714Y328412D01*
X288668Y328357D01*
X288620Y328304D01*
X288569Y328255D01*
X288515Y328208D01*
X288459Y328164D01*
X288400Y328123D01*
X288340Y328085D01*
X288277Y328050D01*
X288213Y328019D01*
X288147Y327991D01*
X288080Y327967D01*
X288012Y327946D01*
X287942Y327929D01*
X287872Y327916D01*
X287802Y327907D01*
X287730Y327901D01*
X287659Y327899D01*
X287659Y327900D02*
X286318Y327900D01*
X291475Y329509D02*
X292816Y330581D01*
X292816Y325755D01*
X294156Y325755D02*
X291475Y325755D01*
D41*
X137160Y156972D02*
X109728Y156972D01*
X120396Y206756D02*
X137160Y206756D01*
X120396Y206756D02*
X109728Y206756D01*
X120396Y206756D02*
X120402Y206647D01*
X120412Y206539D01*
X120427Y206431D01*
X120445Y206323D01*
X120467Y206217D01*
X120492Y206111D01*
X120522Y206006D01*
X120555Y205902D01*
X120592Y205800D01*
X120632Y205699D01*
X120676Y205599D01*
X120724Y205501D01*
X120775Y205405D01*
X120829Y205311D01*
X120887Y205218D01*
X120948Y205128D01*
X121012Y205040D01*
X121080Y204955D01*
X121150Y204871D01*
X121223Y204791D01*
X121299Y204713D01*
X121378Y204638D01*
X121460Y204565D01*
X121544Y204496D01*
X121630Y204430D01*
X121719Y204367D01*
X121810Y204307D01*
X121903Y204250D01*
X121998Y204197D01*
X122095Y204147D01*
X122193Y204100D01*
X122293Y204057D01*
X122395Y204018D01*
X122498Y203982D01*
X122602Y203951D01*
X122707Y203922D01*
X122813Y203898D01*
X122920Y203877D01*
X123028Y203861D01*
X123136Y203848D01*
X123244Y203839D01*
X123353Y203833D01*
X123462Y203832D01*
X123571Y203835D01*
X123680Y203841D01*
X123788Y203851D01*
X123896Y203866D01*
X124004Y203884D01*
X124110Y203906D01*
X124216Y203931D01*
X124321Y203961D01*
X124425Y203994D01*
X124527Y204031D01*
X124628Y204071D01*
X124728Y204115D01*
X124826Y204163D01*
X124922Y204214D01*
X125016Y204268D01*
X125109Y204326D01*
X125199Y204387D01*
X125287Y204451D01*
X125372Y204519D01*
X125456Y204589D01*
X125536Y204662D01*
X125614Y204738D01*
X125689Y204817D01*
X125762Y204899D01*
X125831Y204983D01*
X125897Y205069D01*
X125960Y205158D01*
X126020Y205249D01*
X126077Y205342D01*
X126130Y205437D01*
X126180Y205534D01*
X126227Y205632D01*
X126270Y205732D01*
X126309Y205834D01*
X126345Y205937D01*
X126376Y206041D01*
X126405Y206146D01*
X126429Y206252D01*
X126450Y206359D01*
X126466Y206467D01*
X126479Y206575D01*
X126488Y206683D01*
X126494Y206792D01*
X126495Y206901D01*
X126492Y207010D01*
D42*
X94453Y210256D02*
X94453Y214235D01*
X94453Y210256D02*
X96774Y207271D01*
X94453Y210256D02*
X92131Y207271D01*
X94453Y210256D02*
X98100Y211582D01*
X94453Y210256D02*
X90805Y211582D01*
D41*
X150368Y248412D02*
X177800Y248412D01*
X177800Y298196D02*
X161036Y298196D01*
X150368Y298196D01*
X161036Y298196D02*
X161042Y298087D01*
X161052Y297979D01*
X161067Y297871D01*
X161085Y297763D01*
X161107Y297657D01*
X161132Y297551D01*
X161162Y297446D01*
X161195Y297342D01*
X161232Y297240D01*
X161272Y297139D01*
X161316Y297039D01*
X161364Y296941D01*
X161415Y296845D01*
X161469Y296751D01*
X161527Y296658D01*
X161588Y296568D01*
X161652Y296480D01*
X161720Y296395D01*
X161790Y296311D01*
X161863Y296231D01*
X161939Y296153D01*
X162018Y296078D01*
X162100Y296005D01*
X162184Y295936D01*
X162270Y295870D01*
X162359Y295807D01*
X162450Y295747D01*
X162543Y295690D01*
X162638Y295637D01*
X162735Y295587D01*
X162833Y295540D01*
X162933Y295497D01*
X163035Y295458D01*
X163138Y295422D01*
X163242Y295391D01*
X163347Y295362D01*
X163453Y295338D01*
X163560Y295317D01*
X163668Y295301D01*
X163776Y295288D01*
X163884Y295279D01*
X163993Y295273D01*
X164102Y295272D01*
X164211Y295275D01*
X164320Y295281D01*
X164428Y295291D01*
X164536Y295306D01*
X164644Y295324D01*
X164750Y295346D01*
X164856Y295371D01*
X164961Y295401D01*
X165065Y295434D01*
X165167Y295471D01*
X165268Y295511D01*
X165368Y295555D01*
X165466Y295603D01*
X165562Y295654D01*
X165656Y295708D01*
X165749Y295766D01*
X165839Y295827D01*
X165927Y295891D01*
X166012Y295959D01*
X166096Y296029D01*
X166176Y296102D01*
X166254Y296178D01*
X166329Y296257D01*
X166402Y296339D01*
X166471Y296423D01*
X166537Y296509D01*
X166600Y296598D01*
X166660Y296689D01*
X166717Y296782D01*
X166770Y296877D01*
X166820Y296974D01*
X166867Y297072D01*
X166910Y297172D01*
X166949Y297274D01*
X166985Y297377D01*
X167016Y297481D01*
X167045Y297586D01*
X167069Y297692D01*
X167090Y297799D01*
X167106Y297907D01*
X167119Y298015D01*
X167128Y298123D01*
X167134Y298232D01*
X167135Y298341D01*
X167132Y298450D01*
D42*
X135093Y301696D02*
X135093Y305675D01*
X135093Y301696D02*
X137414Y298711D01*
X135093Y301696D02*
X132771Y298711D01*
X135093Y301696D02*
X138740Y303022D01*
X135093Y301696D02*
X131445Y303022D01*
D40*
X85471Y243852D02*
X80645Y243852D01*
X80645Y245193D01*
X80647Y245264D01*
X80653Y245336D01*
X80662Y245406D01*
X80675Y245476D01*
X80692Y245546D01*
X80713Y245614D01*
X80737Y245681D01*
X80765Y245747D01*
X80796Y245811D01*
X80831Y245874D01*
X80869Y245934D01*
X80910Y245993D01*
X80954Y246049D01*
X81001Y246103D01*
X81050Y246154D01*
X81103Y246202D01*
X81158Y246248D01*
X81215Y246290D01*
X81275Y246330D01*
X81336Y246366D01*
X81400Y246399D01*
X81465Y246428D01*
X81531Y246454D01*
X81599Y246477D01*
X81668Y246496D01*
X81738Y246511D01*
X81808Y246522D01*
X81879Y246530D01*
X81950Y246534D01*
X82022Y246534D01*
X82093Y246530D01*
X82164Y246522D01*
X82234Y246511D01*
X82304Y246496D01*
X82373Y246477D01*
X82441Y246454D01*
X82507Y246428D01*
X82572Y246399D01*
X82636Y246366D01*
X82697Y246330D01*
X82757Y246290D01*
X82814Y246248D01*
X82869Y246202D01*
X82922Y246154D01*
X82971Y246103D01*
X83018Y246049D01*
X83062Y245993D01*
X83103Y245934D01*
X83141Y245874D01*
X83176Y245811D01*
X83207Y245747D01*
X83235Y245681D01*
X83259Y245614D01*
X83280Y245546D01*
X83297Y245476D01*
X83310Y245406D01*
X83319Y245336D01*
X83325Y245264D01*
X83327Y245193D01*
X83326Y245193D02*
X83326Y243852D01*
X83326Y245461D02*
X85471Y246533D01*
X81717Y249275D02*
X80645Y250615D01*
X85471Y250615D01*
X85471Y249275D02*
X85471Y251956D01*
X185293Y105422D02*
X190119Y105422D01*
X185293Y105422D02*
X185293Y106763D01*
X185295Y106834D01*
X185301Y106906D01*
X185310Y106976D01*
X185323Y107046D01*
X185340Y107116D01*
X185361Y107184D01*
X185385Y107251D01*
X185413Y107317D01*
X185444Y107381D01*
X185479Y107444D01*
X185517Y107504D01*
X185558Y107563D01*
X185602Y107619D01*
X185649Y107673D01*
X185698Y107724D01*
X185751Y107772D01*
X185806Y107818D01*
X185863Y107860D01*
X185923Y107900D01*
X185984Y107936D01*
X186048Y107969D01*
X186113Y107998D01*
X186179Y108024D01*
X186247Y108047D01*
X186316Y108066D01*
X186386Y108081D01*
X186456Y108092D01*
X186527Y108100D01*
X186598Y108104D01*
X186670Y108104D01*
X186741Y108100D01*
X186812Y108092D01*
X186882Y108081D01*
X186952Y108066D01*
X187021Y108047D01*
X187089Y108024D01*
X187155Y107998D01*
X187220Y107969D01*
X187284Y107936D01*
X187345Y107900D01*
X187405Y107860D01*
X187462Y107818D01*
X187517Y107772D01*
X187570Y107724D01*
X187619Y107673D01*
X187666Y107619D01*
X187710Y107563D01*
X187751Y107504D01*
X187789Y107444D01*
X187824Y107381D01*
X187855Y107317D01*
X187883Y107251D01*
X187907Y107184D01*
X187928Y107116D01*
X187945Y107046D01*
X187958Y106976D01*
X187967Y106906D01*
X187973Y106834D01*
X187975Y106763D01*
X187974Y106763D02*
X187974Y105422D01*
X187974Y107031D02*
X190119Y108103D01*
X185293Y112319D02*
X185295Y112387D01*
X185301Y112454D01*
X185310Y112521D01*
X185323Y112588D01*
X185340Y112653D01*
X185361Y112718D01*
X185385Y112781D01*
X185413Y112843D01*
X185444Y112903D01*
X185478Y112961D01*
X185516Y113017D01*
X185556Y113072D01*
X185600Y113123D01*
X185647Y113172D01*
X185696Y113219D01*
X185747Y113263D01*
X185802Y113303D01*
X185858Y113341D01*
X185916Y113375D01*
X185976Y113406D01*
X186038Y113434D01*
X186101Y113458D01*
X186166Y113479D01*
X186231Y113496D01*
X186298Y113509D01*
X186365Y113518D01*
X186432Y113524D01*
X186500Y113526D01*
X185293Y112319D02*
X185295Y112241D01*
X185301Y112163D01*
X185311Y112086D01*
X185324Y112009D01*
X185342Y111933D01*
X185363Y111858D01*
X185388Y111784D01*
X185417Y111712D01*
X185449Y111641D01*
X185485Y111572D01*
X185524Y111504D01*
X185567Y111439D01*
X185613Y111376D01*
X185662Y111315D01*
X185714Y111257D01*
X185769Y111202D01*
X185826Y111149D01*
X185886Y111100D01*
X185949Y111053D01*
X186014Y111010D01*
X186080Y110970D01*
X186149Y110933D01*
X186220Y110900D01*
X186292Y110870D01*
X186366Y110844D01*
X187438Y113124D02*
X187389Y113173D01*
X187337Y113220D01*
X187282Y113263D01*
X187225Y113304D01*
X187166Y113342D01*
X187105Y113376D01*
X187042Y113407D01*
X186978Y113435D01*
X186912Y113459D01*
X186846Y113479D01*
X186778Y113496D01*
X186709Y113509D01*
X186640Y113518D01*
X186570Y113524D01*
X186500Y113526D01*
X187438Y113124D02*
X190119Y110845D01*
X190119Y113526D01*
X168275Y105422D02*
X163449Y105422D01*
X163449Y106763D01*
X163451Y106834D01*
X163457Y106906D01*
X163466Y106976D01*
X163479Y107046D01*
X163496Y107116D01*
X163517Y107184D01*
X163541Y107251D01*
X163569Y107317D01*
X163600Y107381D01*
X163635Y107444D01*
X163673Y107504D01*
X163714Y107563D01*
X163758Y107619D01*
X163805Y107673D01*
X163854Y107724D01*
X163907Y107772D01*
X163962Y107818D01*
X164019Y107860D01*
X164079Y107900D01*
X164140Y107936D01*
X164204Y107969D01*
X164269Y107998D01*
X164335Y108024D01*
X164403Y108047D01*
X164472Y108066D01*
X164542Y108081D01*
X164612Y108092D01*
X164683Y108100D01*
X164754Y108104D01*
X164826Y108104D01*
X164897Y108100D01*
X164968Y108092D01*
X165038Y108081D01*
X165108Y108066D01*
X165177Y108047D01*
X165245Y108024D01*
X165311Y107998D01*
X165376Y107969D01*
X165440Y107936D01*
X165501Y107900D01*
X165561Y107860D01*
X165618Y107818D01*
X165673Y107772D01*
X165726Y107724D01*
X165775Y107673D01*
X165822Y107619D01*
X165866Y107563D01*
X165907Y107504D01*
X165945Y107444D01*
X165980Y107381D01*
X166011Y107317D01*
X166039Y107251D01*
X166063Y107184D01*
X166084Y107116D01*
X166101Y107046D01*
X166114Y106976D01*
X166123Y106906D01*
X166129Y106834D01*
X166131Y106763D01*
X166130Y106763D02*
X166130Y105422D01*
X166130Y107031D02*
X168275Y108103D01*
X168275Y110845D02*
X168275Y112185D01*
X168273Y112256D01*
X168267Y112328D01*
X168258Y112398D01*
X168245Y112468D01*
X168228Y112538D01*
X168207Y112606D01*
X168183Y112673D01*
X168155Y112739D01*
X168124Y112803D01*
X168089Y112866D01*
X168051Y112926D01*
X168010Y112985D01*
X167966Y113041D01*
X167919Y113095D01*
X167870Y113146D01*
X167817Y113194D01*
X167762Y113240D01*
X167705Y113282D01*
X167645Y113322D01*
X167584Y113358D01*
X167520Y113391D01*
X167455Y113420D01*
X167389Y113446D01*
X167321Y113469D01*
X167252Y113488D01*
X167182Y113503D01*
X167112Y113514D01*
X167041Y113522D01*
X166970Y113526D01*
X166898Y113526D01*
X166827Y113522D01*
X166756Y113514D01*
X166686Y113503D01*
X166616Y113488D01*
X166547Y113469D01*
X166479Y113446D01*
X166413Y113420D01*
X166348Y113391D01*
X166284Y113358D01*
X166223Y113322D01*
X166163Y113282D01*
X166106Y113240D01*
X166051Y113194D01*
X165998Y113146D01*
X165949Y113095D01*
X165902Y113041D01*
X165858Y112985D01*
X165817Y112926D01*
X165779Y112866D01*
X165744Y112803D01*
X165713Y112739D01*
X165685Y112673D01*
X165661Y112606D01*
X165640Y112538D01*
X165623Y112468D01*
X165610Y112398D01*
X165601Y112328D01*
X165595Y112256D01*
X165593Y112185D01*
X163449Y112453D02*
X163449Y110845D01*
X163449Y112453D02*
X163451Y112518D01*
X163457Y112582D01*
X163467Y112646D01*
X163480Y112710D01*
X163498Y112772D01*
X163519Y112833D01*
X163543Y112893D01*
X163572Y112951D01*
X163604Y113008D01*
X163639Y113062D01*
X163677Y113114D01*
X163719Y113164D01*
X163763Y113211D01*
X163810Y113255D01*
X163860Y113297D01*
X163912Y113335D01*
X163966Y113370D01*
X164023Y113402D01*
X164081Y113431D01*
X164141Y113455D01*
X164202Y113476D01*
X164264Y113494D01*
X164328Y113507D01*
X164392Y113517D01*
X164456Y113523D01*
X164521Y113525D01*
X164586Y113523D01*
X164650Y113517D01*
X164714Y113507D01*
X164778Y113494D01*
X164840Y113476D01*
X164901Y113455D01*
X164961Y113431D01*
X165019Y113402D01*
X165076Y113370D01*
X165130Y113335D01*
X165182Y113297D01*
X165232Y113255D01*
X165279Y113211D01*
X165323Y113164D01*
X165365Y113114D01*
X165403Y113062D01*
X165438Y113008D01*
X165470Y112951D01*
X165499Y112893D01*
X165523Y112833D01*
X165544Y112772D01*
X165562Y112710D01*
X165575Y112646D01*
X165585Y112582D01*
X165591Y112518D01*
X165593Y112453D01*
X165594Y112453D02*
X165594Y111381D01*
X154559Y105295D02*
X149733Y105295D01*
X149733Y106636D01*
X149735Y106707D01*
X149741Y106779D01*
X149750Y106849D01*
X149763Y106919D01*
X149780Y106989D01*
X149801Y107057D01*
X149825Y107124D01*
X149853Y107190D01*
X149884Y107254D01*
X149919Y107317D01*
X149957Y107377D01*
X149998Y107436D01*
X150042Y107492D01*
X150089Y107546D01*
X150138Y107597D01*
X150191Y107645D01*
X150246Y107691D01*
X150303Y107733D01*
X150363Y107773D01*
X150424Y107809D01*
X150488Y107842D01*
X150553Y107871D01*
X150619Y107897D01*
X150687Y107920D01*
X150756Y107939D01*
X150826Y107954D01*
X150896Y107965D01*
X150967Y107973D01*
X151038Y107977D01*
X151110Y107977D01*
X151181Y107973D01*
X151252Y107965D01*
X151322Y107954D01*
X151392Y107939D01*
X151461Y107920D01*
X151529Y107897D01*
X151595Y107871D01*
X151660Y107842D01*
X151724Y107809D01*
X151785Y107773D01*
X151845Y107733D01*
X151902Y107691D01*
X151957Y107645D01*
X152010Y107597D01*
X152059Y107546D01*
X152106Y107492D01*
X152150Y107436D01*
X152191Y107377D01*
X152229Y107317D01*
X152264Y107254D01*
X152295Y107190D01*
X152323Y107124D01*
X152347Y107057D01*
X152368Y106989D01*
X152385Y106919D01*
X152398Y106849D01*
X152407Y106779D01*
X152413Y106707D01*
X152415Y106636D01*
X152414Y106636D02*
X152414Y105295D01*
X152414Y106904D02*
X154559Y107976D01*
X153487Y110718D02*
X149733Y111790D01*
X153487Y110718D02*
X153487Y113399D01*
X152414Y112595D02*
X154559Y112595D01*
X139573Y105041D02*
X134747Y105041D01*
X134747Y106382D01*
X134749Y106453D01*
X134755Y106525D01*
X134764Y106595D01*
X134777Y106665D01*
X134794Y106735D01*
X134815Y106803D01*
X134839Y106870D01*
X134867Y106936D01*
X134898Y107000D01*
X134933Y107063D01*
X134971Y107123D01*
X135012Y107182D01*
X135056Y107238D01*
X135103Y107292D01*
X135152Y107343D01*
X135205Y107391D01*
X135260Y107437D01*
X135317Y107479D01*
X135377Y107519D01*
X135438Y107555D01*
X135502Y107588D01*
X135567Y107617D01*
X135633Y107643D01*
X135701Y107666D01*
X135770Y107685D01*
X135840Y107700D01*
X135910Y107711D01*
X135981Y107719D01*
X136052Y107723D01*
X136124Y107723D01*
X136195Y107719D01*
X136266Y107711D01*
X136336Y107700D01*
X136406Y107685D01*
X136475Y107666D01*
X136543Y107643D01*
X136609Y107617D01*
X136674Y107588D01*
X136738Y107555D01*
X136799Y107519D01*
X136859Y107479D01*
X136916Y107437D01*
X136971Y107391D01*
X137024Y107343D01*
X137073Y107292D01*
X137120Y107238D01*
X137164Y107182D01*
X137205Y107123D01*
X137243Y107063D01*
X137278Y107000D01*
X137309Y106936D01*
X137337Y106870D01*
X137361Y106803D01*
X137382Y106735D01*
X137399Y106665D01*
X137412Y106595D01*
X137421Y106525D01*
X137427Y106453D01*
X137429Y106382D01*
X137428Y106382D02*
X137428Y105041D01*
X137428Y106650D02*
X139573Y107722D01*
X139573Y110464D02*
X139573Y112072D01*
X139571Y112137D01*
X139565Y112201D01*
X139555Y112265D01*
X139542Y112329D01*
X139524Y112391D01*
X139503Y112452D01*
X139479Y112512D01*
X139450Y112570D01*
X139418Y112627D01*
X139383Y112681D01*
X139345Y112733D01*
X139303Y112783D01*
X139259Y112830D01*
X139212Y112874D01*
X139162Y112916D01*
X139110Y112954D01*
X139056Y112989D01*
X138999Y113021D01*
X138941Y113050D01*
X138881Y113074D01*
X138820Y113095D01*
X138758Y113113D01*
X138694Y113126D01*
X138630Y113136D01*
X138566Y113142D01*
X138501Y113144D01*
X138501Y113145D02*
X137964Y113145D01*
X137964Y113144D02*
X137899Y113142D01*
X137835Y113136D01*
X137771Y113126D01*
X137707Y113113D01*
X137645Y113095D01*
X137584Y113074D01*
X137524Y113050D01*
X137466Y113021D01*
X137409Y112989D01*
X137355Y112954D01*
X137303Y112916D01*
X137253Y112874D01*
X137206Y112830D01*
X137162Y112783D01*
X137120Y112733D01*
X137082Y112681D01*
X137047Y112627D01*
X137015Y112570D01*
X136986Y112512D01*
X136962Y112452D01*
X136941Y112391D01*
X136923Y112329D01*
X136910Y112265D01*
X136900Y112201D01*
X136894Y112137D01*
X136892Y112072D01*
X136892Y110464D01*
X134747Y110464D01*
X134747Y113145D01*
X207276Y211074D02*
X207276Y215900D01*
X208617Y215900D01*
X208688Y215898D01*
X208760Y215892D01*
X208830Y215883D01*
X208900Y215870D01*
X208970Y215853D01*
X209038Y215832D01*
X209105Y215808D01*
X209171Y215780D01*
X209235Y215749D01*
X209298Y215714D01*
X209358Y215676D01*
X209417Y215635D01*
X209473Y215591D01*
X209527Y215544D01*
X209578Y215495D01*
X209626Y215442D01*
X209672Y215387D01*
X209714Y215330D01*
X209754Y215270D01*
X209790Y215209D01*
X209823Y215145D01*
X209852Y215080D01*
X209878Y215014D01*
X209901Y214946D01*
X209920Y214877D01*
X209935Y214807D01*
X209946Y214737D01*
X209954Y214666D01*
X209958Y214595D01*
X209958Y214523D01*
X209954Y214452D01*
X209946Y214381D01*
X209935Y214311D01*
X209920Y214241D01*
X209901Y214172D01*
X209878Y214104D01*
X209852Y214038D01*
X209823Y213973D01*
X209790Y213909D01*
X209754Y213848D01*
X209714Y213788D01*
X209672Y213731D01*
X209626Y213676D01*
X209578Y213623D01*
X209527Y213574D01*
X209473Y213527D01*
X209417Y213483D01*
X209358Y213442D01*
X209298Y213404D01*
X209235Y213369D01*
X209171Y213338D01*
X209105Y213310D01*
X209038Y213286D01*
X208970Y213265D01*
X208900Y213248D01*
X208830Y213235D01*
X208760Y213226D01*
X208688Y213220D01*
X208617Y213218D01*
X208617Y213219D02*
X207276Y213219D01*
X208885Y213219D02*
X209957Y211074D01*
X212699Y213755D02*
X214307Y213755D01*
X214372Y213753D01*
X214436Y213747D01*
X214500Y213737D01*
X214564Y213724D01*
X214626Y213706D01*
X214687Y213685D01*
X214747Y213661D01*
X214805Y213632D01*
X214862Y213600D01*
X214916Y213565D01*
X214968Y213527D01*
X215018Y213485D01*
X215065Y213441D01*
X215109Y213394D01*
X215151Y213344D01*
X215189Y213292D01*
X215224Y213238D01*
X215256Y213181D01*
X215285Y213123D01*
X215309Y213063D01*
X215330Y213002D01*
X215348Y212940D01*
X215361Y212876D01*
X215371Y212812D01*
X215377Y212748D01*
X215379Y212683D01*
X215380Y212683D02*
X215380Y212415D01*
X215378Y212344D01*
X215372Y212272D01*
X215363Y212202D01*
X215350Y212132D01*
X215333Y212062D01*
X215312Y211994D01*
X215288Y211927D01*
X215260Y211861D01*
X215229Y211797D01*
X215194Y211734D01*
X215156Y211674D01*
X215115Y211615D01*
X215071Y211559D01*
X215024Y211505D01*
X214975Y211454D01*
X214922Y211406D01*
X214867Y211360D01*
X214810Y211318D01*
X214750Y211278D01*
X214689Y211242D01*
X214625Y211209D01*
X214560Y211180D01*
X214494Y211154D01*
X214426Y211131D01*
X214357Y211112D01*
X214287Y211097D01*
X214217Y211086D01*
X214146Y211078D01*
X214075Y211074D01*
X214003Y211074D01*
X213932Y211078D01*
X213861Y211086D01*
X213791Y211097D01*
X213721Y211112D01*
X213652Y211131D01*
X213584Y211154D01*
X213518Y211180D01*
X213453Y211209D01*
X213389Y211242D01*
X213328Y211278D01*
X213268Y211318D01*
X213211Y211360D01*
X213156Y211406D01*
X213103Y211454D01*
X213054Y211505D01*
X213007Y211559D01*
X212963Y211615D01*
X212922Y211674D01*
X212884Y211734D01*
X212849Y211797D01*
X212818Y211861D01*
X212790Y211927D01*
X212766Y211994D01*
X212745Y212062D01*
X212728Y212132D01*
X212715Y212202D01*
X212706Y212272D01*
X212700Y212344D01*
X212698Y212415D01*
X212699Y212415D02*
X212699Y213755D01*
X212701Y213846D01*
X212707Y213937D01*
X212716Y214027D01*
X212730Y214118D01*
X212747Y214207D01*
X212768Y214295D01*
X212793Y214383D01*
X212822Y214470D01*
X212854Y214555D01*
X212889Y214639D01*
X212929Y214721D01*
X212971Y214801D01*
X213017Y214880D01*
X213067Y214956D01*
X213119Y215030D01*
X213175Y215103D01*
X213234Y215172D01*
X213295Y215239D01*
X213360Y215304D01*
X213427Y215365D01*
X213496Y215424D01*
X213568Y215480D01*
X213643Y215532D01*
X213719Y215582D01*
X213798Y215628D01*
X213878Y215670D01*
X213960Y215710D01*
X214044Y215745D01*
X214129Y215777D01*
X214216Y215806D01*
X214303Y215831D01*
X214392Y215852D01*
X214481Y215869D01*
X214572Y215883D01*
X214662Y215892D01*
X214753Y215898D01*
X214844Y215900D01*
X208800Y180848D02*
X208800Y176022D01*
X208800Y180848D02*
X210141Y180848D01*
X210212Y180846D01*
X210284Y180840D01*
X210354Y180831D01*
X210424Y180818D01*
X210494Y180801D01*
X210562Y180780D01*
X210629Y180756D01*
X210695Y180728D01*
X210759Y180697D01*
X210822Y180662D01*
X210882Y180624D01*
X210941Y180583D01*
X210997Y180539D01*
X211051Y180492D01*
X211102Y180443D01*
X211150Y180390D01*
X211196Y180335D01*
X211238Y180278D01*
X211278Y180218D01*
X211314Y180157D01*
X211347Y180093D01*
X211376Y180028D01*
X211402Y179962D01*
X211425Y179894D01*
X211444Y179825D01*
X211459Y179755D01*
X211470Y179685D01*
X211478Y179614D01*
X211482Y179543D01*
X211482Y179471D01*
X211478Y179400D01*
X211470Y179329D01*
X211459Y179259D01*
X211444Y179189D01*
X211425Y179120D01*
X211402Y179052D01*
X211376Y178986D01*
X211347Y178921D01*
X211314Y178857D01*
X211278Y178796D01*
X211238Y178736D01*
X211196Y178679D01*
X211150Y178624D01*
X211102Y178571D01*
X211051Y178522D01*
X210997Y178475D01*
X210941Y178431D01*
X210882Y178390D01*
X210822Y178352D01*
X210759Y178317D01*
X210695Y178286D01*
X210629Y178258D01*
X210562Y178234D01*
X210494Y178213D01*
X210424Y178196D01*
X210354Y178183D01*
X210284Y178174D01*
X210212Y178168D01*
X210141Y178166D01*
X210141Y178167D02*
X208800Y178167D01*
X210409Y178167D02*
X211481Y176022D01*
X214223Y180312D02*
X214223Y180848D01*
X216904Y180848D01*
X215563Y176022D01*
X216166Y234188D02*
X216166Y239014D01*
X217507Y239014D01*
X217578Y239012D01*
X217650Y239006D01*
X217720Y238997D01*
X217790Y238984D01*
X217860Y238967D01*
X217928Y238946D01*
X217995Y238922D01*
X218061Y238894D01*
X218125Y238863D01*
X218188Y238828D01*
X218248Y238790D01*
X218307Y238749D01*
X218363Y238705D01*
X218417Y238658D01*
X218468Y238609D01*
X218516Y238556D01*
X218562Y238501D01*
X218604Y238444D01*
X218644Y238384D01*
X218680Y238323D01*
X218713Y238259D01*
X218742Y238194D01*
X218768Y238128D01*
X218791Y238060D01*
X218810Y237991D01*
X218825Y237921D01*
X218836Y237851D01*
X218844Y237780D01*
X218848Y237709D01*
X218848Y237637D01*
X218844Y237566D01*
X218836Y237495D01*
X218825Y237425D01*
X218810Y237355D01*
X218791Y237286D01*
X218768Y237218D01*
X218742Y237152D01*
X218713Y237087D01*
X218680Y237023D01*
X218644Y236962D01*
X218604Y236902D01*
X218562Y236845D01*
X218516Y236790D01*
X218468Y236737D01*
X218417Y236688D01*
X218363Y236641D01*
X218307Y236597D01*
X218248Y236556D01*
X218188Y236518D01*
X218125Y236483D01*
X218061Y236452D01*
X217995Y236424D01*
X217928Y236400D01*
X217860Y236379D01*
X217790Y236362D01*
X217720Y236349D01*
X217650Y236340D01*
X217578Y236334D01*
X217507Y236332D01*
X217507Y236333D02*
X216166Y236333D01*
X217775Y236333D02*
X218847Y234188D01*
X221588Y235529D02*
X221590Y235600D01*
X221596Y235672D01*
X221605Y235742D01*
X221618Y235812D01*
X221635Y235882D01*
X221656Y235950D01*
X221680Y236017D01*
X221708Y236083D01*
X221739Y236147D01*
X221774Y236210D01*
X221812Y236270D01*
X221853Y236329D01*
X221897Y236385D01*
X221944Y236439D01*
X221993Y236490D01*
X222046Y236538D01*
X222101Y236584D01*
X222158Y236626D01*
X222218Y236666D01*
X222279Y236702D01*
X222343Y236735D01*
X222408Y236764D01*
X222474Y236790D01*
X222542Y236813D01*
X222611Y236832D01*
X222681Y236847D01*
X222751Y236858D01*
X222822Y236866D01*
X222893Y236870D01*
X222965Y236870D01*
X223036Y236866D01*
X223107Y236858D01*
X223177Y236847D01*
X223247Y236832D01*
X223316Y236813D01*
X223384Y236790D01*
X223450Y236764D01*
X223515Y236735D01*
X223579Y236702D01*
X223640Y236666D01*
X223700Y236626D01*
X223757Y236584D01*
X223812Y236538D01*
X223865Y236490D01*
X223914Y236439D01*
X223961Y236385D01*
X224005Y236329D01*
X224046Y236270D01*
X224084Y236210D01*
X224119Y236147D01*
X224150Y236083D01*
X224178Y236017D01*
X224202Y235950D01*
X224223Y235882D01*
X224240Y235812D01*
X224253Y235742D01*
X224262Y235672D01*
X224268Y235600D01*
X224270Y235529D01*
X224268Y235458D01*
X224262Y235386D01*
X224253Y235316D01*
X224240Y235246D01*
X224223Y235176D01*
X224202Y235108D01*
X224178Y235041D01*
X224150Y234975D01*
X224119Y234911D01*
X224084Y234848D01*
X224046Y234788D01*
X224005Y234729D01*
X223961Y234673D01*
X223914Y234619D01*
X223865Y234568D01*
X223812Y234520D01*
X223757Y234474D01*
X223700Y234432D01*
X223640Y234392D01*
X223579Y234356D01*
X223515Y234323D01*
X223450Y234294D01*
X223384Y234268D01*
X223316Y234245D01*
X223247Y234226D01*
X223177Y234211D01*
X223107Y234200D01*
X223036Y234192D01*
X222965Y234188D01*
X222893Y234188D01*
X222822Y234192D01*
X222751Y234200D01*
X222681Y234211D01*
X222611Y234226D01*
X222542Y234245D01*
X222474Y234268D01*
X222408Y234294D01*
X222343Y234323D01*
X222279Y234356D01*
X222218Y234392D01*
X222158Y234432D01*
X222101Y234474D01*
X222046Y234520D01*
X221993Y234568D01*
X221944Y234619D01*
X221897Y234673D01*
X221853Y234729D01*
X221812Y234788D01*
X221774Y234848D01*
X221739Y234911D01*
X221708Y234975D01*
X221680Y235041D01*
X221656Y235108D01*
X221635Y235176D01*
X221618Y235246D01*
X221605Y235316D01*
X221596Y235386D01*
X221590Y235458D01*
X221588Y235529D01*
X221857Y237942D02*
X221859Y238007D01*
X221865Y238071D01*
X221875Y238135D01*
X221888Y238199D01*
X221906Y238261D01*
X221927Y238322D01*
X221951Y238382D01*
X221980Y238440D01*
X222012Y238497D01*
X222047Y238551D01*
X222085Y238603D01*
X222127Y238653D01*
X222171Y238700D01*
X222218Y238744D01*
X222268Y238786D01*
X222320Y238824D01*
X222374Y238859D01*
X222431Y238891D01*
X222489Y238920D01*
X222549Y238944D01*
X222610Y238965D01*
X222672Y238983D01*
X222736Y238996D01*
X222800Y239006D01*
X222864Y239012D01*
X222929Y239014D01*
X222994Y239012D01*
X223058Y239006D01*
X223122Y238996D01*
X223186Y238983D01*
X223248Y238965D01*
X223309Y238944D01*
X223369Y238920D01*
X223427Y238891D01*
X223484Y238859D01*
X223538Y238824D01*
X223590Y238786D01*
X223640Y238744D01*
X223687Y238700D01*
X223731Y238653D01*
X223773Y238603D01*
X223811Y238551D01*
X223846Y238497D01*
X223878Y238440D01*
X223907Y238382D01*
X223931Y238322D01*
X223952Y238261D01*
X223970Y238199D01*
X223983Y238135D01*
X223993Y238071D01*
X223999Y238007D01*
X224001Y237942D01*
X223999Y237877D01*
X223993Y237813D01*
X223983Y237749D01*
X223970Y237685D01*
X223952Y237623D01*
X223931Y237562D01*
X223907Y237502D01*
X223878Y237444D01*
X223846Y237387D01*
X223811Y237333D01*
X223773Y237281D01*
X223731Y237231D01*
X223687Y237184D01*
X223640Y237140D01*
X223590Y237098D01*
X223538Y237060D01*
X223484Y237025D01*
X223427Y236993D01*
X223369Y236964D01*
X223309Y236940D01*
X223248Y236919D01*
X223186Y236901D01*
X223122Y236888D01*
X223058Y236878D01*
X222994Y236872D01*
X222929Y236870D01*
X222864Y236872D01*
X222800Y236878D01*
X222736Y236888D01*
X222672Y236901D01*
X222610Y236919D01*
X222549Y236940D01*
X222489Y236964D01*
X222431Y236993D01*
X222374Y237025D01*
X222320Y237060D01*
X222268Y237098D01*
X222218Y237140D01*
X222171Y237184D01*
X222127Y237231D01*
X222085Y237281D01*
X222047Y237333D01*
X222012Y237387D01*
X221980Y237444D01*
X221951Y237502D01*
X221927Y237562D01*
X221906Y237623D01*
X221888Y237685D01*
X221875Y237749D01*
X221865Y237813D01*
X221859Y237877D01*
X221857Y237942D01*
D39*
X286956Y267589D02*
X286956Y280289D01*
X359706Y324139D02*
X359706Y122139D01*
X269706Y122139D02*
X269706Y201139D01*
X269706Y245139D01*
X269706Y324139D01*
X358706Y324139D01*
X359706Y122139D02*
X269706Y122139D01*
X269706Y245139D02*
X284706Y245139D01*
X284706Y201139D01*
X269706Y201139D01*
D40*
X283676Y359593D02*
X283676Y363347D01*
X283675Y359593D02*
X283673Y359528D01*
X283667Y359464D01*
X283657Y359400D01*
X283644Y359336D01*
X283626Y359274D01*
X283605Y359213D01*
X283581Y359153D01*
X283552Y359095D01*
X283520Y359038D01*
X283485Y358984D01*
X283447Y358932D01*
X283405Y358882D01*
X283361Y358835D01*
X283314Y358791D01*
X283264Y358749D01*
X283212Y358711D01*
X283158Y358676D01*
X283101Y358644D01*
X283043Y358615D01*
X282983Y358591D01*
X282922Y358570D01*
X282860Y358552D01*
X282796Y358539D01*
X282732Y358529D01*
X282668Y358523D01*
X282603Y358521D01*
X282067Y358521D01*
X286624Y358521D02*
X288232Y358521D01*
X288297Y358523D01*
X288361Y358529D01*
X288425Y358539D01*
X288489Y358552D01*
X288551Y358570D01*
X288612Y358591D01*
X288672Y358615D01*
X288730Y358644D01*
X288787Y358676D01*
X288841Y358711D01*
X288893Y358749D01*
X288943Y358791D01*
X288990Y358835D01*
X289034Y358882D01*
X289076Y358932D01*
X289114Y358984D01*
X289149Y359038D01*
X289181Y359095D01*
X289210Y359153D01*
X289234Y359213D01*
X289255Y359274D01*
X289273Y359336D01*
X289286Y359400D01*
X289296Y359464D01*
X289302Y359528D01*
X289304Y359593D01*
X289305Y359593D02*
X289305Y360130D01*
X289304Y360130D02*
X289302Y360195D01*
X289296Y360259D01*
X289286Y360323D01*
X289273Y360387D01*
X289255Y360449D01*
X289234Y360510D01*
X289210Y360570D01*
X289181Y360628D01*
X289149Y360685D01*
X289114Y360739D01*
X289076Y360791D01*
X289034Y360841D01*
X288990Y360888D01*
X288943Y360932D01*
X288893Y360974D01*
X288841Y361012D01*
X288787Y361047D01*
X288730Y361079D01*
X288672Y361108D01*
X288612Y361132D01*
X288551Y361153D01*
X288489Y361171D01*
X288425Y361184D01*
X288361Y361194D01*
X288297Y361200D01*
X288232Y361202D01*
X286624Y361202D01*
X286624Y363347D01*
X289305Y363347D01*
D39*
X256059Y255063D02*
X243559Y255063D01*
X256059Y246363D02*
X256059Y228363D01*
X243559Y228363D02*
X243559Y246363D01*
D40*
X240665Y234966D02*
X235839Y234966D01*
X235839Y236306D01*
X235841Y236376D01*
X235846Y236446D01*
X235856Y236516D01*
X235868Y236585D01*
X235885Y236653D01*
X235905Y236720D01*
X235928Y236787D01*
X235955Y236851D01*
X235985Y236915D01*
X236019Y236977D01*
X236055Y237036D01*
X236095Y237094D01*
X236138Y237150D01*
X236183Y237203D01*
X236232Y237254D01*
X236283Y237303D01*
X236336Y237348D01*
X236392Y237391D01*
X236450Y237431D01*
X236510Y237467D01*
X236571Y237501D01*
X236635Y237531D01*
X236699Y237558D01*
X236766Y237581D01*
X236833Y237601D01*
X236901Y237618D01*
X236970Y237630D01*
X237040Y237640D01*
X237110Y237645D01*
X237180Y237647D01*
X239324Y237647D01*
X239394Y237645D01*
X239464Y237640D01*
X239534Y237630D01*
X239603Y237618D01*
X239671Y237601D01*
X239738Y237581D01*
X239805Y237558D01*
X239869Y237531D01*
X239933Y237501D01*
X239995Y237467D01*
X240054Y237431D01*
X240112Y237391D01*
X240168Y237348D01*
X240221Y237303D01*
X240272Y237254D01*
X240321Y237203D01*
X240366Y237150D01*
X240409Y237094D01*
X240449Y237036D01*
X240485Y236976D01*
X240519Y236915D01*
X240549Y236851D01*
X240576Y236787D01*
X240599Y236720D01*
X240619Y236653D01*
X240636Y236585D01*
X240648Y236516D01*
X240658Y236446D01*
X240663Y236376D01*
X240665Y236306D01*
X240665Y234966D01*
X236911Y240635D02*
X235839Y241976D01*
X240665Y241976D01*
X240665Y243316D02*
X240665Y240635D01*
D38*
X441013Y293215D02*
X441013Y297561D01*
X441013Y293215D02*
X441011Y293145D01*
X441005Y293076D01*
X440995Y293007D01*
X440982Y292939D01*
X440964Y292871D01*
X440943Y292805D01*
X440918Y292740D01*
X440890Y292676D01*
X440858Y292614D01*
X440823Y292554D01*
X440784Y292496D01*
X440742Y292441D01*
X440697Y292387D01*
X440649Y292337D01*
X440599Y292289D01*
X440545Y292244D01*
X440490Y292202D01*
X440432Y292163D01*
X440372Y292128D01*
X440310Y292096D01*
X440246Y292068D01*
X440181Y292043D01*
X440115Y292022D01*
X440047Y292004D01*
X439979Y291991D01*
X439910Y291981D01*
X439841Y291975D01*
X439771Y291973D01*
X439150Y291973D01*
X443555Y296319D02*
X445107Y297561D01*
X445107Y291973D01*
X443555Y291973D02*
X446659Y291973D01*
D40*
X85979Y123202D02*
X81153Y123202D01*
X81153Y124543D01*
X81155Y124614D01*
X81161Y124686D01*
X81170Y124756D01*
X81183Y124826D01*
X81200Y124896D01*
X81221Y124964D01*
X81245Y125031D01*
X81273Y125097D01*
X81304Y125161D01*
X81339Y125224D01*
X81377Y125284D01*
X81418Y125343D01*
X81462Y125399D01*
X81509Y125453D01*
X81558Y125504D01*
X81611Y125552D01*
X81666Y125598D01*
X81723Y125640D01*
X81783Y125680D01*
X81844Y125716D01*
X81908Y125749D01*
X81973Y125778D01*
X82039Y125804D01*
X82107Y125827D01*
X82176Y125846D01*
X82246Y125861D01*
X82316Y125872D01*
X82387Y125880D01*
X82458Y125884D01*
X82530Y125884D01*
X82601Y125880D01*
X82672Y125872D01*
X82742Y125861D01*
X82812Y125846D01*
X82881Y125827D01*
X82949Y125804D01*
X83015Y125778D01*
X83080Y125749D01*
X83144Y125716D01*
X83205Y125680D01*
X83265Y125640D01*
X83322Y125598D01*
X83377Y125552D01*
X83430Y125504D01*
X83479Y125453D01*
X83526Y125399D01*
X83570Y125343D01*
X83611Y125284D01*
X83649Y125224D01*
X83684Y125161D01*
X83715Y125097D01*
X83743Y125031D01*
X83767Y124964D01*
X83788Y124896D01*
X83805Y124826D01*
X83818Y124756D01*
X83827Y124686D01*
X83833Y124614D01*
X83835Y124543D01*
X83834Y124543D02*
X83834Y123202D01*
X83834Y124811D02*
X85979Y125883D01*
X83834Y129697D02*
X83834Y131306D01*
X83834Y129697D02*
X83832Y129632D01*
X83826Y129568D01*
X83816Y129504D01*
X83803Y129440D01*
X83785Y129378D01*
X83764Y129317D01*
X83740Y129257D01*
X83711Y129199D01*
X83679Y129142D01*
X83644Y129088D01*
X83606Y129036D01*
X83564Y128986D01*
X83520Y128939D01*
X83473Y128895D01*
X83423Y128853D01*
X83371Y128815D01*
X83317Y128780D01*
X83260Y128748D01*
X83202Y128719D01*
X83142Y128695D01*
X83081Y128674D01*
X83019Y128656D01*
X82955Y128643D01*
X82891Y128633D01*
X82827Y128627D01*
X82762Y128625D01*
X82494Y128625D01*
X82494Y128624D02*
X82423Y128626D01*
X82351Y128632D01*
X82281Y128641D01*
X82211Y128654D01*
X82141Y128671D01*
X82073Y128692D01*
X82006Y128716D01*
X81940Y128744D01*
X81876Y128775D01*
X81813Y128810D01*
X81753Y128848D01*
X81694Y128889D01*
X81638Y128933D01*
X81584Y128980D01*
X81533Y129029D01*
X81485Y129082D01*
X81439Y129137D01*
X81397Y129194D01*
X81357Y129254D01*
X81321Y129315D01*
X81288Y129379D01*
X81259Y129444D01*
X81233Y129510D01*
X81210Y129578D01*
X81191Y129647D01*
X81176Y129717D01*
X81165Y129787D01*
X81157Y129858D01*
X81153Y129929D01*
X81153Y130001D01*
X81157Y130072D01*
X81165Y130143D01*
X81176Y130213D01*
X81191Y130283D01*
X81210Y130352D01*
X81233Y130420D01*
X81259Y130486D01*
X81288Y130551D01*
X81321Y130615D01*
X81357Y130676D01*
X81397Y130736D01*
X81439Y130793D01*
X81485Y130848D01*
X81533Y130901D01*
X81584Y130950D01*
X81638Y130997D01*
X81694Y131041D01*
X81753Y131082D01*
X81813Y131120D01*
X81876Y131155D01*
X81940Y131186D01*
X82006Y131214D01*
X82073Y131238D01*
X82141Y131259D01*
X82211Y131276D01*
X82281Y131289D01*
X82351Y131298D01*
X82423Y131304D01*
X82494Y131306D01*
X83834Y131306D01*
X83925Y131304D01*
X84016Y131298D01*
X84106Y131289D01*
X84197Y131275D01*
X84286Y131258D01*
X84374Y131237D01*
X84462Y131212D01*
X84549Y131183D01*
X84634Y131151D01*
X84718Y131116D01*
X84800Y131076D01*
X84880Y131034D01*
X84959Y130988D01*
X85035Y130938D01*
X85109Y130886D01*
X85182Y130830D01*
X85251Y130771D01*
X85318Y130710D01*
X85383Y130645D01*
X85444Y130578D01*
X85503Y130509D01*
X85559Y130436D01*
X85611Y130362D01*
X85661Y130286D01*
X85707Y130207D01*
X85749Y130127D01*
X85789Y130045D01*
X85824Y129961D01*
X85856Y129876D01*
X85885Y129789D01*
X85910Y129701D01*
X85931Y129613D01*
X85948Y129524D01*
X85962Y129433D01*
X85971Y129343D01*
X85977Y129252D01*
X85979Y129161D01*
X98425Y243649D02*
X103251Y243649D01*
X98425Y243649D02*
X98425Y244990D01*
X98427Y245061D01*
X98433Y245133D01*
X98442Y245203D01*
X98455Y245273D01*
X98472Y245343D01*
X98493Y245411D01*
X98517Y245478D01*
X98545Y245544D01*
X98576Y245608D01*
X98611Y245671D01*
X98649Y245731D01*
X98690Y245790D01*
X98734Y245846D01*
X98781Y245900D01*
X98830Y245951D01*
X98883Y245999D01*
X98938Y246045D01*
X98995Y246087D01*
X99055Y246127D01*
X99116Y246163D01*
X99180Y246196D01*
X99245Y246225D01*
X99311Y246251D01*
X99379Y246274D01*
X99448Y246293D01*
X99518Y246308D01*
X99588Y246319D01*
X99659Y246327D01*
X99730Y246331D01*
X99802Y246331D01*
X99873Y246327D01*
X99944Y246319D01*
X100014Y246308D01*
X100084Y246293D01*
X100153Y246274D01*
X100221Y246251D01*
X100287Y246225D01*
X100352Y246196D01*
X100416Y246163D01*
X100477Y246127D01*
X100537Y246087D01*
X100594Y246045D01*
X100649Y245999D01*
X100702Y245951D01*
X100751Y245900D01*
X100798Y245846D01*
X100842Y245790D01*
X100883Y245731D01*
X100921Y245671D01*
X100956Y245608D01*
X100987Y245544D01*
X101015Y245478D01*
X101039Y245411D01*
X101060Y245343D01*
X101077Y245273D01*
X101090Y245203D01*
X101099Y245133D01*
X101105Y245061D01*
X101107Y244990D01*
X101106Y244990D02*
X101106Y243649D01*
X101106Y245258D02*
X103251Y246330D01*
X99497Y249072D02*
X98425Y250412D01*
X103251Y250412D01*
X103251Y249072D02*
X103251Y251753D01*
X100838Y254558D02*
X100718Y254560D01*
X100598Y254565D01*
X100478Y254574D01*
X100358Y254587D01*
X100239Y254603D01*
X100120Y254623D01*
X100002Y254647D01*
X99885Y254674D01*
X99769Y254704D01*
X99654Y254738D01*
X99539Y254776D01*
X99426Y254817D01*
X99315Y254861D01*
X99204Y254909D01*
X99095Y254960D01*
X99095Y254961D02*
X99038Y254982D01*
X98982Y255008D01*
X98927Y255036D01*
X98875Y255068D01*
X98824Y255104D01*
X98776Y255142D01*
X98730Y255183D01*
X98687Y255227D01*
X98647Y255273D01*
X98610Y255322D01*
X98576Y255374D01*
X98545Y255427D01*
X98517Y255482D01*
X98493Y255538D01*
X98472Y255596D01*
X98455Y255655D01*
X98442Y255715D01*
X98433Y255776D01*
X98427Y255838D01*
X98425Y255899D01*
X98427Y255960D01*
X98433Y256022D01*
X98442Y256083D01*
X98455Y256143D01*
X98472Y256202D01*
X98493Y256260D01*
X98517Y256316D01*
X98545Y256371D01*
X98576Y256424D01*
X98610Y256476D01*
X98647Y256525D01*
X98687Y256571D01*
X98730Y256615D01*
X98776Y256656D01*
X98824Y256694D01*
X98875Y256730D01*
X98927Y256762D01*
X98982Y256790D01*
X99038Y256816D01*
X99095Y256837D01*
X99204Y256888D01*
X99315Y256936D01*
X99426Y256980D01*
X99539Y257021D01*
X99654Y257059D01*
X99769Y257093D01*
X99885Y257123D01*
X100002Y257150D01*
X100120Y257174D01*
X100239Y257194D01*
X100358Y257210D01*
X100478Y257223D01*
X100598Y257232D01*
X100718Y257237D01*
X100838Y257239D01*
X100838Y254558D02*
X100958Y254560D01*
X101078Y254565D01*
X101198Y254574D01*
X101318Y254587D01*
X101437Y254603D01*
X101556Y254623D01*
X101674Y254647D01*
X101791Y254674D01*
X101907Y254704D01*
X102022Y254738D01*
X102137Y254776D01*
X102250Y254817D01*
X102361Y254861D01*
X102472Y254909D01*
X102581Y254960D01*
X102581Y254961D02*
X102638Y254982D01*
X102694Y255008D01*
X102749Y255036D01*
X102801Y255068D01*
X102852Y255104D01*
X102900Y255142D01*
X102946Y255183D01*
X102989Y255227D01*
X103029Y255273D01*
X103066Y255322D01*
X103100Y255374D01*
X103131Y255427D01*
X103159Y255482D01*
X103183Y255538D01*
X103204Y255596D01*
X103221Y255655D01*
X103234Y255715D01*
X103243Y255776D01*
X103249Y255838D01*
X103251Y255899D01*
X102581Y256837D02*
X102472Y256888D01*
X102361Y256936D01*
X102250Y256980D01*
X102137Y257021D01*
X102022Y257059D01*
X101907Y257093D01*
X101791Y257123D01*
X101674Y257150D01*
X101556Y257174D01*
X101437Y257194D01*
X101318Y257210D01*
X101198Y257223D01*
X101078Y257232D01*
X100958Y257237D01*
X100838Y257239D01*
X102581Y256837D02*
X102638Y256816D01*
X102694Y256790D01*
X102749Y256762D01*
X102801Y256730D01*
X102852Y256694D01*
X102900Y256656D01*
X102946Y256615D01*
X102989Y256571D01*
X103029Y256524D01*
X103066Y256476D01*
X103100Y256424D01*
X103131Y256371D01*
X103159Y256316D01*
X103183Y256260D01*
X103204Y256202D01*
X103221Y256143D01*
X103234Y256083D01*
X103243Y256022D01*
X103249Y255960D01*
X103251Y255899D01*
X102179Y254826D02*
X99497Y256971D01*
D43*
X395605Y204343D02*
X401193Y202015D01*
X395605Y199686D01*
X406158Y198755D02*
X406158Y207137D01*
X406158Y198755D02*
X409883Y198755D01*
X413283Y198755D02*
X416077Y207137D01*
X418871Y198755D01*
X418173Y200851D02*
X413982Y200851D01*
X423414Y203412D02*
X425742Y203412D01*
X425742Y203411D02*
X425837Y203409D01*
X425932Y203403D01*
X426026Y203394D01*
X426120Y203380D01*
X426214Y203363D01*
X426306Y203342D01*
X426398Y203317D01*
X426488Y203288D01*
X426578Y203256D01*
X426666Y203220D01*
X426752Y203180D01*
X426837Y203138D01*
X426920Y203091D01*
X427001Y203041D01*
X427079Y202988D01*
X427156Y202932D01*
X427230Y202873D01*
X427302Y202811D01*
X427371Y202746D01*
X427438Y202678D01*
X427501Y202608D01*
X427562Y202534D01*
X427620Y202459D01*
X427674Y202381D01*
X427726Y202301D01*
X427774Y202219D01*
X427818Y202136D01*
X427860Y202050D01*
X427897Y201963D01*
X427931Y201874D01*
X427962Y201784D01*
X427989Y201693D01*
X428012Y201601D01*
X428031Y201508D01*
X428046Y201414D01*
X428058Y201320D01*
X428066Y201225D01*
X428070Y201130D01*
X428070Y201036D01*
X428066Y200941D01*
X428058Y200846D01*
X428046Y200752D01*
X428031Y200658D01*
X428012Y200565D01*
X427989Y200473D01*
X427962Y200382D01*
X427931Y200292D01*
X427897Y200203D01*
X427860Y200116D01*
X427818Y200030D01*
X427774Y199947D01*
X427726Y199865D01*
X427674Y199785D01*
X427620Y199707D01*
X427562Y199632D01*
X427501Y199558D01*
X427438Y199488D01*
X427371Y199420D01*
X427302Y199355D01*
X427230Y199293D01*
X427156Y199234D01*
X427079Y199178D01*
X427001Y199125D01*
X426920Y199075D01*
X426837Y199028D01*
X426752Y198986D01*
X426666Y198946D01*
X426578Y198910D01*
X426488Y198878D01*
X426398Y198849D01*
X426306Y198824D01*
X426214Y198803D01*
X426120Y198786D01*
X426026Y198772D01*
X425932Y198763D01*
X425837Y198757D01*
X425742Y198755D01*
X423414Y198755D01*
X423414Y207137D01*
X425742Y207137D01*
X425827Y207135D01*
X425911Y207129D01*
X425996Y207120D01*
X426079Y207106D01*
X426162Y207089D01*
X426245Y207068D01*
X426326Y207043D01*
X426406Y207015D01*
X426484Y206983D01*
X426561Y206947D01*
X426637Y206908D01*
X426710Y206866D01*
X426781Y206820D01*
X426851Y206771D01*
X426918Y206719D01*
X426982Y206664D01*
X427044Y206606D01*
X427104Y206546D01*
X427160Y206482D01*
X427214Y206417D01*
X427264Y206348D01*
X427311Y206278D01*
X427355Y206206D01*
X427396Y206131D01*
X427433Y206055D01*
X427467Y205977D01*
X427497Y205898D01*
X427524Y205817D01*
X427547Y205736D01*
X427566Y205653D01*
X427581Y205570D01*
X427593Y205486D01*
X427601Y205401D01*
X427605Y205316D01*
X427605Y205232D01*
X427601Y205147D01*
X427593Y205062D01*
X427581Y204978D01*
X427566Y204895D01*
X427547Y204812D01*
X427524Y204731D01*
X427497Y204650D01*
X427467Y204571D01*
X427433Y204493D01*
X427396Y204417D01*
X427355Y204343D01*
X427311Y204270D01*
X427264Y204200D01*
X427214Y204131D01*
X427160Y204066D01*
X427104Y204002D01*
X427044Y203942D01*
X426982Y203884D01*
X426918Y203829D01*
X426851Y203777D01*
X426781Y203728D01*
X426710Y203682D01*
X426637Y203640D01*
X426561Y203601D01*
X426484Y203565D01*
X426406Y203533D01*
X426326Y203505D01*
X426245Y203480D01*
X426162Y203459D01*
X426079Y203442D01*
X425996Y203428D01*
X425911Y203419D01*
X425827Y203413D01*
X425742Y203411D01*
X432371Y198755D02*
X436096Y198755D01*
X432371Y198755D02*
X432371Y207137D01*
X436096Y207137D01*
X435165Y203412D02*
X432371Y203412D01*
X440295Y207137D02*
X440295Y198755D01*
X444021Y198755D01*
X430657Y89535D02*
X425069Y81153D01*
X430657Y81153D02*
X425069Y89535D01*
X434679Y87672D02*
X437007Y89535D01*
X437007Y81153D01*
X434679Y81153D02*
X439335Y81153D01*
D41*
X394716Y286639D02*
X394716Y294259D01*
X390906Y290449D02*
X398526Y290449D01*
X417576Y306705D02*
X417576Y385445D01*
X410464Y385445D01*
X371856Y385445D02*
X371856Y306705D01*
X378968Y306705D01*
X410464Y306705D02*
X417576Y306705D01*
X378968Y385445D02*
X371856Y385445D01*
D44*
X422529Y345101D02*
X422529Y344255D01*
X422529Y345101D02*
X422531Y345156D01*
X422536Y345212D01*
X422545Y345266D01*
X422558Y345320D01*
X422574Y345373D01*
X422593Y345425D01*
X422616Y345476D01*
X422642Y345525D01*
X422672Y345572D01*
X422704Y345617D01*
X422739Y345659D01*
X422777Y345700D01*
X422818Y345738D01*
X422860Y345773D01*
X422905Y345805D01*
X422953Y345835D01*
X423001Y345861D01*
X423052Y345884D01*
X423104Y345903D01*
X423157Y345919D01*
X423211Y345932D01*
X423265Y345941D01*
X423321Y345946D01*
X423376Y345948D01*
X425492Y345948D01*
X425550Y345946D01*
X425607Y345940D01*
X425664Y345930D01*
X425721Y345917D01*
X425776Y345899D01*
X425829Y345878D01*
X425882Y345853D01*
X425932Y345825D01*
X425980Y345793D01*
X426027Y345758D01*
X426070Y345720D01*
X426111Y345679D01*
X426149Y345636D01*
X426184Y345589D01*
X426216Y345541D01*
X426244Y345491D01*
X426269Y345438D01*
X426290Y345385D01*
X426308Y345330D01*
X426321Y345273D01*
X426331Y345216D01*
X426337Y345159D01*
X426339Y345101D01*
X426339Y344255D01*
X423587Y342890D02*
X423651Y342888D01*
X423715Y342882D01*
X423778Y342873D01*
X423840Y342859D01*
X423902Y342842D01*
X423962Y342821D01*
X424021Y342797D01*
X424079Y342769D01*
X424134Y342737D01*
X424188Y342703D01*
X424239Y342665D01*
X424289Y342624D01*
X424335Y342580D01*
X424379Y342534D01*
X424420Y342484D01*
X424458Y342433D01*
X424492Y342379D01*
X424524Y342324D01*
X424552Y342266D01*
X424576Y342207D01*
X424597Y342147D01*
X424614Y342085D01*
X424628Y342023D01*
X424637Y341960D01*
X424643Y341896D01*
X424645Y341832D01*
X424643Y341768D01*
X424637Y341704D01*
X424628Y341641D01*
X424614Y341579D01*
X424597Y341517D01*
X424576Y341457D01*
X424552Y341398D01*
X424524Y341340D01*
X424492Y341285D01*
X424458Y341231D01*
X424420Y341180D01*
X424379Y341130D01*
X424335Y341084D01*
X424289Y341040D01*
X424239Y340999D01*
X424188Y340961D01*
X424134Y340927D01*
X424079Y340895D01*
X424021Y340867D01*
X423962Y340843D01*
X423902Y340822D01*
X423840Y340805D01*
X423778Y340791D01*
X423715Y340782D01*
X423651Y340776D01*
X423587Y340774D01*
X423523Y340776D01*
X423459Y340782D01*
X423396Y340791D01*
X423334Y340805D01*
X423272Y340822D01*
X423212Y340843D01*
X423153Y340867D01*
X423095Y340895D01*
X423040Y340927D01*
X422986Y340961D01*
X422935Y340999D01*
X422885Y341040D01*
X422839Y341084D01*
X422795Y341130D01*
X422754Y341180D01*
X422716Y341231D01*
X422682Y341285D01*
X422650Y341340D01*
X422622Y341398D01*
X422598Y341457D01*
X422577Y341517D01*
X422560Y341579D01*
X422546Y341641D01*
X422537Y341704D01*
X422531Y341768D01*
X422529Y341832D01*
X422531Y341896D01*
X422537Y341960D01*
X422546Y342023D01*
X422560Y342085D01*
X422577Y342147D01*
X422598Y342207D01*
X422622Y342266D01*
X422650Y342324D01*
X422682Y342379D01*
X422716Y342433D01*
X422754Y342484D01*
X422795Y342534D01*
X422839Y342580D01*
X422885Y342624D01*
X422935Y342665D01*
X422986Y342703D01*
X423040Y342737D01*
X423095Y342769D01*
X423153Y342797D01*
X423212Y342821D01*
X423272Y342842D01*
X423334Y342859D01*
X423396Y342873D01*
X423459Y342882D01*
X423523Y342888D01*
X423587Y342890D01*
X425492Y342679D02*
X425549Y342677D01*
X425605Y342671D01*
X425661Y342662D01*
X425716Y342649D01*
X425770Y342632D01*
X425823Y342612D01*
X425874Y342588D01*
X425924Y342561D01*
X425971Y342530D01*
X426017Y342497D01*
X426060Y342460D01*
X426101Y342421D01*
X426139Y342379D01*
X426174Y342334D01*
X426206Y342288D01*
X426235Y342239D01*
X426260Y342189D01*
X426282Y342136D01*
X426301Y342083D01*
X426316Y342028D01*
X426327Y341973D01*
X426335Y341917D01*
X426339Y341860D01*
X426339Y341804D01*
X426335Y341747D01*
X426327Y341691D01*
X426316Y341636D01*
X426301Y341581D01*
X426282Y341528D01*
X426260Y341475D01*
X426235Y341425D01*
X426206Y341376D01*
X426174Y341330D01*
X426139Y341285D01*
X426101Y341243D01*
X426060Y341204D01*
X426017Y341167D01*
X425971Y341134D01*
X425924Y341103D01*
X425874Y341076D01*
X425823Y341052D01*
X425770Y341032D01*
X425716Y341015D01*
X425661Y341002D01*
X425605Y340993D01*
X425549Y340987D01*
X425492Y340985D01*
X425435Y340987D01*
X425379Y340993D01*
X425323Y341002D01*
X425268Y341015D01*
X425214Y341032D01*
X425161Y341052D01*
X425110Y341076D01*
X425060Y341103D01*
X425013Y341134D01*
X424967Y341167D01*
X424924Y341204D01*
X424883Y341243D01*
X424845Y341285D01*
X424810Y341330D01*
X424778Y341376D01*
X424749Y341425D01*
X424724Y341475D01*
X424702Y341528D01*
X424683Y341581D01*
X424668Y341636D01*
X424657Y341691D01*
X424649Y341747D01*
X424645Y341804D01*
X424645Y341860D01*
X424649Y341917D01*
X424657Y341973D01*
X424668Y342028D01*
X424683Y342083D01*
X424702Y342136D01*
X424724Y342189D01*
X424749Y342239D01*
X424778Y342288D01*
X424810Y342334D01*
X424845Y342379D01*
X424883Y342421D01*
X424924Y342460D01*
X424967Y342497D01*
X425013Y342530D01*
X425060Y342561D01*
X425110Y342588D01*
X425161Y342612D01*
X425214Y342632D01*
X425268Y342649D01*
X425323Y342662D01*
X425379Y342671D01*
X425435Y342677D01*
X425492Y342679D01*
D41*
X271399Y333375D02*
X263779Y333375D01*
X267589Y329565D02*
X267589Y337185D01*
X251333Y356235D02*
X172593Y356235D01*
X172593Y349123D01*
X172593Y310515D02*
X251333Y310515D01*
X251333Y317627D01*
X251333Y349123D02*
X251333Y356235D01*
X172593Y317627D02*
X172593Y310515D01*
D44*
X204625Y358648D02*
X205923Y358648D01*
X204625Y358648D02*
X204555Y358650D01*
X204485Y358656D01*
X204415Y358665D01*
X204346Y358678D01*
X204278Y358695D01*
X204211Y358716D01*
X204145Y358740D01*
X204080Y358768D01*
X204017Y358799D01*
X203956Y358834D01*
X203897Y358872D01*
X203839Y358913D01*
X203785Y358957D01*
X203732Y359004D01*
X203683Y359053D01*
X203636Y359106D01*
X203592Y359160D01*
X203551Y359218D01*
X203513Y359277D01*
X203478Y359338D01*
X203447Y359401D01*
X203419Y359466D01*
X203395Y359532D01*
X203374Y359599D01*
X203357Y359667D01*
X203344Y359736D01*
X203335Y359806D01*
X203329Y359876D01*
X203327Y359946D01*
X203327Y363192D01*
X203329Y363262D01*
X203335Y363332D01*
X203344Y363402D01*
X203357Y363471D01*
X203374Y363539D01*
X203395Y363606D01*
X203419Y363672D01*
X203447Y363737D01*
X203478Y363800D01*
X203513Y363861D01*
X203551Y363920D01*
X203592Y363978D01*
X203636Y364032D01*
X203683Y364085D01*
X203732Y364134D01*
X203785Y364181D01*
X203839Y364225D01*
X203897Y364266D01*
X203956Y364304D01*
X204017Y364339D01*
X204080Y364370D01*
X204145Y364398D01*
X204211Y364422D01*
X204278Y364443D01*
X204346Y364460D01*
X204415Y364473D01*
X204485Y364482D01*
X204555Y364488D01*
X204625Y364490D01*
X205923Y364490D01*
X207911Y364490D02*
X207911Y363841D01*
X207911Y364490D02*
X211157Y364490D01*
X209534Y358648D01*
D40*
X168021Y224310D02*
X168021Y223238D01*
X168019Y223173D01*
X168013Y223109D01*
X168003Y223045D01*
X167990Y222981D01*
X167972Y222919D01*
X167951Y222858D01*
X167927Y222798D01*
X167898Y222740D01*
X167866Y222683D01*
X167831Y222629D01*
X167793Y222577D01*
X167751Y222527D01*
X167707Y222480D01*
X167660Y222436D01*
X167610Y222394D01*
X167558Y222356D01*
X167504Y222321D01*
X167447Y222289D01*
X167389Y222260D01*
X167329Y222236D01*
X167268Y222215D01*
X167206Y222197D01*
X167142Y222184D01*
X167078Y222174D01*
X167014Y222168D01*
X166949Y222166D01*
X166949Y222165D02*
X164267Y222165D01*
X164202Y222167D01*
X164138Y222173D01*
X164074Y222183D01*
X164010Y222196D01*
X163948Y222214D01*
X163887Y222235D01*
X163827Y222260D01*
X163768Y222288D01*
X163712Y222320D01*
X163657Y222355D01*
X163605Y222393D01*
X163555Y222435D01*
X163508Y222479D01*
X163464Y222526D01*
X163422Y222576D01*
X163384Y222628D01*
X163349Y222683D01*
X163317Y222739D01*
X163289Y222798D01*
X163264Y222857D01*
X163243Y222919D01*
X163225Y222981D01*
X163212Y223045D01*
X163202Y223109D01*
X163196Y223173D01*
X163194Y223238D01*
X163195Y223238D02*
X163195Y224310D01*
X164267Y226766D02*
X163195Y228106D01*
X168021Y228106D01*
X168021Y226766D02*
X168021Y229447D01*
X182245Y223421D02*
X182245Y222349D01*
X182243Y222284D01*
X182237Y222220D01*
X182227Y222156D01*
X182214Y222092D01*
X182196Y222030D01*
X182175Y221969D01*
X182151Y221909D01*
X182122Y221851D01*
X182090Y221794D01*
X182055Y221740D01*
X182017Y221688D01*
X181975Y221638D01*
X181931Y221591D01*
X181884Y221547D01*
X181834Y221505D01*
X181782Y221467D01*
X181728Y221432D01*
X181671Y221400D01*
X181613Y221371D01*
X181553Y221347D01*
X181492Y221326D01*
X181430Y221308D01*
X181366Y221295D01*
X181302Y221285D01*
X181238Y221279D01*
X181173Y221277D01*
X181173Y221276D02*
X178491Y221276D01*
X178426Y221278D01*
X178362Y221284D01*
X178298Y221294D01*
X178234Y221307D01*
X178172Y221325D01*
X178111Y221346D01*
X178051Y221371D01*
X177992Y221399D01*
X177936Y221431D01*
X177881Y221466D01*
X177829Y221504D01*
X177779Y221546D01*
X177732Y221590D01*
X177688Y221637D01*
X177646Y221687D01*
X177608Y221739D01*
X177573Y221794D01*
X177541Y221850D01*
X177513Y221909D01*
X177488Y221968D01*
X177467Y222030D01*
X177449Y222092D01*
X177436Y222156D01*
X177426Y222220D01*
X177420Y222284D01*
X177418Y222349D01*
X177419Y222349D02*
X177419Y223421D01*
X177419Y227351D02*
X177421Y227419D01*
X177427Y227486D01*
X177436Y227553D01*
X177449Y227620D01*
X177466Y227685D01*
X177487Y227750D01*
X177511Y227813D01*
X177539Y227875D01*
X177570Y227935D01*
X177604Y227993D01*
X177642Y228049D01*
X177682Y228104D01*
X177726Y228155D01*
X177773Y228204D01*
X177822Y228251D01*
X177873Y228295D01*
X177928Y228335D01*
X177984Y228373D01*
X178042Y228407D01*
X178102Y228438D01*
X178164Y228466D01*
X178227Y228490D01*
X178292Y228511D01*
X178357Y228528D01*
X178424Y228541D01*
X178491Y228550D01*
X178558Y228556D01*
X178626Y228558D01*
X177419Y227351D02*
X177421Y227273D01*
X177427Y227195D01*
X177437Y227118D01*
X177450Y227041D01*
X177468Y226965D01*
X177489Y226890D01*
X177514Y226816D01*
X177543Y226744D01*
X177575Y226673D01*
X177611Y226604D01*
X177650Y226536D01*
X177693Y226471D01*
X177739Y226408D01*
X177788Y226347D01*
X177840Y226289D01*
X177895Y226234D01*
X177952Y226181D01*
X178012Y226132D01*
X178075Y226085D01*
X178140Y226042D01*
X178206Y226002D01*
X178275Y225965D01*
X178346Y225932D01*
X178418Y225902D01*
X178492Y225876D01*
X179564Y228156D02*
X179515Y228205D01*
X179463Y228252D01*
X179408Y228295D01*
X179351Y228336D01*
X179292Y228374D01*
X179231Y228408D01*
X179168Y228439D01*
X179104Y228467D01*
X179038Y228491D01*
X178972Y228511D01*
X178904Y228528D01*
X178835Y228541D01*
X178766Y228550D01*
X178696Y228556D01*
X178626Y228558D01*
X179564Y228156D02*
X182245Y225877D01*
X182245Y228558D01*
X255524Y150142D02*
X255524Y149070D01*
X255522Y149005D01*
X255516Y148941D01*
X255506Y148877D01*
X255493Y148813D01*
X255475Y148751D01*
X255454Y148690D01*
X255430Y148630D01*
X255401Y148572D01*
X255369Y148515D01*
X255334Y148461D01*
X255296Y148409D01*
X255254Y148359D01*
X255210Y148312D01*
X255163Y148268D01*
X255113Y148226D01*
X255061Y148188D01*
X255007Y148153D01*
X254950Y148121D01*
X254892Y148092D01*
X254832Y148068D01*
X254771Y148047D01*
X254709Y148029D01*
X254645Y148016D01*
X254581Y148006D01*
X254517Y148000D01*
X254452Y147998D01*
X254452Y147997D02*
X251770Y147997D01*
X251705Y147999D01*
X251641Y148005D01*
X251577Y148015D01*
X251513Y148028D01*
X251451Y148046D01*
X251390Y148067D01*
X251330Y148092D01*
X251271Y148120D01*
X251215Y148152D01*
X251160Y148187D01*
X251108Y148225D01*
X251058Y148267D01*
X251011Y148311D01*
X250967Y148358D01*
X250925Y148408D01*
X250887Y148460D01*
X250852Y148515D01*
X250820Y148571D01*
X250792Y148630D01*
X250767Y148689D01*
X250746Y148751D01*
X250728Y148813D01*
X250715Y148877D01*
X250705Y148941D01*
X250699Y149005D01*
X250697Y149070D01*
X250698Y149070D02*
X250698Y150142D01*
X255524Y152598D02*
X255524Y153938D01*
X255522Y154009D01*
X255516Y154081D01*
X255507Y154151D01*
X255494Y154221D01*
X255477Y154291D01*
X255456Y154359D01*
X255432Y154426D01*
X255404Y154492D01*
X255373Y154556D01*
X255338Y154619D01*
X255300Y154679D01*
X255259Y154738D01*
X255215Y154794D01*
X255168Y154848D01*
X255119Y154899D01*
X255066Y154947D01*
X255011Y154993D01*
X254954Y155035D01*
X254894Y155075D01*
X254833Y155111D01*
X254769Y155144D01*
X254704Y155173D01*
X254638Y155199D01*
X254570Y155222D01*
X254501Y155241D01*
X254431Y155256D01*
X254361Y155267D01*
X254290Y155275D01*
X254219Y155279D01*
X254147Y155279D01*
X254076Y155275D01*
X254005Y155267D01*
X253935Y155256D01*
X253865Y155241D01*
X253796Y155222D01*
X253728Y155199D01*
X253662Y155173D01*
X253597Y155144D01*
X253533Y155111D01*
X253472Y155075D01*
X253412Y155035D01*
X253355Y154993D01*
X253300Y154947D01*
X253247Y154899D01*
X253198Y154848D01*
X253151Y154794D01*
X253107Y154738D01*
X253066Y154679D01*
X253028Y154619D01*
X252993Y154556D01*
X252962Y154492D01*
X252934Y154426D01*
X252910Y154359D01*
X252889Y154291D01*
X252872Y154221D01*
X252859Y154151D01*
X252850Y154081D01*
X252844Y154009D01*
X252842Y153938D01*
X250698Y154206D02*
X250698Y152598D01*
X250698Y154206D02*
X250700Y154271D01*
X250706Y154335D01*
X250716Y154399D01*
X250729Y154463D01*
X250747Y154525D01*
X250768Y154586D01*
X250792Y154646D01*
X250821Y154704D01*
X250853Y154761D01*
X250888Y154815D01*
X250926Y154867D01*
X250968Y154917D01*
X251012Y154964D01*
X251059Y155008D01*
X251109Y155050D01*
X251161Y155088D01*
X251215Y155123D01*
X251272Y155155D01*
X251330Y155184D01*
X251390Y155208D01*
X251451Y155229D01*
X251513Y155247D01*
X251577Y155260D01*
X251641Y155270D01*
X251705Y155276D01*
X251770Y155278D01*
X251835Y155276D01*
X251899Y155270D01*
X251963Y155260D01*
X252027Y155247D01*
X252089Y155229D01*
X252150Y155208D01*
X252210Y155184D01*
X252268Y155155D01*
X252325Y155123D01*
X252379Y155088D01*
X252431Y155050D01*
X252481Y155008D01*
X252528Y154964D01*
X252572Y154917D01*
X252614Y154867D01*
X252652Y154815D01*
X252687Y154761D01*
X252719Y154704D01*
X252748Y154646D01*
X252772Y154586D01*
X252793Y154525D01*
X252811Y154463D01*
X252824Y154399D01*
X252834Y154335D01*
X252840Y154271D01*
X252842Y154206D01*
X252843Y154206D02*
X252843Y153134D01*
X220218Y150396D02*
X220218Y149324D01*
X220216Y149259D01*
X220210Y149195D01*
X220200Y149131D01*
X220187Y149067D01*
X220169Y149005D01*
X220148Y148944D01*
X220124Y148884D01*
X220095Y148826D01*
X220063Y148769D01*
X220028Y148715D01*
X219990Y148663D01*
X219948Y148613D01*
X219904Y148566D01*
X219857Y148522D01*
X219807Y148480D01*
X219755Y148442D01*
X219701Y148407D01*
X219644Y148375D01*
X219586Y148346D01*
X219526Y148322D01*
X219465Y148301D01*
X219403Y148283D01*
X219339Y148270D01*
X219275Y148260D01*
X219211Y148254D01*
X219146Y148252D01*
X219146Y148251D02*
X216464Y148251D01*
X216399Y148253D01*
X216335Y148259D01*
X216271Y148269D01*
X216207Y148282D01*
X216145Y148300D01*
X216084Y148321D01*
X216024Y148346D01*
X215965Y148374D01*
X215909Y148406D01*
X215854Y148441D01*
X215802Y148479D01*
X215752Y148521D01*
X215705Y148565D01*
X215661Y148612D01*
X215619Y148662D01*
X215581Y148714D01*
X215546Y148769D01*
X215514Y148825D01*
X215486Y148884D01*
X215461Y148943D01*
X215440Y149005D01*
X215422Y149067D01*
X215409Y149131D01*
X215399Y149195D01*
X215393Y149259D01*
X215391Y149324D01*
X215392Y149324D02*
X215392Y150396D01*
X215392Y153924D02*
X219146Y152852D01*
X219146Y155533D01*
X218073Y154729D02*
X220218Y154729D01*
X212090Y288516D02*
X212090Y289588D01*
X212090Y288516D02*
X212088Y288451D01*
X212082Y288387D01*
X212072Y288323D01*
X212059Y288259D01*
X212041Y288197D01*
X212020Y288136D01*
X211996Y288076D01*
X211967Y288018D01*
X211935Y287961D01*
X211900Y287907D01*
X211862Y287855D01*
X211820Y287805D01*
X211776Y287758D01*
X211729Y287714D01*
X211679Y287672D01*
X211627Y287634D01*
X211573Y287599D01*
X211516Y287567D01*
X211458Y287538D01*
X211398Y287514D01*
X211337Y287493D01*
X211275Y287475D01*
X211211Y287462D01*
X211147Y287452D01*
X211083Y287446D01*
X211018Y287444D01*
X211018Y287443D02*
X208336Y287443D01*
X208271Y287445D01*
X208207Y287451D01*
X208143Y287461D01*
X208079Y287474D01*
X208017Y287492D01*
X207956Y287513D01*
X207896Y287538D01*
X207837Y287566D01*
X207781Y287598D01*
X207726Y287633D01*
X207674Y287671D01*
X207624Y287713D01*
X207577Y287757D01*
X207533Y287804D01*
X207491Y287854D01*
X207453Y287906D01*
X207418Y287961D01*
X207386Y288017D01*
X207358Y288076D01*
X207333Y288135D01*
X207312Y288197D01*
X207294Y288259D01*
X207281Y288323D01*
X207271Y288387D01*
X207265Y288451D01*
X207263Y288516D01*
X207264Y288516D02*
X207264Y289588D01*
X212090Y292044D02*
X212090Y293652D01*
X212088Y293717D01*
X212082Y293781D01*
X212072Y293845D01*
X212059Y293909D01*
X212041Y293971D01*
X212020Y294032D01*
X211996Y294092D01*
X211967Y294150D01*
X211935Y294207D01*
X211900Y294261D01*
X211862Y294313D01*
X211820Y294363D01*
X211776Y294410D01*
X211729Y294454D01*
X211679Y294496D01*
X211627Y294534D01*
X211573Y294569D01*
X211516Y294601D01*
X211458Y294630D01*
X211398Y294654D01*
X211337Y294675D01*
X211275Y294693D01*
X211211Y294706D01*
X211147Y294716D01*
X211083Y294722D01*
X211018Y294724D01*
X211018Y294725D02*
X210481Y294725D01*
X210481Y294724D02*
X210416Y294722D01*
X210352Y294716D01*
X210288Y294706D01*
X210224Y294693D01*
X210162Y294675D01*
X210101Y294654D01*
X210041Y294630D01*
X209983Y294601D01*
X209926Y294569D01*
X209872Y294534D01*
X209820Y294496D01*
X209770Y294454D01*
X209723Y294410D01*
X209679Y294363D01*
X209637Y294313D01*
X209599Y294261D01*
X209564Y294207D01*
X209532Y294150D01*
X209503Y294092D01*
X209479Y294032D01*
X209458Y293971D01*
X209440Y293909D01*
X209427Y293845D01*
X209417Y293781D01*
X209411Y293717D01*
X209409Y293652D01*
X209409Y292044D01*
X207264Y292044D01*
X207264Y294725D01*
X225044Y289715D02*
X225044Y288643D01*
X225042Y288578D01*
X225036Y288514D01*
X225026Y288450D01*
X225013Y288386D01*
X224995Y288324D01*
X224974Y288263D01*
X224950Y288203D01*
X224921Y288145D01*
X224889Y288088D01*
X224854Y288034D01*
X224816Y287982D01*
X224774Y287932D01*
X224730Y287885D01*
X224683Y287841D01*
X224633Y287799D01*
X224581Y287761D01*
X224527Y287726D01*
X224470Y287694D01*
X224412Y287665D01*
X224352Y287641D01*
X224291Y287620D01*
X224229Y287602D01*
X224165Y287589D01*
X224101Y287579D01*
X224037Y287573D01*
X223972Y287571D01*
X223972Y287570D02*
X221290Y287570D01*
X221225Y287572D01*
X221161Y287578D01*
X221097Y287588D01*
X221033Y287601D01*
X220971Y287619D01*
X220910Y287640D01*
X220850Y287665D01*
X220791Y287693D01*
X220735Y287725D01*
X220680Y287760D01*
X220628Y287798D01*
X220578Y287840D01*
X220531Y287884D01*
X220487Y287931D01*
X220445Y287981D01*
X220407Y288033D01*
X220372Y288088D01*
X220340Y288144D01*
X220312Y288203D01*
X220287Y288262D01*
X220266Y288324D01*
X220248Y288386D01*
X220235Y288450D01*
X220225Y288514D01*
X220219Y288578D01*
X220217Y288643D01*
X220218Y288643D02*
X220218Y289715D01*
X222363Y292171D02*
X222363Y293779D01*
X222365Y293844D01*
X222371Y293908D01*
X222381Y293972D01*
X222394Y294036D01*
X222412Y294098D01*
X222433Y294159D01*
X222457Y294219D01*
X222486Y294277D01*
X222518Y294334D01*
X222553Y294388D01*
X222591Y294440D01*
X222633Y294490D01*
X222677Y294537D01*
X222724Y294581D01*
X222774Y294623D01*
X222826Y294661D01*
X222880Y294696D01*
X222937Y294728D01*
X222995Y294757D01*
X223055Y294781D01*
X223116Y294802D01*
X223178Y294820D01*
X223242Y294833D01*
X223306Y294843D01*
X223370Y294849D01*
X223435Y294851D01*
X223435Y294852D02*
X223703Y294852D01*
X223774Y294850D01*
X223846Y294844D01*
X223916Y294835D01*
X223986Y294822D01*
X224056Y294805D01*
X224124Y294784D01*
X224191Y294760D01*
X224257Y294732D01*
X224321Y294701D01*
X224384Y294666D01*
X224444Y294628D01*
X224503Y294587D01*
X224559Y294543D01*
X224613Y294496D01*
X224664Y294447D01*
X224712Y294394D01*
X224758Y294339D01*
X224800Y294282D01*
X224840Y294222D01*
X224876Y294161D01*
X224909Y294097D01*
X224938Y294032D01*
X224964Y293966D01*
X224987Y293898D01*
X225006Y293829D01*
X225021Y293759D01*
X225032Y293689D01*
X225040Y293618D01*
X225044Y293547D01*
X225044Y293475D01*
X225040Y293404D01*
X225032Y293333D01*
X225021Y293263D01*
X225006Y293193D01*
X224987Y293124D01*
X224964Y293056D01*
X224938Y292990D01*
X224909Y292925D01*
X224876Y292861D01*
X224840Y292800D01*
X224800Y292740D01*
X224758Y292683D01*
X224712Y292628D01*
X224664Y292575D01*
X224613Y292526D01*
X224559Y292479D01*
X224503Y292435D01*
X224444Y292394D01*
X224384Y292356D01*
X224321Y292321D01*
X224257Y292290D01*
X224191Y292262D01*
X224124Y292238D01*
X224056Y292217D01*
X223986Y292200D01*
X223916Y292187D01*
X223846Y292178D01*
X223774Y292172D01*
X223703Y292170D01*
X223703Y292171D02*
X222363Y292171D01*
X222272Y292173D01*
X222181Y292179D01*
X222091Y292188D01*
X222000Y292202D01*
X221911Y292219D01*
X221823Y292240D01*
X221735Y292265D01*
X221648Y292294D01*
X221563Y292326D01*
X221479Y292361D01*
X221397Y292401D01*
X221317Y292443D01*
X221238Y292489D01*
X221162Y292539D01*
X221088Y292591D01*
X221015Y292647D01*
X220946Y292706D01*
X220879Y292767D01*
X220814Y292832D01*
X220753Y292899D01*
X220694Y292968D01*
X220638Y293040D01*
X220586Y293115D01*
X220536Y293191D01*
X220490Y293270D01*
X220448Y293350D01*
X220408Y293432D01*
X220373Y293516D01*
X220341Y293601D01*
X220312Y293688D01*
X220287Y293775D01*
X220266Y293864D01*
X220249Y293953D01*
X220235Y294043D01*
X220226Y294134D01*
X220220Y294225D01*
X220218Y294316D01*
D39*
X116840Y102870D02*
X123190Y96520D01*
X116840Y102870D02*
X104140Y102870D01*
X97790Y96520D01*
X97790Y83820D01*
X104140Y77470D01*
X116840Y77470D01*
X123190Y83820D01*
X123190Y96520D01*
D40*
X89874Y94361D02*
X89874Y90607D01*
X89873Y90607D02*
X89871Y90542D01*
X89865Y90478D01*
X89855Y90414D01*
X89842Y90350D01*
X89824Y90288D01*
X89803Y90227D01*
X89779Y90167D01*
X89750Y90109D01*
X89718Y90052D01*
X89683Y89998D01*
X89645Y89946D01*
X89603Y89896D01*
X89559Y89849D01*
X89512Y89805D01*
X89462Y89763D01*
X89410Y89725D01*
X89356Y89690D01*
X89299Y89658D01*
X89241Y89629D01*
X89181Y89605D01*
X89120Y89584D01*
X89058Y89566D01*
X88994Y89553D01*
X88930Y89543D01*
X88866Y89537D01*
X88801Y89535D01*
X88265Y89535D01*
X94296Y94361D02*
X94364Y94359D01*
X94431Y94353D01*
X94498Y94344D01*
X94565Y94331D01*
X94630Y94314D01*
X94695Y94293D01*
X94758Y94269D01*
X94820Y94241D01*
X94880Y94210D01*
X94938Y94176D01*
X94994Y94138D01*
X95049Y94098D01*
X95100Y94054D01*
X95149Y94007D01*
X95196Y93958D01*
X95240Y93907D01*
X95280Y93852D01*
X95318Y93796D01*
X95352Y93738D01*
X95383Y93678D01*
X95411Y93616D01*
X95435Y93553D01*
X95456Y93488D01*
X95473Y93423D01*
X95486Y93356D01*
X95495Y93289D01*
X95501Y93222D01*
X95503Y93154D01*
X94296Y94361D02*
X94218Y94359D01*
X94140Y94353D01*
X94063Y94343D01*
X93986Y94330D01*
X93910Y94312D01*
X93835Y94291D01*
X93761Y94266D01*
X93689Y94237D01*
X93618Y94205D01*
X93549Y94169D01*
X93481Y94130D01*
X93416Y94087D01*
X93353Y94041D01*
X93292Y93992D01*
X93234Y93940D01*
X93179Y93885D01*
X93126Y93828D01*
X93077Y93768D01*
X93030Y93705D01*
X92987Y93641D01*
X92947Y93574D01*
X92910Y93505D01*
X92877Y93434D01*
X92847Y93362D01*
X92821Y93289D01*
X95101Y92216D02*
X95150Y92265D01*
X95197Y92317D01*
X95240Y92372D01*
X95281Y92429D01*
X95319Y92488D01*
X95353Y92549D01*
X95384Y92612D01*
X95412Y92676D01*
X95436Y92742D01*
X95456Y92808D01*
X95473Y92876D01*
X95486Y92945D01*
X95495Y93014D01*
X95501Y93084D01*
X95503Y93154D01*
X95101Y92216D02*
X92822Y89535D01*
X95503Y89535D01*
D39*
X224790Y96520D02*
X231140Y102870D01*
X224790Y96520D02*
X224790Y83820D01*
X231140Y77470D01*
X243840Y77470D01*
X250190Y83820D01*
X250190Y96520D01*
X243840Y102870D01*
X231140Y102870D01*
D40*
X218003Y87334D02*
X214249Y87334D01*
X218003Y87333D02*
X218068Y87331D01*
X218132Y87325D01*
X218196Y87315D01*
X218260Y87302D01*
X218322Y87284D01*
X218383Y87263D01*
X218443Y87239D01*
X218501Y87210D01*
X218558Y87178D01*
X218612Y87143D01*
X218664Y87105D01*
X218714Y87063D01*
X218761Y87019D01*
X218805Y86972D01*
X218847Y86922D01*
X218885Y86870D01*
X218920Y86816D01*
X218952Y86759D01*
X218981Y86701D01*
X219005Y86641D01*
X219026Y86580D01*
X219044Y86518D01*
X219057Y86454D01*
X219067Y86390D01*
X219073Y86326D01*
X219075Y86261D01*
X219075Y85725D01*
X219075Y90282D02*
X219075Y91622D01*
X219073Y91693D01*
X219067Y91765D01*
X219058Y91835D01*
X219045Y91905D01*
X219028Y91975D01*
X219007Y92043D01*
X218983Y92110D01*
X218955Y92176D01*
X218924Y92240D01*
X218889Y92303D01*
X218851Y92363D01*
X218810Y92422D01*
X218766Y92478D01*
X218719Y92532D01*
X218670Y92583D01*
X218617Y92631D01*
X218562Y92677D01*
X218505Y92719D01*
X218445Y92759D01*
X218384Y92795D01*
X218320Y92828D01*
X218255Y92857D01*
X218189Y92883D01*
X218121Y92906D01*
X218052Y92925D01*
X217982Y92940D01*
X217912Y92951D01*
X217841Y92959D01*
X217770Y92963D01*
X217698Y92963D01*
X217627Y92959D01*
X217556Y92951D01*
X217486Y92940D01*
X217416Y92925D01*
X217347Y92906D01*
X217279Y92883D01*
X217213Y92857D01*
X217148Y92828D01*
X217084Y92795D01*
X217023Y92759D01*
X216963Y92719D01*
X216906Y92677D01*
X216851Y92631D01*
X216798Y92583D01*
X216749Y92532D01*
X216702Y92478D01*
X216658Y92422D01*
X216617Y92363D01*
X216579Y92303D01*
X216544Y92240D01*
X216513Y92176D01*
X216485Y92110D01*
X216461Y92043D01*
X216440Y91975D01*
X216423Y91905D01*
X216410Y91835D01*
X216401Y91765D01*
X216395Y91693D01*
X216393Y91622D01*
X214249Y91890D02*
X214249Y90282D01*
X214249Y91890D02*
X214251Y91955D01*
X214257Y92019D01*
X214267Y92083D01*
X214280Y92147D01*
X214298Y92209D01*
X214319Y92270D01*
X214343Y92330D01*
X214372Y92388D01*
X214404Y92445D01*
X214439Y92499D01*
X214477Y92551D01*
X214519Y92601D01*
X214563Y92648D01*
X214610Y92692D01*
X214660Y92734D01*
X214712Y92772D01*
X214766Y92807D01*
X214823Y92839D01*
X214881Y92868D01*
X214941Y92892D01*
X215002Y92913D01*
X215064Y92931D01*
X215128Y92944D01*
X215192Y92954D01*
X215256Y92960D01*
X215321Y92962D01*
X215386Y92960D01*
X215450Y92954D01*
X215514Y92944D01*
X215578Y92931D01*
X215640Y92913D01*
X215701Y92892D01*
X215761Y92868D01*
X215819Y92839D01*
X215876Y92807D01*
X215930Y92772D01*
X215982Y92734D01*
X216032Y92692D01*
X216079Y92648D01*
X216123Y92601D01*
X216165Y92551D01*
X216203Y92499D01*
X216238Y92445D01*
X216270Y92388D01*
X216299Y92330D01*
X216323Y92270D01*
X216344Y92209D01*
X216362Y92147D01*
X216375Y92083D01*
X216385Y92019D01*
X216391Y91955D01*
X216393Y91890D01*
X216394Y91890D02*
X216394Y90818D01*
D39*
X123190Y381000D02*
X116840Y387350D01*
X104140Y387350D01*
X97790Y381000D01*
X97790Y368300D01*
X104140Y361950D01*
X116840Y361950D01*
X123190Y368300D01*
X123190Y381000D01*
D40*
X89874Y378841D02*
X89874Y375087D01*
X89873Y375087D02*
X89871Y375022D01*
X89865Y374958D01*
X89855Y374894D01*
X89842Y374830D01*
X89824Y374768D01*
X89803Y374707D01*
X89779Y374647D01*
X89750Y374589D01*
X89718Y374532D01*
X89683Y374478D01*
X89645Y374426D01*
X89603Y374376D01*
X89559Y374329D01*
X89512Y374285D01*
X89462Y374243D01*
X89410Y374205D01*
X89356Y374170D01*
X89299Y374138D01*
X89241Y374109D01*
X89181Y374085D01*
X89120Y374064D01*
X89058Y374046D01*
X88994Y374033D01*
X88930Y374023D01*
X88866Y374017D01*
X88801Y374015D01*
X88265Y374015D01*
X92822Y376696D02*
X94430Y376696D01*
X94495Y376694D01*
X94559Y376688D01*
X94623Y376678D01*
X94687Y376665D01*
X94749Y376647D01*
X94810Y376626D01*
X94870Y376602D01*
X94928Y376573D01*
X94985Y376541D01*
X95039Y376506D01*
X95091Y376468D01*
X95141Y376426D01*
X95188Y376382D01*
X95232Y376335D01*
X95274Y376285D01*
X95312Y376233D01*
X95347Y376179D01*
X95379Y376122D01*
X95408Y376064D01*
X95432Y376004D01*
X95453Y375943D01*
X95471Y375881D01*
X95484Y375817D01*
X95494Y375753D01*
X95500Y375689D01*
X95502Y375624D01*
X95503Y375624D02*
X95503Y375356D01*
X95501Y375285D01*
X95495Y375213D01*
X95486Y375143D01*
X95473Y375073D01*
X95456Y375003D01*
X95435Y374935D01*
X95411Y374868D01*
X95383Y374802D01*
X95352Y374738D01*
X95317Y374675D01*
X95279Y374615D01*
X95238Y374556D01*
X95194Y374500D01*
X95147Y374446D01*
X95098Y374395D01*
X95045Y374347D01*
X94990Y374301D01*
X94933Y374259D01*
X94873Y374219D01*
X94812Y374183D01*
X94748Y374150D01*
X94683Y374121D01*
X94617Y374095D01*
X94549Y374072D01*
X94480Y374053D01*
X94410Y374038D01*
X94340Y374027D01*
X94269Y374019D01*
X94198Y374015D01*
X94126Y374015D01*
X94055Y374019D01*
X93984Y374027D01*
X93914Y374038D01*
X93844Y374053D01*
X93775Y374072D01*
X93707Y374095D01*
X93641Y374121D01*
X93576Y374150D01*
X93512Y374183D01*
X93451Y374219D01*
X93391Y374259D01*
X93334Y374301D01*
X93279Y374347D01*
X93226Y374395D01*
X93177Y374446D01*
X93130Y374500D01*
X93086Y374556D01*
X93045Y374615D01*
X93007Y374675D01*
X92972Y374738D01*
X92941Y374802D01*
X92913Y374868D01*
X92889Y374935D01*
X92868Y375003D01*
X92851Y375073D01*
X92838Y375143D01*
X92829Y375213D01*
X92823Y375285D01*
X92821Y375356D01*
X92822Y375356D02*
X92822Y376696D01*
X92824Y376787D01*
X92830Y376878D01*
X92839Y376968D01*
X92853Y377059D01*
X92870Y377148D01*
X92891Y377236D01*
X92916Y377324D01*
X92945Y377411D01*
X92977Y377496D01*
X93012Y377580D01*
X93052Y377662D01*
X93094Y377742D01*
X93140Y377821D01*
X93190Y377897D01*
X93242Y377971D01*
X93298Y378044D01*
X93357Y378113D01*
X93418Y378180D01*
X93483Y378245D01*
X93550Y378306D01*
X93619Y378365D01*
X93691Y378421D01*
X93766Y378473D01*
X93842Y378523D01*
X93921Y378569D01*
X94001Y378611D01*
X94083Y378651D01*
X94167Y378686D01*
X94252Y378718D01*
X94339Y378747D01*
X94426Y378772D01*
X94515Y378793D01*
X94604Y378810D01*
X94695Y378824D01*
X94785Y378833D01*
X94876Y378839D01*
X94967Y378841D01*
D39*
X243840Y387350D02*
X250190Y381000D01*
X243840Y387350D02*
X231140Y387350D01*
X224790Y381000D01*
X224790Y368300D01*
X231140Y361950D01*
X243840Y361950D01*
X250190Y368300D01*
X250190Y381000D01*
D40*
X218144Y381381D02*
X218144Y377627D01*
X218143Y377627D02*
X218141Y377562D01*
X218135Y377498D01*
X218125Y377434D01*
X218112Y377370D01*
X218094Y377308D01*
X218073Y377247D01*
X218049Y377187D01*
X218020Y377129D01*
X217988Y377072D01*
X217953Y377018D01*
X217915Y376966D01*
X217873Y376916D01*
X217829Y376869D01*
X217782Y376825D01*
X217732Y376783D01*
X217680Y376745D01*
X217626Y376710D01*
X217569Y376678D01*
X217511Y376649D01*
X217451Y376625D01*
X217390Y376604D01*
X217328Y376586D01*
X217264Y376573D01*
X217200Y376563D01*
X217136Y376557D01*
X217071Y376555D01*
X216535Y376555D01*
X221092Y380845D02*
X221092Y381381D01*
X223773Y381381D01*
X222432Y376555D01*
M02*
