G04 EAGLE Gerber RS-274X export*
G75*
%MOMM*%
%FSLAX34Y34*%
%LPD*%
%INSoldermask Top*%
%IPPOS*%
%AMOC8*
5,1,8,0,0,1.08239X$1,22.5*%
G01*
%ADD10C,3.378200*%
%ADD11R,2.616200X2.616200*%
%ADD12C,2.616200*%
%ADD13C,2.082800*%
%ADD14R,2.184400X0.762000*%
%ADD15R,1.103200X1.053200*%
%ADD16R,1.053200X1.103200*%
%ADD17R,1.033200X0.833200*%
%ADD18R,1.953200X0.603200*%
%ADD19R,1.663200X2.203200*%
%ADD20R,2.703200X1.628200*%
%ADD21R,4.267200X1.727200*%
%ADD22R,4.267200X1.473200*%
%ADD23R,2.703194X2.763597*%
%ADD24R,2.763597X2.703194*%
%ADD25C,1.703200*%

G36*
X439803Y270069D02*
X439803Y270069D01*
X439834Y270067D01*
X440501Y270142D01*
X440548Y270157D01*
X440612Y270167D01*
X441246Y270389D01*
X441289Y270415D01*
X441349Y270439D01*
X441917Y270796D01*
X441953Y270830D01*
X442006Y270867D01*
X442481Y271342D01*
X442509Y271383D01*
X442552Y271431D01*
X442909Y271999D01*
X442927Y272046D01*
X442959Y272102D01*
X443181Y272736D01*
X443187Y272785D01*
X443206Y272847D01*
X443281Y273514D01*
X443279Y273541D01*
X443284Y273571D01*
X443284Y281563D01*
X443308Y282347D01*
X443299Y282396D01*
X443298Y282460D01*
X443145Y283237D01*
X443126Y283283D01*
X443111Y283346D01*
X442789Y284069D01*
X442760Y284109D01*
X442731Y284167D01*
X442256Y284800D01*
X442219Y284833D01*
X442178Y284883D01*
X441574Y285394D01*
X441531Y285418D01*
X441480Y285458D01*
X440777Y285822D01*
X440729Y285836D01*
X440671Y285863D01*
X439905Y286062D01*
X439851Y286065D01*
X439777Y286078D01*
X421284Y286078D01*
X421284Y288571D01*
X421283Y288576D01*
X421284Y288581D01*
X421263Y288674D01*
X421245Y288768D01*
X421242Y288772D01*
X421241Y288777D01*
X421185Y288855D01*
X421132Y288933D01*
X421128Y288936D01*
X421125Y288940D01*
X421043Y288991D01*
X420964Y289043D01*
X420959Y289043D01*
X420954Y289046D01*
X420777Y289078D01*
X412777Y289078D01*
X412772Y289077D01*
X412767Y289078D01*
X412674Y289057D01*
X412581Y289039D01*
X412576Y289036D01*
X412571Y289035D01*
X412493Y288979D01*
X412415Y288926D01*
X412412Y288922D01*
X412408Y288919D01*
X412357Y288837D01*
X412305Y288758D01*
X412305Y288753D01*
X412302Y288748D01*
X412270Y288571D01*
X412270Y270571D01*
X412271Y270566D01*
X412270Y270561D01*
X412291Y270468D01*
X412309Y270375D01*
X412312Y270370D01*
X412313Y270365D01*
X412369Y270287D01*
X412422Y270209D01*
X412426Y270206D01*
X412429Y270202D01*
X412511Y270151D01*
X412590Y270099D01*
X412595Y270099D01*
X412600Y270096D01*
X412777Y270064D01*
X439777Y270064D01*
X439803Y270069D01*
G37*
G36*
X420782Y212065D02*
X420782Y212065D01*
X420787Y212064D01*
X420880Y212085D01*
X420974Y212103D01*
X420978Y212106D01*
X420983Y212107D01*
X421061Y212163D01*
X421139Y212216D01*
X421142Y212220D01*
X421146Y212223D01*
X421197Y212305D01*
X421249Y212384D01*
X421249Y212389D01*
X421252Y212394D01*
X421284Y212571D01*
X421284Y216064D01*
X438777Y216064D01*
X438803Y216069D01*
X438834Y216067D01*
X439724Y216167D01*
X439771Y216182D01*
X439835Y216193D01*
X440680Y216488D01*
X440723Y216514D01*
X440782Y216538D01*
X441541Y217014D01*
X441577Y217048D01*
X441630Y217085D01*
X442263Y217718D01*
X442290Y217760D01*
X442334Y217807D01*
X442810Y218566D01*
X442828Y218612D01*
X442860Y218668D01*
X443156Y219513D01*
X443162Y219562D01*
X443181Y219624D01*
X443281Y220514D01*
X443279Y220541D01*
X443284Y220571D01*
X443284Y227571D01*
X443274Y227624D01*
X443268Y227699D01*
X443069Y228465D01*
X443053Y228497D01*
X443052Y228502D01*
X443048Y228508D01*
X443047Y228509D01*
X443028Y228571D01*
X442664Y229274D01*
X442633Y229312D01*
X442600Y229368D01*
X442089Y229972D01*
X442050Y230003D01*
X442006Y230050D01*
X441373Y230525D01*
X441328Y230546D01*
X441275Y230583D01*
X440552Y230905D01*
X440503Y230915D01*
X440443Y230939D01*
X439666Y231092D01*
X439617Y231092D01*
X439553Y231102D01*
X438769Y231078D01*
X412777Y231078D01*
X412772Y231077D01*
X412767Y231078D01*
X412674Y231057D01*
X412581Y231039D01*
X412576Y231036D01*
X412571Y231035D01*
X412493Y230979D01*
X412415Y230926D01*
X412412Y230922D01*
X412408Y230919D01*
X412357Y230837D01*
X412305Y230758D01*
X412305Y230753D01*
X412302Y230748D01*
X412270Y230571D01*
X412270Y212571D01*
X412271Y212566D01*
X412270Y212561D01*
X412291Y212468D01*
X412309Y212375D01*
X412312Y212370D01*
X412313Y212365D01*
X412369Y212287D01*
X412422Y212209D01*
X412426Y212206D01*
X412429Y212202D01*
X412511Y212151D01*
X412590Y212099D01*
X412595Y212099D01*
X412600Y212096D01*
X412777Y212064D01*
X420777Y212064D01*
X420782Y212065D01*
G37*
D10*
X28194Y429514D03*
X32004Y30734D03*
X427990Y30607D03*
X431927Y429768D03*
D11*
X42164Y175514D03*
D12*
X42164Y225514D03*
X42164Y275514D03*
D13*
X300609Y347218D03*
X326009Y347218D03*
D14*
X98806Y200914D03*
X98806Y188214D03*
X98806Y175514D03*
X98806Y162814D03*
X148082Y162814D03*
X148082Y175514D03*
X148082Y188214D03*
X148082Y200914D03*
X139446Y292354D03*
X139446Y279654D03*
X139446Y266954D03*
X139446Y254254D03*
X188722Y254254D03*
X188722Y266954D03*
X188722Y279654D03*
X188722Y292354D03*
D15*
X89154Y235924D03*
X89154Y224324D03*
X188214Y121454D03*
X188214Y133054D03*
X165354Y133054D03*
X165354Y121454D03*
X151384Y133054D03*
X151384Y121454D03*
X137414Y133054D03*
X137414Y121454D03*
D16*
X207560Y202438D03*
X219160Y202438D03*
X207560Y188595D03*
X219160Y188595D03*
X219117Y226060D03*
X230717Y226060D03*
D13*
X300736Y273939D03*
X328676Y273939D03*
X300736Y248539D03*
X328676Y248539D03*
X300736Y223139D03*
X328676Y223139D03*
X300736Y197739D03*
X328676Y197739D03*
X300736Y172339D03*
X328676Y172339D03*
D17*
X249809Y248863D03*
X249809Y225863D03*
D18*
X406527Y250571D03*
X406527Y244071D03*
X406527Y263571D03*
X406527Y257071D03*
D19*
X403777Y279571D03*
X403777Y221571D03*
D20*
X433277Y240946D03*
X433277Y260196D03*
D18*
X406527Y237571D03*
D15*
X94234Y121454D03*
X94234Y133054D03*
X106934Y224324D03*
X106934Y235924D03*
D21*
X425196Y108966D03*
X425196Y159766D03*
D22*
X425196Y134366D03*
D23*
X394716Y319353D03*
X394716Y372797D03*
D24*
X238685Y333375D03*
X185241Y333375D03*
D15*
X166116Y201337D03*
X166116Y212937D03*
X179832Y201337D03*
X179832Y212937D03*
X242443Y157438D03*
X242443Y145838D03*
X228092Y157438D03*
X228092Y145838D03*
X208915Y278723D03*
X208915Y267123D03*
X222631Y278723D03*
X222631Y267123D03*
D13*
X110490Y90170D03*
X237490Y90170D03*
X110490Y374650D03*
X237490Y374650D03*
D25*
X66294Y113284D03*
X106934Y265684D03*
X164084Y273685D03*
X354330Y395605D03*
X147828Y348361D03*
X174244Y166878D03*
X379349Y89408D03*
X372745Y175895D03*
X156464Y233172D03*
X233045Y125349D03*
X383286Y274193D03*
M02*
