M48
;GenerationSoftware,Autodesk,EAGLE,9.6.2*%
;CreationDate,2021-02-23T03:47:53Z*%
FMAT,2
ICI,OFF
METRIC,TZ,000.000
T4C1.000
T3C1.016
T2C1.300
T1C3.175
%
G90
M71
T1
X42799Y3061
X43193Y42977
X2819Y42951
X3200Y3073
T2
X4216Y27551
X4216Y17551
X4216Y22551
T3
X32868Y24854
X30074Y22314
X32868Y22314
X30074Y19774
X32868Y19774
X30074Y17234
X32868Y17234
X11049Y9017
X23749Y9017
X11049Y37465
X23749Y37465
X30061Y34722
X32601Y34722
X30074Y27394
X32868Y27394
X30074Y24854
T4
X10693Y26568
X16408Y27368
X35433Y39561
X14783Y34836
X17424Y16688
X37935Y8941
X37275Y17590
X15646Y23317
X23304Y12535
X38329Y27419
X6629Y11328
M30